<?xml version="1.0" encoding="UTF-8" standalone="no"?>
<svg
   xmlns:dc="http://purl.org/dc/elements/1.1/"
   xmlns:cc="http://creativecommons.org/ns#"
   xmlns:rdf="http://www.w3.org/1999/02/22-rdf-syntax-ns#"
   xmlns:svg="http://www.w3.org/2000/svg"
   xmlns="http://www.w3.org/2000/svg"
   viewBox="0 0 4000 2666.6667"
   height="2666.6667"
   width="4000"
   xml:space="preserve"
   id="svg2"
   version="1.1"><metadata
     id="metadata8"><rdf:RDF><cc:Work
         rdf:about=""><dc:format>image/svg+xml</dc:format><dc:type
           rdf:resource="http://purl.org/dc/dcmitype/StillImage" /></cc:Work></rdf:RDF></metadata><defs
     id="defs6"><clipPath
       id="clipPath200"
       clipPathUnits="userSpaceOnUse"><path
         id="path198"
         d="m 9333.22,6571.3 h 2198.18 v 2060 H 9333.22 Z" /></clipPath></defs><g
     transform="matrix(1.3333333,0,0,-1.3333333,0,2666.6667)"
     id="g10"><g
       transform="scale(0.1)"
       id="g12"><g
         transform="scale(1.84049)"
         id="g14"><path
           id="path16"
           style="fill:#ffffff;fill-opacity:1;fill-rule:nonzero;stroke:none"
           d="M 16300,0 H 0 V 10866.7 H 16300 V 0" /></g><g
         transform="scale(1.84049)"
         id="g18"><path
           id="path20"
           style="fill:#e9f3fe;fill-opacity:1;fill-rule:nonzero;stroke:none"
           d="m 1063.14,2430.82 c 0,0 -1272.243,2294.61 225.3,3389.66 835.6,611.03 1836.79,179.73 2684.07,1819.8 493.07,954.43 2218.56,1244.13 3081.42,-58.91 862.87,-1303.04 1672.27,-1520.01 2267.6,-1278.97 682.77,276.42 982.77,1108.42 2051.47,932.49 1235.2,-203.35 1141.9,-1866.21 2052.1,-1651.53 1755.2,413.96 3041.1,-1929.93 1827.7,-3147.65 l -14189.66,-4.89" /></g><path
         id="path22"
         style="fill:#ffb27d;fill-opacity:1;fill-rule:nonzero;stroke:none"
         d="m 13763.6,11418.8 -0.3,-52.4 c 0,0 14.2,-164 -187.6,-187.9 -201.9,-24 -354.8,63.9 -349.3,190.4 18.2,98 38.1,165.2 39.5,246.3 0.5,30.1 -1.6,62.1 -7.2,98.1 l 391.1,7.8 115.2,-18.8 -1.4,-283.5" /><path
         id="path24"
         style="fill:#e8945b;fill-opacity:1;fill-rule:nonzero;stroke:none"
         d="m 13765,11702.3 -1.4,-283.5 c -41.6,-19.3 -88.5,-31.1 -141,-31.1 -179.8,0 -296,131.8 -356.7,227.5 0.5,30.1 -1.6,62.1 -7.2,98.1 l 391.1,7.8 115.2,-18.8" /><path
         id="path26"
         style="fill:#ffb27d;fill-opacity:1;fill-rule:nonzero;stroke:none"
         d="m 13787.9,11564.6 c 0,0 -501,-101.2 -559.2,211.7 -58.2,312.9 -162.1,510.6 155.3,588.4 317.4,77.9 401.9,-29.9 446.8,-129.6 44.8,-99.8 85.9,-636.2 -42.9,-670.5" /><path
         id="path28"
         style="fill:#ffb27d;fill-opacity:1;fill-rule:nonzero;stroke:none"
         d="m 13758.2,11341.3 c 0,0 119.4,-639.1 249.6,-1306.6 141.5,-725.6 486,-1419.2 515.8,-1446.3 41.5,-37.8 195.6,-33.5 147.3,29.7 -67.5,88.3 -92.1,720.4 -125.4,1099.2 -8.1,92.5 -41,182.6 -51.5,229.6 -53.2,239.4 -70.8,1041.9 -230.4,1174.9 -159.7,133 -505.4,219.5 -505.4,219.5" /><path
         id="path30"
         style="fill:#415da5;fill-opacity:1;fill-rule:nonzero;stroke:none"
         d="m 13758.2,11341.3 c 0,0 68.9,-368.3 159,-837.8 28.5,-148.9 59.3,-308 90.6,-468.8 127.6,-250.1 237.1,-420.1 270.9,-388.1 69,65.1 190.1,73.1 266.8,70.7 -8.1,92.5 -17.5,168.4 -27.9,215.4 -4.2,18.9 -8.2,41.6 -12,67.4 -44.7,301.3 -70,1029.5 -217,1152 -159.6,133 -530.4,189.2 -530.4,189.2" /><path
         id="path32"
         style="fill:#2b478b;fill-opacity:1;fill-rule:nonzero;stroke:none"
         d="m 13917.2,10503.5 c 28.5,-148.9 59.3,-308 90.6,-468.8 127.6,-250.1 237.1,-420.1 270.9,-388.1 69,65.1 190.1,73.1 266.8,70.7 -8.1,92.5 -17.5,168.4 -27.9,215.4 -4.2,18.9 -8.2,41.6 -12,67.4 l -382.5,923.4 -205.9,-420" /><path
         id="path34"
         style="fill:#233862;fill-opacity:1;fill-rule:nonzero;stroke:none"
         d="m 13418.6,4577.5 c 0,0 -18.8,145.8 -62.1,232.5 -43.4,86.7 -319.2,31.5 -319.2,31.5 0,0 -55.2,-47.3 -67,-268 l 448.3,4" /><path
         id="path36"
         style="fill:#233862;fill-opacity:1;fill-rule:nonzero;stroke:none"
         d="m 14358.5,4579.4 c -64.8,39.6 -27.9,334.8 -27.9,334.8 0,0 302,241.6 343.6,56.6 41.5,-185 286.9,-268.1 426.6,-290.7 96.5,-15.7 126.3,-69.1 135.6,-100.7 h -877.9" /><path
         id="path38"
         style="fill:#2b478b;fill-opacity:1;fill-rule:nonzero;stroke:none"
         d="m 13732.8,6726.3 c 12.3,-67.7 20.1,-123.3 22.2,-163.2 28.1,-547.7 545.7,-1757 623.1,-1786.2 119.8,-45.2 223.9,7.9 322.7,39.3 40.9,13.1 68.5,54.4 59.4,96.2 -214.4,985.7 -293.2,2405.1 -321.9,3245.5 -14.5,423.3 -87.2,715.7 -87.2,715.7 0,0 -1056,281.7 -1062.2,-74.7 -5.6,-315.4 349.8,-1552.3 443.9,-2072.6" /><path
         id="path40"
         style="fill:#233862;fill-opacity:1;fill-rule:nonzero;stroke:none"
         d="m 13732.8,6726.3 705.5,1431.6 c -14.5,423.3 -87.2,715.7 -87.2,715.7 0,0 -1056,281.7 -1062.2,-74.7 -5.6,-315.4 349.8,-1552.3 443.9,-2072.6" /><path
         id="path42"
         style="fill:#2b478b;fill-opacity:1;fill-rule:nonzero;stroke:none"
         d="m 13967.8,8797.7 -558.3,-4046.1 c 0,0 -245.1,-59.1 -435.8,-11.8 0,0 -163.4,2151.9 -149.8,2672.1 13.6,520.2 -117.3,1392.1 29.9,1488.2 147.1,96.2 1114,-102.4 1114,-102.4" /><path
         id="path44"
         style="fill:#ffffff;fill-opacity:1;fill-rule:nonzero;stroke:none"
         d="m 12821.3,8900.8 c -1.8,-46.9 -12.5,-86.6 34.3,-87.3 l 879.8,-13.5 509.5,61.2 c 30.3,-0.5 71.2,170.5 69.3,1749 -0.5,352.2 -545.8,731.2 -555.8,731.2 l -0.2,-0.1 c 0,-50.7 -79.9,-144.4 -203,-152.4 -146.2,-9.6 -325.5,63.1 -325.5,147.3 0,0.9 -16.9,-17.4 -44.2,-57.2 -73,-106.3 -220,-365.4 -313.8,-816.6 -74.1,-356.3 -2.9,-832.9 -56.2,-1447.5 -3.9,-44.4 7,-83 5.8,-114.1" /><path
         id="path46"
         style="fill:#415da5;fill-opacity:1;fill-rule:nonzero;stroke:none"
         d="m 12806,8808.6 c 0,0 116.9,-52.4 335.7,-97.8 162.6,-33.7 381.4,-63.6 650.3,-65.3 427.6,-2.7 589.5,144.7 589.5,144.7 30.3,-0.6 -50.8,335.1 -52.7,1913.5 -0.5,352.2 -560.4,637.7 -570.4,637.7 l -0.2,-0.1 c 0,0 14.1,-469.1 -127.8,-607 0,0 -199,153.7 -457.2,591.2 -72.9,-106.3 -231.3,-298.1 -325.1,-749.3 -19,-91.8 -7.7,-305.4 -16.3,-413.4 -24.9,-311.3 -19.4,-691.4 -59,-1147.7 -3.9,-44.4 1.9,-83.9 0.7,-115 -1.8,-46.8 -14.4,-90.8 32.5,-91.5" /><path
         id="path48"
         style="fill:#2b478b;fill-opacity:1;fill-rule:nonzero;stroke:none"
         d="m 12806,8808.6 c 0,0 116.9,-52.4 335.7,-97.8 68.8,105 155.5,294.4 167.5,592.9 20.3,504.7 -459.2,1154.7 -459.2,1154.7 l -18.2,-295.6 c -24.9,-311.3 -19.4,-691.4 -59,-1147.7 -3.9,-44.4 1.9,-83.9 0.7,-115 -1.8,-46.8 -14.4,-90.8 32.5,-91.5" /><path
         id="path50"
         style="fill:#2b478b;fill-opacity:1;fill-rule:nonzero;stroke:none"
         d="m 13927.8,10469.4 238.6,13.3 c 16,0.9 28.3,14.7 27.4,30.7 l -5.9,106.8 c -0.9,16 -14.7,28.3 -30.8,27.4 l -238.5,-13.3 c -16.1,-0.9 -28.3,-14.6 -27.4,-30.7 l 5.9,-106.7 c 0.9,-16.1 14.6,-28.4 30.7,-27.5" /><path
         id="path52"
         style="fill:#e9f2ff;fill-opacity:1;fill-rule:nonzero;stroke:none"
         d="m 14079.4,10509.7 77.7,4.4 -5.8,104.1 -77.7,-4.3 5.8,-104.2" /><path
         id="path54"
         style="fill:#e9f2ff;fill-opacity:1;fill-rule:nonzero;stroke:none"
         d="m 13938,10580.2 96.8,5.4 c 7.1,0.4 12.6,6.6 12.3,13.8 -0.4,7.1 -6.6,12.7 -13.8,12.3 l -96.7,-5.4 c -7.2,-0.4 -12.7,-6.6 -12.3,-13.8 0.4,-7.2 6.6,-12.7 13.7,-12.3" /><path
         id="path56"
         style="fill:#e9f2ff;fill-opacity:1;fill-rule:nonzero;stroke:none"
         d="m 13932,10543.8 112.8,6.3 c 2.8,0.2 4.9,2.5 4.7,5.2 -0.1,2.8 -2.5,4.9 -5.2,4.7 l -112.9,-6.3 c -2.7,-0.1 -4.8,-2.5 -4.7,-5.2 0.2,-2.7 2.5,-4.9 5.3,-4.7" /><path
         id="path58"
         style="fill:#e9f2ff;fill-opacity:1;fill-rule:nonzero;stroke:none"
         d="m 13932.9,10527.7 112.8,6.3 c 2.8,0.1 4.9,2.5 4.7,5.2 -0.1,2.7 -2.5,4.9 -5.2,4.7 l -112.9,-6.3 c -2.7,-0.2 -4.8,-2.5 -4.7,-5.2 0.2,-2.8 2.5,-4.9 5.3,-4.7" /><path
         id="path60"
         style="fill:#233862;fill-opacity:1;fill-rule:nonzero;stroke:none"
         d="m 13966.1,10070.4 -13.5,1.9 26.4,190.7 c 1.5,10.6 -2.2,21.3 -9.9,28.7 l 82.9,599.2 c 1.3,9.6 -5.4,18.5 -14.9,19.8 -9.6,1.3 -18.4,-5.4 -19.8,-14.9 l -82.9,-599.3 c -9.4,-5.1 -15.8,-14.3 -17.3,-24.9 l -26.4,-190.7 -12,1.6 2.3,16.9 -42.4,5.9 -2.4,-16.9 -44.9,6.2 c -15.6,2.2 -29.9,-8.7 -32,-24.2 l -76.1,-550.1 c -2.2,-15.5 8.7,-29.8 24.2,-31.9 l 174.8,-24.2 c 15.5,-2.2 29.8,8.7 32,24.2 l 76.1,550.1 c 2.1,15.5 -8.7,29.8 -24.2,31.9" /><path
         id="path62"
         style="fill:#ffb27d;fill-opacity:1;fill-rule:nonzero;stroke:none"
         d="m 12498.9,9494.5 c 0,0 114.5,-41.6 400.7,-12.2 206.4,21.2 474.7,66.2 786.5,158.3 l -91.2,155.7 c 0,0 -372.7,16.4 -645.6,56.4 -68,9.9 -154.8,24.6 -203.1,37.5 -59.4,15.9 260.3,759.3 408.9,1198.4 35.4,104.7 62.6,192 74.6,247.6 0,0 -25.9,-4.2 -66.7,-12.2 -115.7,-22.9 -316.7,-133.5 -416.8,-209.2 -135.4,-102.4 -454.6,-1174.3 -247.3,-1620.3" /><path
         id="path64"
         style="fill:#ffb27d;fill-opacity:1;fill-rule:nonzero;stroke:none"
         d="m 13591.6,9796.3 c 0,0 126.3,118.3 175.1,118.3 48.7,0 199.4,-9 216.1,-47.5 39.3,-90.7 -58.8,-173.3 -98.9,-189 -40.2,-15.8 -140.2,-35.5 -183.2,-39.4 -43.1,-4 -149.3,19.7 -109.1,157.6" /><path
         id="path66"
         style="fill:#415da5;fill-opacity:1;fill-rule:nonzero;stroke:none"
         d="m 12446.1,9469.2 c 0,0 167.3,-16.3 453.5,13.1 -15.8,77.7 -30.5,229.5 49.7,370.4 -68,9.9 -129.8,21.3 -178.1,34.3 -59.3,15.9 253.4,715.8 402,1154.8 11.9,142 0,283.7 0,283.7 l -10.2,-1.5 c -115.7,-22.9 -350.8,-76.5 -450.9,-152.2 -135.4,-102.4 -473.3,-1256.5 -266,-1702.6" /><path
         id="path68"
         style="fill:#2b478b;fill-opacity:1;fill-rule:nonzero;stroke:none"
         d="m 13630.4,10734.3 c 0,0 -398.1,175.4 -404,189.2 -5.9,13.8 19.7,120.2 47.3,151.7 0,0 -191.1,-17.7 -202.9,6 -11.9,23.6 -15.8,220.7 -15.8,220.7 0,0 74.9,78.8 173.4,86.7 0,0 86.3,-214 118.2,-277.9 84.8,-169.5 283.8,-376.4 283.8,-376.4" /><path
         id="path70"
         style="fill:#2b478b;fill-opacity:1;fill-rule:nonzero;stroke:none"
         d="m 13725,11081.2 c 0,0 -25.6,-205 -94.6,-346.9 0,0 207.9,144.9 225.6,192.1 17.8,47.4 -50.2,139 -50.2,139 0,0 124.1,2.9 127.1,44.3 2.9,41.4 -38.4,204 -38.4,204 0,0 -101.6,76.9 -131.1,74 l -38.4,-306.5" /><path
         id="path72"
         style="fill:#233862;fill-opacity:1;fill-rule:nonzero;stroke:none"
         d="m 13928.2,12467.5 c 0,0 -139.7,10.8 -304.5,82.4 -133.7,58.2 -302.4,-5.9 -357.2,-34.7 1.5,8.8 5,20.8 13.3,32.9 0,0 -24.5,-17.4 -28.2,-41.8 -2.5,-1.9 -3.6,-3.1 -3,-3.6 0,0 -27.9,5.1 -45.8,-2.9 0,0 12.6,1.8 17.1,-6.3 l 2,-2.2 c -208.7,-100.8 -227.9,-430.5 -160.8,-506.8 80.8,-91.8 177.6,-298.4 177.6,-298.4 0,0 35.3,48.8 20.7,129.5 -14.7,80.8 55,80.8 143.1,117.5 88.1,36.7 14.7,139.5 91.8,201.9 77.1,62.5 359.8,25.7 356.1,73.5 104.9,38.2 77.8,248.3 77.8,259" /><path
         id="path74"
         style="fill:#ffb27d;fill-opacity:1;fill-rule:nonzero;stroke:none"
         d="m 14661.1,8630.5 c 0,0 158.6,-184.4 95.3,-307.1 -33,-63.9 -154,-99.6 -223.7,-49.1 -52.6,38 54.1,83.4 25,141 -29,57.7 -62.1,224.6 -35.2,279.3 26.9,54.8 138.6,-64.1 138.6,-64.1" /><g
         transform="scale(1.70966)"
         id="g76"><path
           id="path78"
           style="fill:#b64c41;fill-opacity:1;fill-rule:nonzero;stroke:none"
           d="m 15411,4181.42 c -512.3,0 -824.6,318.37 -838.1,332.53 l 105.7,101.71 -52.9,-50.82 52.8,51 c 0.8,-0.82 78.7,-80.31 216.1,-154.83 182.2,-98.73 377.5,-142.77 580.6,-130.96 490.2,28.6 709.2,288.95 711.3,291.58 l 113.5,-93.12 c -10.5,-12.75 -262.6,-312.69 -816.3,-344.98 -24.6,-1.46 -48.9,-2.11 -72.7,-2.11" /></g><g
         transform="scale(1.71428)"
         id="g80"><path
           id="path82"
           style="fill:#739af0;fill-opacity:1;fill-rule:nonzero;stroke:none"
           d="M 16300,4875.29 V 2670.17 c 0,-22.52 -20.2,-40.96 -44.8,-40.96 h -82.2 -1.2 c -24.1,0.59 -43.6,18.79 -43.6,40.96 v 2205.12 c 0,22.17 19.5,40.31 43.6,40.9 l 1.2,0.05 h 82.2 c 24.6,0 44.8,-18.43 44.8,-40.95" /></g><g
         transform="scale(1.70537)"
         id="g84"><path
           id="path86"
           style="fill:#5e87dd;fill-opacity:1;fill-rule:nonzero;stroke:none"
           d="m 16256.2,2642.94 v 0 c -24.2,0.58 -43.8,18.88 -43.8,41.16 v 2216.64 c 0,22.29 19.6,40.52 43.8,41.11 24.2,-0.59 43.8,-18.82 43.8,-41.11 V 2684.1 c 0,-22.28 -19.6,-40.52 -43.8,-41.16" /></g><g
         transform="scale(1.5384)"
         id="g88"><path
           id="path90"
           style="fill:#b64c41;fill-opacity:1;fill-rule:nonzero;stroke:none"
           d="m 15312,4646.89 c -569.3,0 -916.2,353.81 -931.4,369.54 l 117.6,113.04 -58.8,-56.49 58.6,56.68 c 0.9,-0.91 87.5,-89.25 240.2,-172.06 202.4,-109.72 419.4,-158.67 645.1,-145.54 544.8,31.79 788.3,321.11 790.6,324.04 l 126.1,-103.49 c -11.6,-14.16 -291.9,-347.5 -907.2,-383.38 -27.3,-1.62 -54.3,-2.34 -80.8,-2.34" /></g><g
         transform="scale(1.54302)"
         id="g92"><path
           id="path94"
           style="fill:#739af0;fill-opacity:1;fill-rule:nonzero;stroke:none"
           d="M 16300,5416.38 V 2966.51 c 0,-25.01 -22.4,-45.49 -49.8,-45.49 h -91.3 -1.3 c -26.8,0.64 -48.5,20.86 -48.5,45.49 v 2449.87 c 0,24.62 21.7,44.78 48.5,45.43 l 1.3,0.06 h 91.3 c 27.4,0 49.8,-20.48 49.8,-45.49" /></g><g
         transform="scale(1.53412)"
         id="g96"><path
           id="path98"
           style="fill:#5e87dd;fill-opacity:1;fill-rule:nonzero;stroke:none"
           d="m 16251.3,2937.96 v 0 c -26.9,0.66 -48.7,20.99 -48.7,45.77 V 5447.8 c 0,24.77 21.8,45.04 48.7,45.7 26.9,-0.66 48.7,-20.93 48.7,-45.7 V 2983.73 c 0,-24.78 -21.8,-45.05 -48.7,-45.77" /></g><g
         transform="scale(1.36433)"
         id="g100"><path
           id="path102"
           style="fill:#b64c41;fill-opacity:1;fill-rule:nonzero;stroke:none"
           d="m 15185.9,5239.78 c -641.9,0 -1033.2,398.95 -1050.3,416.69 l 132.6,127.46 -66.3,-63.69 66.2,63.91 c 0.9,-1.02 98.6,-100.63 270.8,-194.01 228.2,-123.73 472.9,-178.92 727.4,-164.11 614.3,35.84 888.8,362.08 891.5,365.38 l 142.2,-116.69 c -13.1,-15.98 -329.2,-391.84 -1022.9,-432.3 -30.9,-1.83 -61.4,-2.64 -91.2,-2.64" /></g><g
         transform="scale(1.36894)"
         id="g104"><path
           id="path106"
           style="fill:#739af0;fill-opacity:1;fill-rule:nonzero;stroke:none"
           d="m 16300,6105.14 v -2761.4 c 0,-28.19 -25.3,-51.28 -56.1,-51.28 h -102.9 -1.6 c -30.1,0.73 -54.5,23.52 -54.5,51.28 v 2761.4 c 0,27.76 24.4,50.48 54.5,51.21 l 1.6,0.07 h 102.9 c 30.8,0 56.1,-23.08 56.1,-51.28" /></g><g
         transform="scale(1.36004)"
         id="g108"><path
           id="path110"
           style="fill:#5e87dd;fill-opacity:1;fill-rule:nonzero;stroke:none"
           d="m 16245.1,3314.01 v 0 c -30.4,0.74 -55,23.68 -55,51.62 V 6145.1 c 0,27.94 24.6,50.81 55,51.54 30.3,-0.73 54.9,-23.6 54.9,-51.54 V 3365.63 c 0,-27.94 -24.6,-50.81 -54.9,-51.62" /></g><g
         transform="scale(1.19014)"
         id="g112"><path
           id="path114"
           style="fill:#b64c41;fill-opacity:1;fill-rule:nonzero;stroke:none"
           d="m 15022.9,6032.42 c -735.9,0 -1184.5,457.35 -1204,477.68 l 151.9,146.2 -75.9,-73.1 75.8,73.27 c 1.1,-1.18 113,-115.36 310.5,-222.41 261.6,-141.83 542.1,-205.1 833.9,-188.13 704.2,41.09 1018.8,415.08 1021.9,418.86 l 163,-133.68 c -15,-18.32 -377.3,-449.28 -1172.6,-495.66 -35.5,-2.02 -70.3,-3.03 -104.5,-3.03" /></g><g
         transform="scale(1.02037)"
         id="g116"><path
           id="path118"
           style="fill:#739af0;fill-opacity:1;fill-rule:nonzero;stroke:none"
           d="M 16300,8220.71 V 4515.99 c 0,-37.83 -33.9,-68.8 -75.3,-68.8 h -138.1 c -41.3,0 -75.2,30.97 -75.2,68.8 v 3704.72 c 0,37.83 33.9,68.8 75.2,68.8 h 138.1 c 41.4,0 75.3,-30.97 75.3,-68.8" /></g><g
         transform="scale(1.01272)"
         id="g120"><path
           id="path122"
           style="fill:#5e87dd;fill-opacity:1;fill-rule:nonzero;stroke:none"
           d="m 16224.1,4480.81 h -15.8 c -41.7,0 -75.9,31.21 -75.9,69.32 v 3732.73 c 0,38.12 34.2,69.32 75.9,69.32 h 15.8 c 41.7,0 75.9,-31.2 75.9,-69.32 V 4550.13 c 0,-38.11 -34.2,-69.32 -75.9,-69.32" /></g><g
         transform="scale(1.19475)"
         id="g124"><path
           id="path126"
           style="fill:#739af0;fill-opacity:1;fill-rule:nonzero;stroke:none"
           d="m 16300,7020.86 v -3164 c 0,-32.31 -29,-58.76 -64.3,-58.76 h -117.9 l -1.8,0.09 c -34.5,0.75 -62.5,26.86 -62.5,58.67 v 3164 c 0,31.8 28,57.92 62.5,58.75 h 1.8 117.9 c 35.3,0 64.3,-26.45 64.3,-58.75" /></g><g
         transform="scale(1.18585)"
         id="g128"><path
           id="path130"
           style="fill:#5e87dd;fill-opacity:1;fill-rule:nonzero;stroke:none"
           d="m 16237,3826.7 v 0 c -34.8,0.76 -63,27.07 -63,59.11 v 3187.75 c 0,32.04 28.2,58.36 63,59.2 34.8,-0.93 63,-27.16 63,-59.2 V 3885.81 c 0,-32.04 -28.2,-58.27 -63,-59.11" /></g><path
         id="path132"
         style="fill:#98bdf4;fill-opacity:1;fill-rule:nonzero;stroke:none"
         d="M 11278.4,4511.2 H 2110.78 V 6386.1 H 11278.4 V 4511.2" /><path
         id="path134"
         style="fill:#4a75cb;fill-opacity:1;fill-rule:nonzero;stroke:none"
         d="M 11150.5,6221.3 H 1970.45 v 350 h 9180.05 v -350" /><path
         id="path136"
         style="fill:#aa413e;fill-opacity:1;fill-rule:nonzero;stroke:none"
         d="m 15028.2,7985.7 c 2.1,82.4 -38.8,159.1 -107.9,204.2 -112,73 -303,159.2 -565.5,142.5 -443.2,-28.1 -541.7,-274.3 -555.7,-464.2 -14.1,-190 -161.8,-464.3 -197,-675.3 -35.2,-211 -93.9,-747.9 220,-790 313.9,-42.2 1365.9,0 1365.9,0 0,0 245.1,287.3 0,839.2 -145.4,327.4 -163.6,599.9 -159.8,743.6" /><path
         id="path138"
         style="fill:#b64c41;fill-opacity:1;fill-rule:nonzero;stroke:none"
         d="m 15242.2,7985.7 c 2.2,82.4 -38.8,159.1 -107.8,204.2 -112.1,73 -303,159.2 -565.6,142.5 -443.1,-28.1 -541.6,-274.3 -555.7,-464.2 -14,-190 -161.7,-464.3 -196.9,-675.3 -35.2,-211 -93.9,-747.9 219.9,-790 313.9,-42.2 1362.8,-6.3 1362.8,-6.3 0,0 248.3,293.6 3.2,845.5 -145.4,327.4 -163.6,599.9 -159.9,743.6" /><path
         id="path140"
         style="fill:#aa413e;fill-opacity:1;fill-rule:nonzero;stroke:none"
         d="m 13975.6,7115.5 h 628.4 c 0,0 42.2,-459.6 -257.9,-473.6 -300.1,-14.1 -379.8,178.2 -370.5,473.6" /><path
         id="path142"
         style="fill:#b64c41;fill-opacity:1;fill-rule:nonzero;stroke:none"
         d="m 13975.6,7115.5 c 0,0 107.9,-164.1 304.9,-159.4 196.9,4.7 323.5,159.4 323.5,159.4 h -628.4" /><path
         id="path144"
         style="fill:#aa413e;fill-opacity:1;fill-rule:nonzero;stroke:none"
         d="m 14731.6,7115.5 h 628.4 c 0,0 42.2,-459.6 -258,-473.6 -300.1,-14.1 -379.8,178.2 -370.4,473.6" /><path
         id="path146"
         style="fill:#b64c41;fill-opacity:1;fill-rule:nonzero;stroke:none"
         d="m 14731.6,7115.5 c 0,0 107.8,-164.1 304.8,-159.4 196.9,4.7 323.6,159.4 323.6,159.4 h -628.4" /><path
         id="path148"
         style="fill:#aa413e;fill-opacity:1;fill-rule:nonzero;stroke:none"
         d="m 14825.6,7470.7 h -334.1 c -154.8,0 -281.4,126.7 -281.4,281.4 v 0 c 0,154.8 126.6,281.4 281.4,281.4 h 334.1 c 154.8,0 281.4,-126.6 281.4,-281.4 v 0 c 0,-154.7 -126.6,-281.4 -281.4,-281.4" /><path
         id="path150"
         style="fill:#b64c41;fill-opacity:1;fill-rule:nonzero;stroke:none"
         d="m 14235.9,8056.4 c 0,0 149.5,-227.5 422.5,-221 273.1,6.5 448.6,221 448.6,221 h -871.1" /><path
         id="path152"
         style="fill:#98bdf4;fill-opacity:1;fill-rule:nonzero;stroke:none"
         d="M 4589.55,4511.2 H 8118.21 V 9958.5 H 5658.6 c -590.42,0 -1069.05,-478.6 -1069.05,-1069 V 4511.2" /><path
         id="path154"
         style="fill:#afcdfb;fill-opacity:1;fill-rule:nonzero;stroke:none"
         d="M 11819.3,9956.6 H 9604.59 V 5873.1 h 3475.91 v 2822.3 c 0,696.5 -564.7,1261.2 -1261.2,1261.2" /><path
         id="path156"
         style="fill:#afcdfb;fill-opacity:1;fill-rule:nonzero;stroke:none"
         d="M 10003.2,9960.5 V 4511.2 H 6967.07 v 4188.1 c 0,696.6 493.11,1261.2 1101.54,1261.2 h 1934.59" /><path
         id="path158"
         style="fill:#739af0;fill-opacity:1;fill-rule:nonzero;stroke:none"
         d="M 11923.3,5873.1 H 9604.52 v 3556.5 h 2114.58 c 112.8,0 204.2,-91.4 204.2,-204.2 V 5873.1" /><path
         id="path160"
         style="fill:#739af0;fill-opacity:1;fill-rule:nonzero;stroke:none"
         d="m 9537.43,9429.6 c -112.79,0 -204.21,-91.4 -204.21,-204.2 V 5873.1 H 11652 V 9429.6 H 9537.43" /><path
         id="path162"
         style="fill:#7ca1e3;fill-opacity:1;fill-rule:nonzero;stroke:none"
         d="m 11923.3,5873.1 v 0 3352.3 c 0,112.8 -91.4,204.2 -204.2,204.2 h -187.7 v 1.1 h 200.2 c 105.9,0 191.7,-85.9 191.7,-191.7 V 5873.1" /><path
         id="path164"
         style="fill:#5e87dd;fill-opacity:1;fill-rule:nonzero;stroke:none"
         d="M 11923.3,5873.1 H 11652 v 3556.5 h -120.6 187.7 c 112.8,0 204.2,-91.4 204.2,-204.2 V 5873.1" /><path
         id="path166"
         style="fill:#5e87dd;fill-opacity:1;fill-rule:nonzero;stroke:none"
         d="m 11531.4,5873.1 h 120.598 V 9429.6 H 11531.4 Z" /><g
         transform="scale(1.05389)"
         id="g168"><path
           id="path170"
           style="fill:#98bdf4;fill-opacity:1;fill-rule:nonzero;stroke:none"
           d="M 16300,4280.52 H 7601.16 V 6059.55 H 16300 V 4280.52" /></g><g
         transform="scale(1.20875)"
         id="g172"><path
           id="path174"
           style="fill:#afcdfb;fill-opacity:1;fill-rule:nonzero;stroke:none"
           d="M 16300,3732.12 H 14211.7 V 5283.23 H 16300 V 3732.12" /></g><path
         id="path176"
         style="fill:#77a7ed;fill-opacity:1;fill-rule:nonzero;stroke:none"
         d="M 8010.78,6386.1 6967.07,5696.3 V 4511.2 h 1043.71 v 1874.9" /><path
         id="path178"
         style="fill:#77a7ed;fill-opacity:1;fill-rule:nonzero;stroke:none"
         d="M 4589.55,6221.3 H 4340.19 L 2110.78,4747.9 v -236.7 h 2478.77 v 1710.1" /><g
         transform="scale(1.04604)"
         id="g180"><path
           id="path182"
           style="fill:#4a75cb;fill-opacity:1;fill-rule:nonzero;stroke:none"
           d="M 16300,5947.5 H 7524.06 v 334.59 H 16300 V 5947.5" /></g><g
         transform="scale(1.21904)"
         id="g184"><path
           id="path186"
           style="fill:#81acea;fill-opacity:1;fill-rule:nonzero;stroke:none"
           d="M 13986.7,5103.43 H 16300 v 287.11 h -2313.3 v -287.11" /></g><path
         id="path188"
         style="fill:#b64c41;fill-opacity:1;fill-rule:nonzero;stroke:none"
         d="m 10249.4,9962.6 h -679.98 v 523.4 c 0,156.5 126.85,283.3 283.33,283.3 h 113.34 c 156.51,0 283.31,-126.8 283.31,-283.3 v -523.4" /><path
         id="path190"
         style="fill:#aa413e;fill-opacity:1;fill-rule:nonzero;stroke:none"
         d="m 10058.1,10754 c 13.7,-33.3 21.3,-69.8 21.3,-108 v -160.8 c 0,-200.3 -162.28,-362.5 -362.48,-362.5 h -147.5 v -160.1 h 679.98 v 523.4 c 0,124.3 -80,229.8 -191.3,268" /><path
         id="path192"
         style="fill:#d88b87;fill-opacity:1;fill-rule:nonzero;stroke:none"
         d="m 9811.57,10530 c -48.57,-66 -120.99,-95.2 -161.76,-65.1 -40.77,30 -34.44,107.8 14.13,173.8 48.57,65.9 120.99,95.1 161.76,65.1 40.77,-30 34.44,-107.9 -14.13,-173.8" /><g
         id="g194"><g
           clip-path="url(#clipPath200)"
           id="g196"><path
             id="path202"
             style="fill:#1c468a;fill-opacity:1;fill-rule:nonzero;stroke:none"
             d="m 8945.92,6456.3 c 50.48,5.8 2349.38,0 2349.38,0 0,0 93,13 10.3,407.5 -4.2,19.9 -6.8,41 -8.2,63 -7.3,107.5 11.8,235.6 5.1,338.7 0,0 29.5,330.2 -411,302.8 -440.5,-27.4 -1243.52,-30 -1546.36,1.4 -302.85,31.5 -371.69,-204 -357.91,-351.9 2.19,-23.7 1.36,-59.5 -1.39,-103 -14.68,-227.5 -82.31,-663.3 -39.92,-658.5" /><path
             id="path204"
             style="fill:#1c468a;fill-opacity:1;fill-rule:nonzero;stroke:none"
             d="m 9627.75,7433.7 c 1.46,2.4 152.29,245.9 402.15,260.8 252.6,15.3 504.7,-232.7 507.2,-235.2 l 54.2,54.2 c -11.2,11.2 -278.6,274.8 -566,257.6 -290.61,-17.5 -456.28,-286.3 -463.18,-297.8 l 65.63,-39.6" /></g></g><g
         transform="scale(1.1688)"
         id="g206"><path
           id="path208"
           style="fill:#163560;fill-opacity:1;fill-rule:nonzero;stroke:none"
           d="m 16300,4137.41 c 0,0 -17.4,-280.46 -71.6,-284.48 -7.3,-0.59 -275.3,-0.59 -275.3,-0.59 h -346 c 0,0 6,84.44 106.1,101.89 100,17.46 267.4,87.7 328,219.89 63.7,139.12 258.8,-36.71 258.8,-36.71" /></g><g
         transform="scale(1.17037)"
         id="g210"><path
           id="path212"
           style="fill:#ee9849;fill-opacity:1;fill-rule:nonzero;stroke:none"
           d="m 16297.8,4112.45 c 0,0 -103.9,-34.78 -185,-34.78 -90.5,0 -172.7,24.61 -172.7,24.61 0,0 -19.6,189.17 -127.2,605.87 -56.4,218.39 -137,499.25 -251.6,848.28 -317,964.39 -413.4,1528.57 -422.2,1582.06 -0.4,2.82 -0.6,4.18 -0.6,4.18 l 1,0.51 974.5,427.82 c 0,0 -120.5,-1329.24 33.1,-1839.41 21.6,-71.35 40,-154.4 55.8,-244.46 97.1,-554.18 94.9,-1374.68 94.9,-1374.68" /></g><g
         transform="scale(1.1634)"
         id="g214"><path
           id="path216"
           style="fill:#e58638;fill-opacity:1;fill-rule:nonzero;stroke:none"
           d="m 16300,5520 -392.4,-783.64 c -56.7,219.69 -137.8,502.23 -253.1,853.35 -318.9,970.17 -415.9,1537.73 -424.7,1591.54 0.1,1.55 0.2,3.09 0.4,4.73 l 980.3,430.37 c 0,0 -121.2,-1337.2 33.4,-1850.43 21.6,-71.77 40.2,-155.32 56.1,-245.92" /></g><g
         transform="scale(1.11415)"
         id="g218"><path
           id="path220"
           style="fill:#163560;fill-opacity:1;fill-rule:nonzero;stroke:none"
           d="m 16300,4340.36 c 0,0 -18.2,-294.22 -75.1,-298.43 -7.7,-0.63 -654.9,-11.76 -654.9,-11.76 0,0 9.4,99.72 114.4,118.02 104.9,18.32 280.5,92 344.1,230.67 66.9,145.95 271.5,-38.5 271.5,-38.5" /></g><g
         transform="scale(1.14887)"
         id="g222"><path
           id="path224"
           style="fill:#ee9849;fill-opacity:1;fill-rule:nonzero;stroke:none"
           d="m 15244.5,7680.76 c 0,0 -12.9,-877.47 138.9,-1954.79 151.8,-1077.41 100.4,-1534.73 100.4,-1534.73 0,0 104.4,-33.85 146.4,-37.25 107.2,-8.7 217.3,25.16 217.3,25.16 0,0 217.2,1077.75 154.9,1617.06 -62.2,539.23 297.6,1850.43 297.6,1850.43 l -1055.5,34.12" /></g><g
         transform="scale(1.16999)"
         id="g226"><path
           id="path228"
           style="fill:#163560;fill-opacity:1;fill-rule:nonzero;stroke:none"
           d="m 15747.6,9592.33 c 0,0 503.4,-511.13 528,-709.9 24.4,-198.78 -243,-509.78 -243,-509.78 l -285,1219.68" /></g><g
         transform="scale(1.12409)"
         id="g230"><path
           id="path232"
           style="fill:#ffb27d;fill-opacity:1;fill-rule:nonzero;stroke:none"
           d="m 16300,9948.79 -198,-129.82 -286.1,53.33 c 3.9,23.1 22.8,118.84 40,205.6 1.1,5.1 2.1,10.2 3,15.2 14.8,73.8 27.5,137.2 27.5,137.2 l 267.3,117.9 99.6,44 c -0.2,-1.6 -7.7,-81.9 -8.7,-93.7 -18.7,-208.2 55.4,-349.71 55.4,-349.71" /></g><g
         transform="scale(1.1261)"
         id="g234"><path
           id="path236"
           style="fill:#163560;fill-opacity:1;fill-rule:nonzero;stroke:none"
           d="m 15814.6,9994.54 c 5.6,2.31 390.1,104.06 426.9,91.96 36.7,-12.2 58.5,-83.3 58.5,-83.3 l -553.6,-125.16 c 0,0 -2.5,86.71 68.2,116.5" /></g><g
         transform="scale(1.16268)"
         id="g238"><path
           id="path240"
           style="fill:#1c468a;fill-opacity:1;fill-rule:nonzero;stroke:none"
           d="m 16244.4,7482.53 c -55.5,-253.46 -980.2,-283.56 -1218.5,-53.41 -27.2,26.15 -28.5,148.19 -18.3,312.73 20,321.41 84.2,804.86 86.7,1051.93 1.2,119.29 17.7,241.31 39.5,352.1 46.5,236.13 117.2,421.44 117.2,421.44 0,0 451.8,146 536.2,121.16 407.2,-119.62 512.8,-1952.48 457.2,-2205.95" /></g><g
         transform="scale(1.11782)"
         id="g242"><path
           id="path244"
           style="fill:#163560;fill-opacity:1;fill-rule:nonzero;stroke:none"
           d="m 15609.9,8052.53 c 20.8,334.31 87.6,837.17 90.2,1094.15 1.2,124.08 18.3,251 41,366.23 l 282.7,49.88 c 0,0 276.2,-1128.53 -413.9,-1510.26" /></g><g
         transform="scale(1.09326)"
         id="g246"><path
           id="path248"
           style="fill:#ffb27d;fill-opacity:1;fill-rule:nonzero;stroke:none"
           d="m 16117.1,8709.93 c 0,0 19.7,-47.11 -21.7,-78.66 -41.4,-31.65 -68.2,-82.87 -58.7,-120.29 9.5,-37.41 100.2,-98.51 131.7,-88.63 31.4,9.88 88.4,35.31 88.5,78.85 0.1,20.94 43.1,173.24 -33.6,232.33 -76.7,59.09 -106.2,-23.6 -106.2,-23.6" /></g><g
         transform="scale(1.10773)"
         id="g250"><path
           id="path252"
           style="fill:#1c468a;fill-opacity:1;fill-rule:nonzero;stroke:none"
           d="m 16226.3,10097.3 c 0,0 -279,-39.2 -500.6,-365.75 -221.7,-326.58 -367.4,-569.39 -326.6,-687.09 40.9,-117.73 412.9,-525.96 477.1,-525.96 64.1,0 167.6,46.68 173.5,151.66 0,0 -248.2,393.68 -196.6,452.49 22.1,25.13 326.3,282.32 371.7,165.69 75.2,-192.98 1.5,808.96 1.5,808.96" /></g><g
         transform="scale(1.12056)"
         id="g254"><path
           id="path256"
           style="fill:#fca56b;fill-opacity:1;fill-rule:nonzero;stroke:none"
           d="m 16275.7,10327.3 c -58.9,-99.7 -278.3,-185.9 -369.8,-217.7 1.1,5.2 2.1,10.3 3,15.3 14.9,74 27.6,137.6 27.6,137.6 l 268.1,118.3 c 59.3,0.8 95.4,-12.4 71.1,-53.5" /></g><g
         transform="scale(1.1368)"
         id="g258"><path
           id="path260"
           style="fill:#ffb27d;fill-opacity:1;fill-rule:nonzero;stroke:none"
           d="m 15609.2,10131.9 c 0,0 425.7,-132.74 504.3,133.6 78.6,266.4 186.5,428.7 -82,524.7 -268.4,96.1 -351.5,10.1 -399.3,-72.4 -48,-82.6 -131.7,-544.5 -23,-585.9" /></g><g
         transform="scale(1.14613)"
         id="g262"><path
           id="path264"
           style="fill:#963333;fill-opacity:1;fill-rule:nonzero;stroke:none"
           d="m 15521.5,10656 c 0,0 26.8,-307.5 90.5,-294.1 63.6,13.3 121.2,23.2 111.9,-69.5 -9.3,-92.7 -97.5,-199.7 98.5,-216.1 196,-16.4 477.6,489 423.8,584.7 -155.3,276 -949.2,331.7 -724.7,-5" /></g><g
         transform="scale(1.47164)"
         id="g266"><path
           id="path268"
           style="fill:#233862;fill-opacity:1;fill-rule:nonzero;stroke:none"
           d="m 16240.7,8346.41 c -51,31.19 -132.4,-6.08 -132.4,-6.08 28.1,39.55 130.8,26.62 130.8,26.62 -204.5,43.52 -247.3,-87.26 -250.7,-99.51 -148.4,133.91 -386,-151.54 -386,-151.54 l 340.9,-451.9 c 0,0 31.1,71.89 72.2,49.45 64,-34.99 187.9,106.61 148.3,292.9 -4.3,20.14 -9.4,38.5 -15.1,55.41 13.3,-5.83 28.4,-10.53 42.5,-10.53 37.3,0 93.6,95.1 101.2,127.05 7.6,31.95 -0.8,136.94 -51.7,168.13" /></g><g
         transform="scale(1.50803)"
         id="g270"><path
           id="path272"
           style="fill:#466aa5;fill-opacity:1;fill-rule:nonzero;stroke:none"
           d="m 16276.3,5925.61 c -7.4,-17.84 -39.4,-33.75 -85.4,-45.16 -103.3,-25.73 -277.4,-29.04 -404.4,17.97 -136.1,50.4 -234.9,770.02 -276.9,1138.84 -14.6,128.65 -22.3,214.65 -22.3,214.65 0,0 78.2,122.43 380.9,81.62 302.6,-40.81 333.2,-142.83 360.4,-326.47 27.2,-183.65 71.4,-1023.63 47.7,-1081.45" /></g><g
         transform="scale(1.49793)"
         id="g274"><path
           id="path276"
           style="fill:#2b478b;fill-opacity:1;fill-rule:nonzero;stroke:none"
           d="m 16300,5920.09 c -103.9,-25.9 -279.2,-29.24 -407,18.09 -137.1,50.74 -236.6,775.21 -278.8,1146.52 36.1,127.77 64.7,211.84 64.7,211.84 0,0 382.6,46.21 457.1,-69.33 66.7,-103.34 147.6,-1098.16 164,-1307.12" /></g><g
         transform="scale(1.42691)"
         id="g278"><path
           id="path280"
           style="fill:#d9935c;fill-opacity:1;fill-rule:nonzero;stroke:none"
           d="m 16101.8,6550.04 c -237.2,-7.22 -578.7,265.96 -578.7,265.96 l 46.7,71.83 c 86.3,-57.47 391.8,-111.36 391.8,-111.36 -21.4,69.1 -37.8,133.09 -50,192.03 -82.9,400.85 27.5,574.02 59.6,614.29 5.2,6.53 8.4,9.54 8.4,9.54 0,0 1,-2.8 2.7,-8.13 3.9,-11.49 11.8,-34.67 22.1,-66.59 77.2,-237.74 295.6,-961.54 97.4,-967.57" /></g><g
         transform="scale(1.47778)"
         id="g282"><path
           id="path284"
           style="fill:#d9935c;fill-opacity:1;fill-rule:nonzero;stroke:none"
           d="m 16241.3,5955.63 c -106.2,238.19 -157,305.59 -158.8,380.5 -1.4,59.28 27.8,123.22 84.6,280.08 13.4,36.95 22.6,74.98 28.3,113.35 44.9,302.35 -129.9,629.18 -238.6,651.44 -30.3,7.99 -81.5,117.2 -80.9,293.14 l -13.6,-2.67 -228.8,-45.31 c 0,0 5.2,-72.01 5.4,-139.83 0.2,-56.54 -3.3,-110.11 -16.1,-116.87 -16.5,-1.48 -26.2,-2.47 -26.2,-2.47 0,0 -190.7,-264.95 -206.8,-511.36 -16.1,-246.39 152.8,-353.44 -1.2,-845.87 -157.4,-502.91 911.4,-185.82 852.7,-54.13" /></g><g
         transform="scale(1.4381)"
         id="g286"><path
           id="path288"
           style="fill:#cb7d45;fill-opacity:1;fill-rule:nonzero;stroke:none"
           d="m 16064.9,7836.59 c 0,0 5.4,-74 5.5,-143.7 131.6,3.71 201.1,123.73 229.6,190.26 l -235.1,-46.56" /></g><g
         transform="scale(1.44883)"
         id="g290"><path
           id="path292"
           style="fill:#233862;fill-opacity:1;fill-rule:nonzero;stroke:none"
           d="m 16203.4,7850.16 c 0,0 68.4,108.14 84.9,200.61 11.7,66.01 -21.9,310.71 -267.8,275.47 0,0 -71.5,-7.03 -138.6,-52.38 -53.4,-36.06 -130.4,-113.91 -44.3,-327.43 l 22.4,-72.13 343.4,-24.14" /></g><g
         transform="scale(1.44454)"
         id="g294"><path
           id="path296"
           style="fill:#d9935c;fill-opacity:1;fill-rule:nonzero;stroke:none"
           d="m 15949.5,7735.93 c 0,0 309.9,-5.12 310.1,187.93 0.2,193.04 40.4,322.39 -157.4,333.81 -197.9,11.43 -236.5,-62.19 -252.2,-126.61 -15.8,-64.41 18.9,-388.82 99.5,-395.13" /></g><g
         transform="scale(1.4501)"
         id="g298"><path
           id="path300"
           style="fill:#233862;fill-opacity:1;fill-rule:nonzero;stroke:none"
           d="m 15899.8,8230.7 c 0,0 84.4,-225.6 214.2,-258.96 129.7,-33.36 186,1.39 186,1.39 0,0 -48.8,118.1 -69.4,256.06 0,0 -267.1,108.89 -330.8,1.51" /></g><g
         transform="scale(1.41636)"
         id="g302"><path
           id="path304"
           style="fill:#233862;fill-opacity:1;fill-rule:nonzero;stroke:none"
           d="m 16300,8408.03 c 0,0 -64.7,-51.57 -80.4,-101.71 -15.8,-50.13 -22.9,-153.34 -52.9,-149.82 0,0 -65.2,156.98 8.1,245.8 77.6,94.17 125.2,5.73 125.2,5.73" /></g><g
         transform="scale(1.45806)"
         id="g306"><path
           id="path308"
           style="fill:#2b478b;fill-opacity:1;fill-rule:nonzero;stroke:none"
           d="m 16189.1,3719.19 c -77.2,-307.26 -193.5,-542.85 -193.5,-542.85 l -101.3,7 c 0,0 49.7,236.2 46.9,555.39 -2.1,223.11 -29.7,486.81 -117.8,738.58 -303,865.19 -254,1494.87 -254,1494.87 l 569.7,-66.6 26.5,-3.15 c 2.4,-261.65 9.2,-616.85 15.1,-894.62 5.2,-249.85 9.8,-436.94 9.8,-436.94 109.5,-235.93 69.7,-568.91 -1.4,-851.68" /></g><g
         transform="scale(1.50818)"
         id="g310"><path
           id="path312"
           style="fill:#d9935c;fill-opacity:1;fill-rule:nonzero;stroke:none"
           d="m 16300,5587.6 -89.1,-26.72 c 0,0 -293.9,487.74 -320.7,614.65 -8.7,41.31 -30.1,123.99 -55,216.62 -51.7,191.82 -118.2,426.56 -118.2,426.56 l -22,95.03 -74.8,324.05 c 0,0 143.3,-14.64 227.1,-49.69 27.8,-11.56 48.9,-25.39 56.3,-41.61 61.6,-135.37 123,-477.02 166.2,-720.72 24.1,-135.86 42.5,-241.29 52,-263.63 26.8,-62.33 108.4,-405.26 178.2,-574.54" /></g><g
         transform="scale(1.47931)"
         id="g314"><path
           id="path316"
           style="fill:#466aa5;fill-opacity:1;fill-rule:nonzero;stroke:none"
           d="m 16278.7,3714.09 c -32.3,-344.55 -174.5,-567.36 -174.5,-567.36 l -47.6,-34.68 c 0,0 -45.1,242.75 -77.1,531.6 -30.4,274.52 -72.1,564.99 -119.2,653.68 -187.3,351.65 -243.7,1679.09 -243.7,1679.09 l 569.4,28.26 c 57.2,-96.26 82.2,-254.17 88,-433.65 15,-453.04 -91.4,-1043.79 -107.4,-1129.24 v -0.2 c -1.3,-6.63 0.6,-13.11 3.7,-19.13 113.3,-224.23 129.7,-480.77 108.4,-708.37" /></g><g
         transform="scale(1.43523)"
         id="g318"><path
           id="path320"
           style="fill:#233862;fill-opacity:1;fill-rule:nonzero;stroke:none"
           d="m 16073.8,8289.77 c 0,0 60.9,-238.69 226.2,-315.14 0,0 -165.3,146.66 -179.4,304.23 -14,157.57 -46.8,10.91 -46.8,10.91" /></g><g
         transform="scale(1.51934)"
         id="g322"><path
           id="path324"
           style="fill:#d9935c;fill-opacity:1;fill-rule:nonzero;stroke:none"
           d="m 16174,5561.31 c 0,0 26.9,-63.39 54.9,-81.09 28,-17.64 54.6,-60.09 60.4,-94.32 10.7,-62.72 -37.4,-101.69 -72.8,-101.69 -35.3,0 -69.1,48.25 -89.9,163.43 -1.1,6.32 -34.7,72.4 -34.7,72.4 l 82.1,41.27" /></g><g
         transform="scale(1.48947)"
         id="g326"><path
           id="path328"
           style="fill:#f1a34f;fill-opacity:1;fill-rule:nonzero;stroke:none"
           d="m 16184.7,5738.2 c 1,-19.06 0,-34.3 -3.5,-45.18 -12.1,-37.86 -53.3,-55.12 -153.2,-44.78 -61.1,6.31 -88.3,108.63 -100.4,195.91 -36.7,-124.88 -88,-194.97 -154.4,-209.67 -96.8,-21.55 -585.3,-80.9 -617.3,151.26 -35.2,255.39 70.1,707.63 75.9,951.48 -14.3,86.46 -19.2,161.5 -17.7,225.95 4.1,173.7 55.1,271.05 94.3,310.24 11.1,8.53 22.1,13.85 66.7,21.5 22.8,3.87 54.4,8.37 99.1,14.25 0,0 18.3,2.06 17.8,1.38 -8.3,-14.77 -118.8,-182.3 -110.2,-225.37 9,-45.09 401.4,-4.5 428.4,20.29 27.1,24.8 69.9,214.76 69.9,214.76 0,0 138.9,-15.18 206.9,-64.62 l -0.7,-0.88 c 8.2,-5.88 14.3,-12.13 17.9,-18.79 72.5,-138.05 144.8,-486.47 195.8,-734.97 -123.5,-68.08 -231.3,-47.8 -264.7,-38.81 43.7,-286.2 142.9,-593.56 149.4,-723.95" /></g><g
         transform="scale(1.36299)"
         id="g330"><path
           id="path332"
           style="fill:#d9935c;fill-opacity:1;fill-rule:nonzero;stroke:none"
           d="m 16300,7210.85 c -3.7,9.46 -50.8,148.69 -86.5,167.49 -35.8,18.82 -101.6,39.52 -116.7,31.99 -15,-7.53 -43.2,-112.9 0,-167.42 43.3,-54.58 154.3,-107.26 154.3,-107.26 l 48.9,75.2" /></g><g
         transform="scale(1.41401)"
         id="g334"><path
           id="path336"
           style="fill:#2b478b;fill-opacity:1;fill-rule:nonzero;stroke:none"
           d="m 16300,7699.23 c 0,0 -0.2,-0.39 -0.6,-1.09 -14.1,-22.2 -233.7,-373.16 -254.7,-601.38 -15.1,91.07 -20.3,170.11 -18.7,238.01 28.2,86.23 96.8,277.79 169.6,349.44 9.2,9.03 104.4,15.02 104.4,15.02" /></g><g
         transform="scale(1.36883)"
         id="g338"><path
           id="path340"
           style="fill:#466aa5;fill-opacity:1;fill-rule:nonzero;stroke:none"
           d="m 16292.3,7180.2 -149.9,-49.9 c -4.9,-1.68 -10.4,1.02 -12,5.99 l -95.2,285.9 c -1.6,4.98 1,10.35 6,12.01 l 149.9,49.93 c 5,1.66 10.4,-1.03 12,-6.02 l 95.2,-285.93 c 1.7,-4.97 -1,-10.3 -6,-11.98" /></g><g
         transform="scale(1.36606)"
         id="g342"><path
           id="path344"
           style="fill:#2b478b;fill-opacity:1;fill-rule:nonzero;stroke:none"
           d="m 16286.4,7181.74 -136.3,-45.39 c -8.9,-2.92 -18.4,1.91 -21.3,10.69 l -90.8,272.55 c -2.9,8.85 1.8,18.4 10.7,21.36 l 136.3,45.37 c 8.8,2.94 18.4,-1.83 21.3,-10.68 l 90.8,-272.52 c 2.9,-8.86 -1.9,-18.38 -10.7,-21.38" /></g><g
         transform="scale(1.47738)"
         id="g346"><path
           id="path348"
           style="fill:#d9935c;fill-opacity:1;fill-rule:nonzero;stroke:none"
           d="m 16300,3718.95 c -32.4,-345 -174.7,-568.1 -174.7,-568.1 l -48.6,-44.27 c 0,0 -44.3,252.61 -76.3,541.84 33.7,-2.44 182.2,-7.85 299.6,70.53" /></g><g
         transform="scale(1.44814)"
         id="g350"><path
           id="path352"
           style="fill:#d9935c;fill-opacity:1;fill-rule:nonzero;stroke:none"
           d="m 16300,3744.66 c -77.8,-309.36 -194.8,-546.56 -194.8,-546.56 l -102,7.04 c 0,0 50,237.82 47.2,559.2 34.5,-17.47 105.9,-35.14 249.6,-19.68" /></g><g
         transform="scale(1.44102)"
         id="g354"><path
           id="path356"
           style="fill:#233862;fill-opacity:1;fill-rule:nonzero;stroke:none"
           d="m 16243.7,3127.98 h -65.4 c -21.9,3.47 -38.1,9.79 -60.5,12.7 -34.2,4.51 -49.9,-9.5 -53.1,-12.7 l -0.5,-0.62 h -277.9 c -6.9,9.92 -0.2,33.03 6.4,50.1 4.4,11.52 14,20.33 26,23.73 29.4,8.54 87.5,16.17 140.7,64.33 29.9,27 144.5,99.38 144.5,99.38 l 0.6,0.14 c 2.5,0 14.5,-3.68 66.6,-47.68 27,-22.76 72.9,32.06 72.9,32.06 0,0 8.6,-7.15 15.1,-20.47 5.1,-10.48 8.9,-24.84 5.9,-42.61 -4.1,-25.05 9.3,-71.54 19.9,-103.05 6.5,-19.01 12,-32.55 12,-32.55 0,0 3.1,-15.75 -53.2,-22.76" /></g><g
         transform="scale(1.4374)"
         id="g358"><path
           id="path360"
           style="fill:#466aa5;fill-opacity:1;fill-rule:nonzero;stroke:none"
           d="m 16300,3337.33 c -15.7,-10.99 -48.7,-32.69 -70.6,-35.55 -29.6,-3.89 -85,71.59 -85,71.59 l 0.7,0.14 c 2.5,0 14.5,-3.69 66.8,-47.79 26.9,-22.82 73,32.14 73,32.14 0,0 8.6,-7.17 15.1,-20.53" /></g><g
         transform="scale(1.44102)"
         id="g362"><path
           id="path364"
           style="fill:#466aa5;fill-opacity:1;fill-rule:nonzero;stroke:none"
           d="m 16243.7,3127.98 h -65.4 c -21.9,3.47 -38.1,9.79 -60.5,12.7 -34.2,4.51 -49.9,-9.5 -53.1,-12.7 l -0.5,-0.62 h -277.9 c -6.9,9.92 -0.2,33.03 6.4,50.1 8.3,7.5 10.8,-32.61 15.4,-39 4.7,-6.38 226.7,-2.29 239.5,7.01 12.8,9.3 51.2,25.61 104.9,12.84 46.7,-11.17 115.4,17.42 132.4,24.98 6.5,-19.01 12,-32.55 12,-32.55 0,0 3.1,-15.75 -53.2,-22.76" /></g><g
         transform="scale(1.47188)"
         id="g366"><path
           id="path368"
           style="fill:#233862;fill-opacity:1;fill-rule:nonzero;stroke:none"
           d="m 16244.9,3062.42 h -64 c -21.5,3.39 -37.3,9.58 -59.3,12.43 -33.4,4.42 -48.8,-9.31 -51.9,-12.43 l -0.6,-0.62 h -271.9 c -6.9,9.72 -0.3,32.34 6.1,49.06 4.3,11.28 13.8,19.9 25.5,23.23 28.8,8.36 85.7,15.83 137.7,62.98 29.3,26.43 141.6,97.3 141.6,97.3 l 0.5,0.13 c 2.5,0 14.2,-3.6 65.2,-46.67 26.4,-22.29 71.4,31.38 71.4,31.38 0,0 8.4,-6.99 14.7,-20.04 5.1,-10.26 8.8,-24.32 5.9,-41.72 -4.1,-24.52 9,-70.04 19.5,-100.89 6.3,-18.61 11.6,-31.86 11.6,-31.86 0,0 3.1,-15.42 -52,-22.28" /></g><g
         transform="scale(1.46826)"
         id="g370"><path
           id="path372"
           style="fill:#466aa5;fill-opacity:1;fill-rule:nonzero;stroke:none"
           d="m 16300,3267.21 c -15.3,-10.76 -47.7,-32.01 -69.1,-34.81 -29,-3.81 -83.1,70.09 -83.1,70.09 l 0.5,0.13 c 2.5,0 14.3,-3.61 65.4,-46.79 26.4,-22.34 71.5,31.47 71.5,31.47 0,0 8.5,-7.02 14.8,-20.09" /></g><g
         transform="scale(1.47188)"
         id="g374"><path
           id="path376"
           style="fill:#466aa5;fill-opacity:1;fill-rule:nonzero;stroke:none"
           d="m 16244.9,3062.42 h -64 c -21.5,3.39 -37.3,9.58 -59.3,12.43 -33.4,4.42 -48.8,-9.31 -51.9,-12.43 l -0.6,-0.62 h -271.9 c -6.9,9.72 -0.3,32.34 6.1,49.06 8.3,7.34 10.6,-31.93 15.1,-38.18 4.7,-6.26 221.9,-2.25 234.5,6.86 12.6,9.1 50.2,25.07 102.7,12.56 45.7,-10.93 113,17.06 129.7,24.46 6.3,-18.61 11.6,-31.86 11.6,-31.86 0,0 3.1,-15.42 -52,-22.28" /></g><g
         transform="scale(1.47894)"
         id="g378"><path
           id="path380"
           style="fill:#e78b37;fill-opacity:1;fill-rule:nonzero;stroke:none"
           d="m 16300,5779.08 c -67.5,22.58 -154.3,82.62 -258.4,217.18 -275.7,356.27 -23.4,775.01 10.4,782.8 0.5,0.11 0.9,0.17 1.4,0.17 34.2,0 96.1,-271.05 96.1,-271.05 44,-288.24 143.9,-597.79 150.5,-729.1" /></g><g
         transform="scale(1.47461)"
         id="g382"><path
           id="path384"
           style="fill:#2b478b;fill-opacity:1;fill-rule:nonzero;stroke:none"
           d="m 16253.7,7395.7 c -39.6,15.7 -84.7,7.22 -115.5,-22.12 -82.2,-78.3 -229.3,-257.21 -244.3,-545.04 -20.9,-401.68 340.9,-483.39 340.9,-483.39 l -23.5,126.88 c 0,0 -293,106.13 -216.5,426.06 76.5,319.97 305.2,479.21 305.2,479.21 l -46.3,18.4" /></g><g
         transform="scale(1.3563)"
         id="g386"><path
           id="path388"
           style="fill:#d9935c;fill-opacity:1;fill-rule:nonzero;stroke:none"
           d="m 16167.7,7432.69 c 0,0 28.3,58.61 80.3,34.97 52,-23.63 29.4,-112.51 -0.9,-143.69 -30.3,-31.19 -38.7,-45.35 -38.7,-45.35 l -40.7,154.07" /></g><g
         transform="scale(1.78374)"
         id="g390"><path
           id="path392"
           style="fill:#2e3552;fill-opacity:1;fill-rule:nonzero;stroke:none"
           d="M 16284.7,2494.87 H 533.869 c -8.398,0 -15.272,8.24 -15.272,18.33 0,10.03 6.874,18.28 15.272,18.28 H 16284.7 c 8.4,0 15.3,-8.25 15.3,-18.28 0,-10.09 -6.9,-18.33 -15.3,-18.33" /></g></g></g></svg>