<?xml version="1.0" encoding="utf-8"?>
<!-- Generator: Adobe Illustrator 23.0.5, SVG Export Plug-In . SVG Version: 6.00 Build 0)  -->
<svg version="1.1" id="Layer_1" xmlns="http://www.w3.org/2000/svg" xmlns:xlink="http://www.w3.org/1999/xlink" x="0px" y="0px"
	 viewBox="0 0 48 48" style="enable-background:new 0 0 48 48;" xml:space="preserve">
<style type="text/css">
	.st0{fill:#F9AA33;}
</style>
<path class="st0" d="M13.5,28h12.6c0.4,0,0.8-0.1,1.1-0.4c0.3-0.3,0.4-0.6,0.4-1.1c0-0.4-0.1-0.8-0.4-1.1S26.6,25,26.1,25H13.5
	c-0.4,0-0.8,0.1-1.1,0.4c-0.3,0.3-0.4,0.6-0.4,1.1c0,0.4,0.1,0.8,0.4,1.1C12.7,27.9,13.1,28,13.5,28z M13.5,21.5h21
	c0.4,0,0.8-0.1,1.1-0.4c0.3-0.3,0.4-0.6,0.4-1.1c0-0.4-0.1-0.8-0.4-1.1c-0.3-0.3-0.6-0.4-1.1-0.4h-21c-0.4,0-0.8,0.1-1.1,0.4
	c-0.3,0.3-0.4,0.6-0.4,1.1c0,0.4,0.1,0.8,0.4,1.1C12.7,21.4,13.1,21.5,13.5,21.5z M13.5,15h21c0.4,0,0.8-0.1,1.1-0.4
	c0.3-0.3,0.4-0.6,0.4-1.1c0-0.4-0.1-0.8-0.4-1.1c-0.3-0.3-0.6-0.4-1.1-0.4h-21c-0.4,0-0.8,0.1-1.1,0.4c-0.3,0.3-0.4,0.6-0.4,1.1
	c0,0.4,0.1,0.8,0.4,1.1C12.7,14.9,13.1,15,13.5,15z M12,36l-5.4,5.5c-0.5,0.5-1,0.6-1.6,0.3S4,41.1,4,40.4V7c0-0.8,0.3-1.5,0.9-2.1
	S6.2,4,7,4h34c0.8,0,1.5,0.3,2.1,0.9C43.7,5.5,44,6.2,44,7v26c0,0.8-0.3,1.5-0.9,2.1C42.5,35.7,41.8,36,41,36H12z M7,33h34V7H7V33z
	 M7,33V7V33z"/>
</svg>
