<svg id="Layer_1" data-name="Layer 1" xmlns="http://www.w3.org/2000/svg" viewBox="0 0 152.41 108"><defs><style>.cls-1{fill:none;}.cls-2{fill:#ff5f00;}.cls-3{fill:#eb001b;}.cls-4{fill:#f79e1b;}</style></defs><title>mc_symbol_rgb</title><rect class="cls-1" width="152.41" height="108"/><rect class="cls-2" x="60.41" y="25.7" width="31.5" height="56.61"/><path class="cls-3" d="M382.21,306A35.94,35.94,0,0,1,396,277.7a36,36,0,1,0,0,56.6A35.94,35.94,0,0,1,382.21,306Z" transform="translate(-319.8 -252)"/><path class="cls-4" d="M454.2,306A36,36,0,0,1,396,334.3a36,36,0,0,0,0-56.6A36,36,0,0,1,454.2,306Z" transform="translate(-319.8 -252)"/><path class="cls-4" d="M450.77,328.31v-1.16h.47v-.24h-1.19v.24h.46v1.16Zm2.31,0v-1.4h-.37l-.41,1-.42-1h-.37v1.4h.26v-1.06l.39.91h.27l.39-.91v1.06Z" transform="translate(-319.8 -252)"/></svg>