<?xml version="1.0" encoding="UTF-8" standalone="no"?>
<!-- Created with Inkscape (http://www.inkscape.org/) -->

<svg
   version="1.1"
   id="svg2"
   width="600"
   height="600"
   viewBox="0 0 600 600"
   sodipodi:docname="23580194_1905.i305.008.p.m005.c20.tourism travel booking ticket set-07.eps"
   xmlns:inkscape="http://www.inkscape.org/namespaces/inkscape"
   xmlns:sodipodi="http://sodipodi.sourceforge.net/DTD/sodipodi-0.dtd"
   xmlns="http://www.w3.org/2000/svg"
   xmlns:svg="http://www.w3.org/2000/svg">
  <defs
     id="defs6" />
  <sodipodi:namedview
     id="namedview4"
     pagecolor="#ffffff"
     bordercolor="#000000"
     borderopacity="0.25"
     inkscape:showpageshadow="2"
     inkscape:pageopacity="0.0"
     inkscape:pagecheckerboard="0"
     inkscape:deskcolor="#d1d1d1" />
  <g
     id="g8"
     inkscape:groupmode="layer"
     inkscape:label="ink_ext_XXXXXX"
     transform="matrix(1.3333333,0,0,-1.3333333,0,600)">
    <g
       id="g10"
       transform="scale(0.1)">
      <path
         d="M 2918.03,3104.27 H 1179.49 c -29.54,0 -53.44,-23.96 -53.44,-53.47 V 607.301 c 0,-29.512 23.9,-53.422 53.44,-53.422 h 1738.54 c 29.51,0 53.42,23.91 53.42,53.422 V 3050.8 c 0,29.51 -23.91,53.47 -53.42,53.47"
         style="fill:#f54668;fill-opacity:1;fill-rule:nonzero;stroke:none"
         id="path12" />
      <path
         d="m 3220.28,1588.46 c -4.96,13.62 -9.91,26.76 -15.08,39.36 -26.92,65.56 -60.04,115.53 -128.1,121.11 -122.13,9.88 -221.26,-80.48 -246.84,-401.49 -25.58,-321.1 -4.42,-577.12 20.73,-671.241 25.09,-94.211 111.57,-172.769 226.11,-162.758 40.87,3.579 80.18,26.68 113.99,72.129 60.9,81.961 103.61,236.77 103.61,482.21 0,381.51 -43.89,436.57 -74.42,520.68"
         style="fill:#f3b638;fill-opacity:1;fill-rule:nonzero;stroke:none"
         id="path14" />
      <path
         d="m 3035.15,1599.04 c -68.12,9.8 -91.65,-125.58 -103.12,-324.76 -11.42,-199.18 -11.42,-428.249 22.94,-533.221 34.35,-104.977 120.13,-116.418 166.01,-26.739 45.88,89.739 93.59,858.85 -85.83,884.72"
         style="fill:#6aabff;fill-opacity:1;fill-rule:nonzero;stroke:none"
         id="path16" />
      <path
         d="m 3634.53,1264.13 c -84,32.45 -148.95,-11.47 -200.48,-43.69 -51.53,-32.31 -107.75,0 -107.75,0 0.49,-12.07 0.81,-24.32 0.92,-36.84 0.43,-71.67 -1.56,-140.19 -6.52,-203.78 79.75,55.65 146.63,13.399 226,-21.14 87.83,-38.2 150.77,17.211 169.89,81.53 19.12,64.29 1.89,191.4 -82.06,223.92"
         style="fill:#458afd;fill-opacity:1;fill-rule:nonzero;stroke:none"
         id="path18" />
      <path
         d="m 3327.22,1183.6 c -0.11,12.52 -0.43,24.77 -0.92,36.84 -11.52,255.88 -120.02,404.74 -121.15,407.38 5.22,-12.68 10.17,-25.82 15.13,-39.36 29.02,-79.91 70.11,-133.62 74.09,-466.03 0.27,-17.39 0.33,-35.62 0.33,-54.65 0,-39.69 -1.13,-77.01 -3.24,-112.089 -10.98,-181.492 -49.27,-301.441 -100.31,-370.07 v -0.18 c 76.03,67.168 115.17,210.891 129.55,394.379 4.96,63.59 6.95,132.11 6.52,203.78"
         style="fill:#0964d9;fill-opacity:1;fill-rule:nonzero;stroke:none"
         id="path20" />
      <path
         d="m 3136.33,926.969 c -1.4,-3.637 -2.8,-4.93 -3.56,-4.93 h -0.05 c -10.66,0.543 -35,63.051 -51.8,121.371 4.9,6.49 9.32,14.41 12.98,23.21 13.46,-24.04 56.1,-104.71 42.43,-139.651 z M 3049.96,699 l -1.03,0.539 c -18.57,17.012 -20.67,203.461 -17.55,327.931 5.17,-1.26 10.5,-1.94 16.1,-1.94 3.18,0 6.46,0.19 9.75,0.6 2.91,0.4 5.81,1.48 8.66,3.12 5.71,-158.551 1.3,-328.148 -15.93,-330.25 z m -107.7,230.199 c -0.7,0.211 -1.45,0.699 -1.94,2.102 -5.54,15.988 28.76,79.399 55.09,121.449 1.78,-2.72 3.72,-5.41 5.92,-7.8 2.05,-2.24 4.25,-4.2 6.52,-6.01 -18.74,-49.588 -50.67,-114.94 -65.59,-109.741 z m -2.48,192.211 c 0.17,4.01 1.94,5.57 3.29,6.38 8.13,5.01 29.99,-1.16 45.18,-7.24 -1.19,-7.86 -2.05,-15.91 -2.75,-24.12 -0.27,-3.1 -0.27,-6.22 -0.21,-9.27 -16.43,4.66 -46.31,16.86 -45.51,34.25 z m 101.56,52.37 c 0.92,0 1.78,0 2.69,0 43.46,-1.83 51.43,-34.41 52.34,-53.72 1.78,-39.95 -21.8,-83.92 -40.17,-86.34 -9.48,-1.29 -18.63,-0.41 -26.92,2.23 l -0.16,0.06 c -8.56,2.8 -16.16,7.59 -22.19,14.11 -7.91,8.66 -12.6,19.7 -13.78,32.44 l -0.06,0.27 c -0.32,4.12 -0.37,8.45 0.06,13 0.64,7.84 1.45,15.16 2.47,22 1.41,0 2.75,0.81 3.4,2.18 0.81,1.88 0,4.12 -1.94,5.01 l -0.22,0.13 c 5.76,31.15 17.34,48.63 44.48,48.63 z m -95.15,60.73 c 0.16,2.32 0.92,3.88 2.26,5.01 1.35,1.03 2.75,1.38 4.63,0.97 16.27,-3.47 43.73,-50.72 54.61,-71.72 -4.69,-4.68 -8.3,-10.5 -11.15,-17.07 -16.15,18.55 -51.91,64.08 -50.35,82.81 z m 53.31,185.92 c 2.05,38.28 15.62,75.87 30.86,85.53 4.14,2.67 8.23,3.13 12.38,1.51 14.11,-6.52 16.26,-170.53 10.28,-326.94 -2.79,0.44 -5.65,0.7 -8.66,0.84 -1.03,0.05 -2.05,0.05 -3.02,0.05 -6.78,0 -12.6,-1.02 -17.77,-2.83 -1.24,9.27 -26.54,196.52 -24.07,241.84 z m 73.51,-245.76 c 15.83,38.31 44.85,89.52 59.93,83.35 1.45,-0.59 2.26,-1.61 2.74,-3.26 4.63,-16.64 -29.78,-69.06 -46.74,-92.56 -4.47,5.06 -9.74,9.21 -16.05,12.33 z m 74.14,-68.5 c 0.27,-2.24 -0.32,-4.04 -1.94,-5.68 -7.37,-7.73 -30.96,-8.53 -43.56,-8.13 1.83,9.34 2.75,18.9 2.37,28.05 l -0.27,2.56 c 14.06,0.08 41.79,-2.83 43.4,-16.8 z m -39.41,-21.51 c 13.24,0 34.3,1.48 42.97,10.47 3.12,3.34 4.52,7.46 4.03,11.93 -2.58,22.16 -41.03,23.59 -51.85,23.59 -1.51,9.66 -4.58,18.14 -9.1,25.25 10.55,14.43 55.62,78.03 49.27,100.91 -1.08,3.93 -3.61,6.76 -7.21,8.26 -27.47,11.18 -63.06,-70.91 -69.9,-87.5 v -0.13 c -1.72,0.59 -3.5,1.15 -5.33,1.56 3.12,80.1 10.44,325.29 -15.03,335.5 -6.46,2.64 -13.13,1.91 -19.33,-2.1 -19.81,-12.58 -32.52,-56.62 -34.4,-91.57 -2.54,-46.93 23.1,-235.67 24.23,-243.74 l 0.59,-1.56 c -0.97,-0.54 -2.05,-1.08 -3.02,-1.75 -8.56,16.31 -37.85,69.68 -58.96,74.15 -4.15,0.88 -7.92,0 -11.09,-2.51 -2.96,-2.42 -4.69,-5.9 -5.01,-10.23 -2.21,-26.33 48.25,-84.17 54.06,-90.68 l 0.86,-0.67 c -1.56,-4.96 -2.9,-10.15 -3.93,-15.65 -12.97,5.15 -38.34,13.55 -50.51,6.09 -2.96,-1.83 -6.62,-5.47 -6.94,-12.52 -1.19,-26.41 42.75,-39.77 53.79,-42.73 0.92,-6.57 2.64,-12.81 5.28,-18.55 -10.61,-16.8 -66.61,-107.242 -58.1,-131.679 1.13,-3.309 3.44,-5.692 6.57,-6.84 1.23,-0.41 2.47,-0.59 3.71,-0.59 25.74,0 60.58,85.939 70.92,113.019 3.01,-1.75 6.19,-3.31 9.48,-4.6 -1.08,-42.458 -6.84,-311.411 20.03,-335.849 2.15,-2.05 4.36,-2.511 6.08,-2.511 l 0.92,0.058 c 32.58,3.852 25.58,261.703 22.56,343.442 l 1.62,1.51 c 10.39,-35.52 37.47,-121.049 57.4,-121.991 h 0.43 c 4.47,0 8.07,3.25 10.61,9.742 16.58,42.348 -38.4,138.709 -46.1,151.799 0.92,2.91 1.83,5.81 2.59,8.8 1.99,-0.08 4.63,-0.13 7.81,-0.13"
         style="fill:#ffffff;fill-opacity:1;fill-rule:nonzero;stroke:none"
         id="path22" />
      <path
         d="m 3120.98,1551.68 -1.78,0.48 c -15.45,8.14 -24.17,23.43 -22.77,39.83 1.51,17.95 14.64,33.06 34.25,39.49 10.82,3.5 20.03,2.69 27.46,-2.58 16.04,-11.31 16.96,-39.15 16.96,-40.31 0.05,-2.1 -1.62,-3.85 -3.72,-3.93 -1.83,0 -3.87,1.64 -3.93,3.74 0,0.27 -0.75,25.2 -13.73,34.28 -5.38,3.85 -12.17,4.33 -20.68,1.53 -16.63,-5.46 -27.73,-18.06 -29.02,-32.9 -1.13,-13.49 5.87,-25.61 18.74,-32.44 1.88,-0.94 2.58,-3.26 1.61,-5.14 -0.7,-1.3 -2.04,-2.05 -3.39,-2.05"
         style="fill:#ffffff;fill-opacity:1;fill-rule:nonzero;stroke:none"
         id="path24" />
      <path
         d="m 3124.05,1517.89 c -1.56,0 -3.01,0.94 -3.61,2.5 -0.7,1.97 0.27,4.2 2.27,4.88 l 72.74,26.89 c 1.94,0.76 4.15,-0.26 4.85,-2.23 0.75,-1.97 -0.27,-4.2 -2.21,-4.96 l -72.75,-26.81 -1.29,-0.27"
         style="fill:#ffffff;fill-opacity:1;fill-rule:nonzero;stroke:none"
         id="path26" />
      <path
         d="m 3171.28,1490.4 c -1.67,0 -3.24,1.16 -3.67,2.85 l -10.93,40.9 c -0.53,2.02 0.7,4.12 2.7,4.66 2.09,0.62 4.14,-0.67 4.68,-2.69 l 10.93,-40.93 c 0.54,-2.02 -0.7,-4.12 -2.74,-4.65 l -0.97,-0.14"
         style="fill:#ffffff;fill-opacity:1;fill-rule:nonzero;stroke:none"
         id="path28" />
      <path
         d="m 3142.74,1475.97 c -1.67,0 -3.29,1.16 -3.67,2.91 -0.53,2.04 0.7,4.14 2.81,4.6 l 74.63,18.15 c 2.15,0.43 4.14,-0.81 4.63,-2.83 0.48,-2.04 -0.81,-4.14 -2.8,-4.6 l -74.69,-18.1 -0.91,-0.13"
         style="fill:#ffffff;fill-opacity:1;fill-rule:nonzero;stroke:none"
         id="path30" />
      <path
         d="m 3163.15,1397.75 c -1.57,0 -3.07,0.95 -3.61,2.56 l -12.12,35.76 c -0.32,1.02 -0.27,2.1 0.22,3.07 0.48,0.86 1.34,1.53 2.36,1.88 l 66.4,18.55 c 1.02,0.35 2.04,0.22 2.96,-0.32 0.92,-0.54 1.56,-1.43 1.78,-2.45 l 8.61,-37.24 c 0.43,-2.04 -0.8,-4.06 -2.9,-4.55 -2.05,-0.53 -4.1,0.81 -4.58,2.86 l -7.65,33.3 -58.69,-16.45 10.88,-31.96 c 0.64,-1.96 -0.43,-4.14 -2.43,-4.82 l -1.23,-0.19"
         style="fill:#ffffff;fill-opacity:1;fill-rule:nonzero;stroke:none"
         id="path32" />
      <path
         d="m 3191.09,1417.73 c -1.94,0 -3.61,1.48 -3.77,3.45 l -2.64,26.28 c -0.21,2.1 1.35,3.98 3.45,4.2 2.21,0.08 3.99,-1.35 4.2,-3.45 l 2.58,-26.28 c 0.22,-2.1 -1.29,-3.93 -3.39,-4.14 l -0.43,-0.06"
         style="fill:#ffffff;fill-opacity:1;fill-rule:nonzero;stroke:none"
         id="path34" />
      <path
         d="m 3184.04,1312.76 c -1.19,0 -2.37,0.54 -3.13,1.56 -0.75,1.07 -19.17,26.55 -11.47,45.58 3.72,9.26 12.66,15.21 26.66,17.74 28.97,5.15 39.95,-5.84 43.89,-12.87 6.57,-11.73 2.9,-27.3 -4.42,-35.64 -1.4,-1.62 -3.82,-1.75 -5.39,-0.33 -1.61,1.35 -1.72,3.8 -0.32,5.36 5.44,6.22 8.35,18.2 3.5,26.87 -5.11,9.07 -17.88,12.28 -35.91,9.07 -11.2,-2.01 -18.26,-6.35 -20.95,-13.05 -5.06,-12.6 5.92,-31.83 10.61,-38.21 1.23,-1.69 0.86,-4.06 -0.86,-5.36 l -2.21,-0.72"
         style="fill:#ffffff;fill-opacity:1;fill-rule:nonzero;stroke:none"
         id="path36" />
      <path
         d="m 3171.33,1277.33 c -1.89,0 -3.55,1.42 -3.77,3.39 -0.22,2.1 1.35,3.98 3.45,4.2 l 68.22,6.84 c 2.05,0.27 3.99,-1.35 4.2,-3.4 0.22,-2.1 -1.34,-3.98 -3.39,-4.2 l -68.28,-6.83 h -0.43"
         style="fill:#ffffff;fill-opacity:1;fill-rule:nonzero;stroke:none"
         id="path38" />
      <path
         d="m 3180.11,1226.82 -1.62,0.32 c -1.94,0.89 -2.75,3.18 -1.83,5.09 l 25.42,53.9 c 0.48,1.16 1.56,1.97 2.74,2.18 1.19,0.19 2.48,-0.21 3.4,-1.02 l 40.49,-40.09 c 1.51,-1.51 1.56,-3.93 0.05,-5.44 -1.5,-1.48 -3.87,-1.48 -5.38,0 l -36.73,36.24 -23.1,-49.03 c -0.64,-1.35 -2.04,-2.15 -3.44,-2.15"
         style="fill:#ffffff;fill-opacity:1;fill-rule:nonzero;stroke:none"
         id="path40" />
      <path
         d="m 3218.61,1196.12 c 2.85,-18.9 11.25,-45.31 20.89,-45.31 h 0.06 c 1.07,0.08 1.88,0.48 2.63,1.43 5.44,6.7 3.5,30.82 0.76,46.6 z m 20.84,-52.9 c -19.6,0 -27.14,43.29 -28.43,51.96 v 0.14 l -30.54,-3.4 c -2.1,-0.13 -3.93,1.29 -4.2,3.4 -0.21,2.09 1.3,3.98 3.4,4.25 l 65.96,7.24 c 2.05,0.22 3.77,-1.13 4.2,-3.04 0.86,-4.47 8.29,-43.94 -1.67,-56.35 -2.15,-2.7 -5.12,-4.2 -8.45,-4.2 h -0.27"
         style="fill:#ffffff;fill-opacity:1;fill-rule:nonzero;stroke:none"
         id="path42" />
      <path
         d="m 3225.99,1115.19 c -36.3,0 -41.63,-8.72 -42.12,-17.34 -0.16,-3.31 1.19,-6.43 3.99,-9.34 6.68,-7.11 21.16,-11.98 35.11,-11.98 5.87,0 11.09,0.81 15.24,2.5 8.94,3.53 10.61,12.47 9.37,19.04 -1.51,7.91 -8.08,17.12 -21.59,17.12 z m -3.02,-46.33 c -16.15,0 -32.52,5.75 -40.66,14.37 -4.25,4.47 -6.3,9.61 -6.03,15.03 1.14,21.8 27.2,24.58 49.71,24.58 17.01,0 26.87,-11.72 29.07,-23.37 2.37,-12.17 -3.28,-23.29 -14,-27.55 -5.06,-2.04 -11.31,-3.06 -18.09,-3.06"
         style="fill:#ffffff;fill-opacity:1;fill-rule:nonzero;stroke:none"
         id="path44" />
      <path
         d="m 3251.78,1025.53 h -0.38 l -71.67,7.03 c -2.1,0.22 -3.61,2.1 -3.45,4.2 0.22,2.1 2.1,3.53 4.2,3.39 l 71.67,-7.05 c 2.11,-0.19 3.61,-2.02 3.4,-4.12 -0.16,-2.04 -1.83,-3.45 -3.77,-3.45"
         style="fill:#ffffff;fill-opacity:1;fill-rule:nonzero;stroke:none"
         id="path46" />
      <path
         d="m 3230.78,942.34 -1.03,0.16 -50.72,14.398 c -1.4,0.411 -2.48,1.653 -2.69,3.133 -0.22,1.43 0.38,2.91 1.67,3.707 l 49.75,32.723 -47.87,2.309 c -2.1,0.05 -3.72,1.88 -3.61,3.99 0.11,2.1 1.67,3.93 3.99,3.66 l 59.55,-2.91 c 1.67,-0.08 3.07,-1.21 3.5,-2.77 0.43,-1.65 -0.21,-3.318 -1.61,-4.201 l -52.56,-34.551 42.71,-12.187 c 1.99,-0.539 3.17,-2.641 2.58,-4.66 -0.49,-1.7 -1.99,-2.801 -3.66,-2.801"
         style="fill:#ffffff;fill-opacity:1;fill-rule:nonzero;stroke:none"
         id="path48" />
      <path
         d="m 3225.99,882.352 -0.7,0.058 -54.66,10.5 c -2.04,0.399 -3.39,2.371 -3.02,4.461 0.38,2.051 2.37,3.399 4.47,2.988 l 54.66,-10.488 c 2.04,-0.41 3.44,-2.383 3.01,-4.473 -0.32,-1.828 -1.93,-3.046 -3.76,-3.046"
         style="fill:#ffffff;fill-opacity:1;fill-rule:nonzero;stroke:none"
         id="path50" />
      <path
         d="m 3234.6,850.852 c -2.1,0 -3.82,1.699 -3.82,3.796 v 63.59 c 0,2.102 1.72,3.801 3.82,3.801 2.1,0 3.83,-1.699 3.83,-3.801 v -63.59 c 0,-2.097 -1.73,-3.796 -3.83,-3.796"
         style="fill:#ffffff;fill-opacity:1;fill-rule:nonzero;stroke:none"
         id="path52" />
      <path
         d="m 3205.52,706.73 -1.93,0.481 c -1.84,1.078 -2.43,3.371 -1.4,5.199 1.82,3.199 -0.11,18.039 -7.65,30.75 -2.91,4.82 -8.78,12.809 -16.26,12.809 h -0.27 c -7.49,-0.207 -15.62,-8.258 -23.64,-23.367 -0.97,-1.883 -3.29,-2.582 -5.12,-1.614 -1.88,0.992 -2.58,3.313 -1.61,5.192 9.47,17.961 19.65,27.172 30.21,27.441 8.93,0.27 16.69,-5.492 23.2,-16.531 7.22,-12.121 12.17,-30.891 7.76,-38.449 -0.7,-1.243 -1.99,-1.911 -3.29,-1.911"
         style="fill:#ffffff;fill-opacity:1;fill-rule:nonzero;stroke:none"
         id="path54" />
      <path
         d="m 3187.75,664.398 c 0,0 -52.55,34.332 -55.41,36.161 -1.77,1.16 -2.31,3.453 -1.18,5.281 1.13,1.781 3.5,2.32 5.28,1.16 2.9,-1.828 55.46,-36.238 55.46,-36.238 l -4.15,-6.364"
         style="fill:#ffffff;fill-opacity:1;fill-rule:nonzero;stroke:none"
         id="path56" />
      <path
         d="m 3139.88,650.191 -1.99,0.59 c -1.83,1.098 -2.37,3.469 -1.24,5.231 l 20.52,32.84 c 1.13,1.75 3.5,2.32 5.22,1.16 1.83,-1.082 2.37,-3.473 1.24,-5.223 l -20.52,-32.848 c -0.7,-1.16 -1.94,-1.75 -3.23,-1.75"
         style="fill:#ffffff;fill-opacity:1;fill-rule:nonzero;stroke:none"
         id="path58" />
      <path
         d="m 3163.15,626.949 -2.48,0.891 -45.99,39.691 c -1.56,1.34 -1.72,3.77 -0.37,5.328 1.4,1.641 3.82,1.77 5.38,0.403 l 45.99,-39.602 c 1.56,-1.43 1.77,-3.801 0.37,-5.41 -0.75,-0.891 -1.83,-1.301 -2.9,-1.301"
         style="fill:#ffffff;fill-opacity:1;fill-rule:nonzero;stroke:none"
         id="path60" />
      <path
         d="m 3117.16,562.551 h -0.38 c -1.29,0.14 -2.2,0.187 -3.18,2.961 -1.67,4.07 -25.52,32.179 -47,56.617 -1.35,1.57 -1.19,4.012 0.37,5.359 1.56,1.434 3.99,1.211 5.39,-0.347 18.79,-21.403 30.42,-35.082 37.58,-44.02 -1.99,12.059 -4.74,31.289 -9.04,61.981 -0.27,2.097 1.18,3.988 3.23,4.339 2.1,0.207 4.04,-1.16 4.36,-3.261 3.82,-27.36 10.34,-71.649 11.95,-77.821 0.81,-1.82 0.65,-2.5 0.38,-3.168 -0.54,-1.562 -2.05,-2.64 -3.66,-2.64"
         style="fill:#ffffff;fill-opacity:1;fill-rule:nonzero;stroke:none"
         id="path62" />
      <path
         d="m 3076.77,592.191 c -1.4,0 -2.8,0.758 -3.39,2.11 -0.92,1.91 -0.16,4.187 1.72,5.16 l 47.28,22.891 c 1.89,0.859 4.15,0.128 5.07,-1.782 0.96,-1.879 0.15,-4.199 -1.73,-5.14 l -47.28,-22.891 -1.67,-0.348"
         style="fill:#ffffff;fill-opacity:1;fill-rule:nonzero;stroke:none"
         id="path64" />
      <path
         d="m 3047.53,577.309 c -0.53,-0.68 -1.34,-1.161 -2.26,-1.297 -4.74,-0.723 -17.87,-4.121 -22.35,-10.692 -1.39,-2.039 -1.77,-4.281 -1.23,-6.781 0.48,-2.148 1.67,-3.848 3.71,-5.141 6.57,-4.199 19.44,-3.257 26.87,-2.097 -1.83,9.879 -3.39,18.551 -4.74,26.008 z m -7.26,-34.598 c -6.63,0 -13.79,0.937 -18.96,4.25 -3.77,2.371 -6.19,5.769 -7.11,9.961 -0.97,4.609 -0.16,8.859 2.42,12.738 4.91,7.11 15.14,10.899 21.65,12.602 l -28.97,42.109 c -1.18,1.77 -0.75,4.149 0.97,5.277 1.67,1.231 4.09,0.832 5.33,-0.949 l 30.8,-44.769 c -7.16,41.25 -6.19,43.16 -5.65,44.32 0.97,1.879 3.23,2.629 5.12,1.691 1.66,-0.75 2.42,-2.582 2.04,-4.281 -0.21,-5.41 7.54,-49.699 12.55,-76.68 0.37,-2.019 -0.92,-3.98 -2.91,-4.468 -0.59,-0.051 -8.45,-1.801 -17.28,-1.801"
         style="fill:#ffffff;fill-opacity:1;fill-rule:nonzero;stroke:none"
         id="path66" />
      <path
         d="m 2954,573.102 -1.78,0.41 c -1.88,1.019 -2.58,3.308 -1.61,5.218 l 27.19,51.051 -26.22,21.219 c -1.62,1.34 -1.89,3.789 -0.54,5.41 1.35,1.61 3.71,1.91 5.38,0.539 l 28.6,-23.238 c 1.45,-1.129 1.83,-3.18 1.02,-4.742 l -28.65,-53.84 c -0.7,-1.27 -1.99,-2.027 -3.39,-2.027"
         style="fill:#ffffff;fill-opacity:1;fill-rule:nonzero;stroke:none"
         id="path68" />
      <path
         d="m 2901.5,626.949 -2.05,0.59 c -1.83,1.16 -2.31,3.531 -1.13,5.313 2.86,4.386 40.82,50.046 45.12,55.25 1.35,1.636 3.78,1.828 5.39,0.48 1.62,-1.293 1.83,-3.711 0.49,-5.363 -16.86,-20.239 -42.6,-51.469 -44.64,-54.571 -0.7,-1.109 -1.94,-1.699 -3.18,-1.699"
         style="fill:#ffffff;fill-opacity:1;fill-rule:nonzero;stroke:none"
         id="path70" />
      <path
         d="m 2870,699.969 -1.78,0.461 c -0.92,0.48 -1.61,1.34 -1.88,2.308 l -8.62,31.422 c -0.54,2.02 0.65,4.121 2.69,4.66 2.05,0.571 4.15,-0.59 4.69,-2.64 l 7.54,-27.539 57.99,18.871 -8.89,18.578 c -0.91,1.89 -0.1,4.199 1.78,5.14 1.94,0.872 4.2,0.059 5.12,-1.832 l 10.77,-22.558 c 0.43,-0.942 0.43,-2.102 0,-3.121 -0.38,-1 -1.24,-1.75 -2.26,-2.098 l -65.97,-21.461 -1.18,-0.191"
         style="fill:#ffffff;fill-opacity:1;fill-rule:nonzero;stroke:none"
         id="path72" />
      <path
         d="m 2901.5,710.18 c -1.72,0 -3.34,1.23 -3.72,2.98 l -7.64,33.738 c -0.49,2.102 0.8,4.122 2.9,4.602 2.05,0.461 4.1,-0.891 4.58,-2.91 l 7.59,-33.731 c 0.49,-2.05 -0.8,-4.058 -2.85,-4.55 l -0.86,-0.129"
         style="fill:#ffffff;fill-opacity:1;fill-rule:nonzero;stroke:none"
         id="path74" />
      <path
         d="m 2852.98,826.941 24.56,-7.863 c 1.07,-0.316 1.94,-1.129 2.36,-2.148 l 12.77,-29.942 5.11,23.641 c 0.43,1.961 2.43,3.25 4.31,2.902 l 12.49,-1.961 -15.83,16.578 c -1.4,1.434 -1.4,3.75 -0.05,5.231 l 13.78,14.703 -17.76,-4.152 c -1.68,-0.399 -3.4,0.429 -4.21,1.91 l -10.28,18.961 v -26.41 c 0,-1.621 -1.08,-3.129 -2.69,-3.582 z m 40.87,-56.269 c -1.51,0 -2.91,0.867 -3.5,2.289 l -16.75,39.359 -34.35,11.039 c -1.56,0.461 -2.64,1.969 -2.64,3.582 0,1.7 1.08,3.18 2.64,3.668 l 33.33,10.629 v 38.614 c 0,1.75 1.19,3.308 2.86,3.718 1.72,0.481 3.5,-0.359 4.3,-1.89 l 16.11,-29.668 27.24,6.347 c 1.62,0.411 3.34,-0.32 4.15,-1.828 0.86,-1.402 0.64,-3.23 -0.54,-4.519 l -19.92,-21.223 21.16,-22.207 c 1.18,-1.133 1.4,-2.961 0.65,-4.391 -0.76,-1.421 -2.38,-2.312 -3.99,-1.961 l -20.14,3.168 -6.84,-31.757 c -0.37,-1.621 -1.72,-2.832 -3.39,-2.969 h -0.38"
         style="fill:#ffffff;fill-opacity:1;fill-rule:nonzero;stroke:none"
         id="path76" />
      <path
         d="m 2844.26,957.738 h 29.61 c -0.69,0.594 -1.18,1.481 -1.23,2.422 -0.06,0.219 -2.48,21.621 -16.21,22.352 -2.53,0 -4.25,-0.672 -5.71,-2.231 -4.74,-4.801 -6.14,-15.832 -6.46,-22.543 z m 34.68,0 h 28.53 c 0.49,10.883 0.12,31.821 -6.19,38.981 -1.13,1.301 -2.37,1.972 -3.82,2.051 -10.34,0 -16.05,-25.95 -17.29,-38.532 -0.05,-1.019 -0.53,-1.906 -1.23,-2.5 z m 32.09,-7.668 h -70.65 c -2.05,0 -3.71,1.641 -3.77,3.739 -0.05,2.293 -0.37,22.531 8.62,31.82 2.91,3.051 6.57,4.531 10.71,4.531 h 0.92 c 9.37,-0.539 15.08,-6.629 18.47,-13.058 3.12,13.136 9.42,29.318 21.81,29.318 h 0.75 c 3.56,-0.19 6.62,-1.75 9.15,-4.66 10.4,-11.928 8.08,-44.51 7.81,-48.17 -0.16,-1.961 -1.83,-3.52 -3.82,-3.52"
         style="fill:#ffffff;fill-opacity:1;fill-rule:nonzero;stroke:none"
         id="path78" />
      <path
         d="m 2911.41,1021.65 h -71.03 c -2.1,0 -3.77,1.7 -3.77,3.88 v 29.86 c 0,2.1 1.67,3.8 3.77,3.8 2.16,0 3.88,-1.7 3.88,-3.8 v -26.09 h 62.84 l -3.66,30.35 c -0.27,2.09 1.24,4.01 3.34,4.28 2.04,0.27 3.98,-1.3 4.25,-3.4 l 4.2,-34.59 c 0.11,-1.11 -0.27,-2.18 -0.97,-2.99 -0.7,-0.81 -1.78,-1.3 -2.85,-1.3"
         style="fill:#ffffff;fill-opacity:1;fill-rule:nonzero;stroke:none"
         id="path80" />
      <path
         d="m 2875.92,1021.65 c -2.1,0 -3.82,1.7 -3.82,3.88 v 29.86 c 0,2.1 1.72,3.8 3.82,3.8 2.1,0 3.82,-1.7 3.82,-3.8 v -29.86 c 0,-2.18 -1.72,-3.88 -3.82,-3.88"
         style="fill:#ffffff;fill-opacity:1;fill-rule:nonzero;stroke:none"
         id="path82" />
      <path
         d="m 2911.41,1092.04 h -71.03 c -1.88,0 -3.5,1.42 -3.71,3.31 -1.46,10.5 -5.12,45.04 9.58,48.43 12.28,2.7 22.08,-18.57 26.33,-30.15 l 36.14,36.1 c 1.5,1.49 3.87,1.49 5.38,0 1.51,-1.48 1.51,-3.93 0,-5.41 l -40.44,-40.39 c -0.97,-0.94 -2.32,-1.26 -3.61,-0.99 -1.29,0.32 -2.31,1.29 -2.75,2.56 -4.89,15.51 -13.94,32.04 -19.33,30.82 -5,-1.15 -6.08,-19.57 -4.2,-36.64 h 67.64 c 2.1,0 3.82,-1.69 3.82,-3.85 0,-2.1 -1.72,-3.79 -3.82,-3.79"
         style="fill:#ffffff;fill-opacity:1;fill-rule:nonzero;stroke:none"
         id="path84" />
      <path
         d="m 2907.21,1180.08 c -26.17,0.4 -68.98,0.75 -72.75,0.05 -1.94,-0.27 -4.04,1.02 -4.42,3.12 -0.37,2.05 0.92,4.02 2.97,4.42 4.52,0.86 54.01,0.32 70.75,0.13 l 3.88,38.53 c 0.21,2.02 1.99,3.58 4.14,3.39 2.1,-0.21 3.61,-2.1 3.45,-4.2 l -4.2,-42 c -0.16,-1.96 -1.83,-3.44 -3.82,-3.44"
         style="fill:#ffffff;fill-opacity:1;fill-rule:nonzero;stroke:none"
         id="path86" />
      <path
         d="m 2911.41,1262.17 -0.27,0.05 -60.47,4.74 c -2.1,0.21 -3.72,2.05 -3.5,4.15 0.16,2.1 2.2,3.58 4.09,3.44 l 60.47,-4.74 c 2.1,-0.13 3.66,-2.04 3.5,-4.14 -0.16,-1.94 -1.83,-3.5 -3.82,-3.5"
         style="fill:#ffffff;fill-opacity:1;fill-rule:nonzero;stroke:none"
         id="path88" />
      <path
         d="m 2915.82,1301.31 h -0.27 l -64.88,4.8 c -1.67,0.13 -3.07,1.37 -3.45,2.98 -0.32,1.62 0.38,3.32 1.89,4.12 l 57.61,31.99 -57.08,21.27 c -1.99,0.73 -3.01,2.91 -2.26,4.93 0.76,1.96 2.91,2.99 4.9,2.23 l 64.89,-24.18 c 1.4,-0.53 2.37,-1.83 2.48,-3.31 0.1,-1.48 -0.7,-2.91 -1.94,-3.58 l -53.69,-29.8 52.07,-3.8 c 2.16,-0.13 3.72,-2.05 3.56,-4.14 -0.17,-1.97 -1.84,-3.51 -3.83,-3.51"
         style="fill:#ffffff;fill-opacity:1;fill-rule:nonzero;stroke:none"
         id="path90" />
      <path
         d="m 2876.84,1463.58 23.15,-18.01 c 0.97,-0.7 1.51,-1.83 1.51,-2.99 v -28.45 l 11.14,16.74 c 0.92,1.35 2.59,1.97 4.21,1.56 l 15.99,-4.33 -12.82,17.47 c -1.07,1.48 -0.97,3.5 0.22,4.88 l 18.63,20.16 -16.48,3.07 c -1.5,0.27 -2.74,1.4 -3.07,2.96 l -4.52,21.76 -9.69,-26.63 c -0.49,-1.16 -1.46,-2.1 -2.75,-2.37 z m 20.89,-65.83 -1.13,0.14 c -1.62,0.46 -2.75,1.97 -2.75,3.66 v 39.12 l -28.05,21.81 c -1.19,0.89 -1.78,2.4 -1.4,3.8 0.27,1.51 1.4,2.58 2.85,2.93 l 31.39,7.16 13.57,37.18 c 0.6,1.57 2.27,2.59 3.88,2.51 1.67,-0.14 3.12,-1.35 3.45,-3.04 l 6.73,-32.31 20.78,-3.85 c 1.4,-0.22 2.48,-1.24 2.96,-2.51 0.44,-1.37 0.11,-2.77 -0.85,-3.79 l -21.17,-23.02 17.45,-23.72 c 0.91,-1.29 0.97,-3.04 0.05,-4.39 -0.97,-1.37 -2.58,-1.97 -4.14,-1.56 l -23.86,6.49 -16.64,-24.91 c -0.7,-1.1 -1.88,-1.7 -3.12,-1.7"
         style="fill:#ffffff;fill-opacity:1;fill-rule:nonzero;stroke:none"
         id="path92" />
      <path
         d="m 2837.9,3740.48 -54.16,-353.81 -589.11,47.82 c 0,0 -22.43,-213.75 -35.27,-330.22 h -354.58 l 66.03,875.7 c 0.68,8.99 3.22,17.47 7,25.25 13.99,28.54 46.84,47.28 83.72,44.51 l 213.09,-20.6 561.94,-54.44 c 122.51,-22.91 121.59,-142.51 101.34,-234.21"
         style="fill:#f3b638;fill-opacity:1;fill-rule:nonzero;stroke:none"
         id="path94" />
      <path
         d="m 2174.62,4029.13 -97.21,-924.86 h -272.63 l 66.03,875.7 c 0.68,8.99 3.22,17.47 7,25.25 13.99,28.54 46.84,47.28 83.72,44.51 l 213.09,-20.6"
         style="fill:#71a7fe;fill-opacity:1;fill-rule:nonzero;stroke:none"
         id="path96" />
      <path
         d="m 2788.85,3619.62 -8.67,-56.7 -1.13,-7.59 -6.14,-39.83 -1.13,-7.67 -5.06,-32.9 -1.13,-7.57 -5.5,-35.86 -1.13,-7.51 -48.94,-319.72 h -165.48 l 49.17,347.64 1.07,7.43 5.5,38.96 1.07,7.56 6.09,42.76 1.13,7.65 4.36,31.36 1.08,7.57 5.92,41.6 168.92,-17.18"
         style="fill:#4489fc;fill-opacity:1;fill-rule:nonzero;stroke:none"
         id="path98" />
      <path
         d="m 2780.18,3562.92 -1.13,-7.59 -166.12,32.3 1.08,7.57 166.17,-32.28"
         style="fill:#ffffff;fill-opacity:1;fill-rule:nonzero;stroke:none"
         id="path100" />
      <path
         d="m 2772.91,3515.5 -1.13,-7.67 -164.34,40.79 1.13,7.65 164.34,-40.77"
         style="fill:#ffffff;fill-opacity:1;fill-rule:nonzero;stroke:none"
         id="path102" />
      <path
         d="m 2766.72,3474.93 -1.13,-7.57 -165.31,30.94 1.07,7.56 165.37,-30.93"
         style="fill:#ffffff;fill-opacity:1;fill-rule:nonzero;stroke:none"
         id="path104" />
      <path
         d="m 2760.09,3431.5 -1.13,-7.51 -165.25,27.92 1.07,7.43 165.31,-27.84"
         style="fill:#ffffff;fill-opacity:1;fill-rule:nonzero;stroke:none"
         id="path106" />
      <path
         d="m 2174.62,3104.27 100.79,820.77 64.89,-11.44 -110.71,-809.33 h -54.97"
         style="fill:#ffffff;fill-opacity:1;fill-rule:nonzero;stroke:none"
         id="path108" />
      <path
         d="m 1976.3,2011.3 c -108.54,0 -207.86,-41.95 -322.01,-136.02 -179.71,-148.03 -172.57,-380.41 -140.03,-494.32 23.1,-80.8 106.74,-278.51 384.38,-369.05 66.27,-21.621 135.02,-32.519 204.36,-32.519 180.92,-0.059 346.12,75.329 453.23,206.639 85.35,104.57 101.72,287.84 39.9,445.72 -107.32,273.87 -383.67,351.44 -538.87,373.24 -30.5,4.26 -56.24,6.31 -80.96,6.31 z M 2103.04,971.742 H 2103 c -70.16,0 -139.7,11.117 -206.73,32.928 -281.1,91.7 -365.92,292.23 -389.36,374.19 -33.05,115.74 -40.26,351.7 142.5,502.31 115.65,95.23 216.45,137.77 326.89,137.77 25.08,0 51.16,-2.04 82.05,-6.38 156.81,-22.07 436.17,-100.56 544.89,-378.04 62.78,-160.3 45.88,-346.7 -41.09,-453.37 -108.56,-133.08 -275.92,-209.408 -459.11,-209.408"
         style="fill:#ffffff;fill-opacity:1;fill-rule:nonzero;stroke:none"
         id="path110" />
      <path
         d="m 1729.8,1084.98 c -2.06,0 -3.76,1.62 -3.82,3.66 -0.07,2.64 -8.57,269.3 48.11,539.99 56.69,270.69 104.3,376.1 104.77,377.09 0.89,1.97 3.13,2.78 5.05,1.91 1.94,-0.88 2.75,-3.12 1.9,-5.08 -0.47,-1.03 -47.75,-105.87 -104.23,-375.49 -56.52,-269.83 -48.05,-535.51 -47.96,-538.15 0.08,-2.1 -1.59,-3.85 -3.69,-3.93 h -0.13"
         style="fill:#ffffff;fill-opacity:1;fill-rule:nonzero;stroke:none"
         id="path112" />
      <path
         d="m 2031.12,975.672 h -0.07 c -2.1,0.078 -3.75,1.828 -3.73,3.93 l 17.61,1030.458 c 0.04,2.1 1.8,3.88 3.9,3.74 2.11,0 3.79,-1.78 3.76,-3.88 L 2034.94,979.469 c -0.03,-2.098 -1.72,-3.797 -3.82,-3.797"
         style="fill:#ffffff;fill-opacity:1;fill-rule:nonzero;stroke:none"
         id="path114" />
      <path
         d="m 2380.47,1036.36 -0.43,0.08 c -2.1,0.19 -3.61,2.07 -3.4,4.17 0.22,1.78 19.39,179.42 -1.66,431.83 -21.11,252.36 -95.75,472.33 -96.5,474.56 -0.7,1.97 0.38,4.15 2.37,4.82 1.99,0.76 4.15,-0.35 4.85,-2.37 0.75,-2.18 75.71,-223.04 96.81,-476.34 21.22,-253.21 1.94,-431.53 1.73,-433.36 -0.22,-1.91 -1.89,-3.39 -3.77,-3.39"
         style="fill:#ffffff;fill-opacity:1;fill-rule:nonzero;stroke:none"
         id="path116" />
      <path
         d="m 2058.07,1226.82 c -37.61,0 -74.97,1.26 -111.3,4.2 -299.05,23.96 -420.22,96.63 -421.4,97.38 -1.79,1.08 -2.33,3.45 -1.25,5.2 1.11,1.83 3.46,2.39 5.25,1.29 1.18,-0.73 121.13,-72.46 418.04,-96.23 297.52,-23.85 665.52,62.3 669.18,63.19 2.1,0.54 4.09,-0.75 4.58,-2.85 0.54,-2.02 -0.76,-4.07 -2.8,-4.52 -3.23,-0.84 -288.52,-67.66 -560.3,-67.66"
         style="fill:#ffffff;fill-opacity:1;fill-rule:nonzero;stroke:none"
         id="path118" />
      <path
         d="m 2633.39,1494.06 c -2.58,0.06 -254.97,1.7 -584.69,8 -330.01,6.27 -554.75,39.41 -556.99,39.74 -2.1,0.27 -3.52,2.23 -3.22,4.33 0.3,2.05 2.27,3.45 4.34,3.18 2.23,-0.32 226.58,-33.3 556,-39.6 329.7,-6.3 582.08,-8 584.56,-8 2.1,0 3.82,-1.75 3.82,-3.85 0,-2.1 -1.72,-3.8 -3.82,-3.8"
         style="fill:#ffffff;fill-opacity:1;fill-rule:nonzero;stroke:none"
         id="path120" />
      <path
         d="m 2572.49,1687.97 -1.45,0.27 c -2.05,0.86 -208.72,85.32 -526.18,100.91 -165.71,8.13 -296.09,-13.22 -376.31,-32.53 -86.9,-20.92 -135.25,-44.07 -135.73,-44.29 -1.89,-0.94 -4.19,-0.13 -5.11,1.78 -0.92,1.89 -0.13,4.2 1.76,5.06 0.5,0.27 49.37,23.72 137.01,44.83 80.73,19.44 212.02,40.92 378.76,32.71 318.86,-15.64 526.66,-100.56 528.76,-101.44 1.88,-0.81 2.8,-3.05 2.04,-4.93 -0.59,-1.51 -2.04,-2.37 -3.55,-2.37"
         style="fill:#ffffff;fill-opacity:1;fill-rule:nonzero;stroke:none"
         id="path122" />
      <path
         d="m 2376.59,3104.27 116.42,784.53 72.37,-11.47 -121.96,-773.06 h -66.83"
         style="fill:#ffffff;fill-opacity:1;fill-rule:nonzero;stroke:none"
         id="path124" />
      <path
         d="m 1877.81,4005.22 c -3.78,-7.78 -6.32,-16.26 -7,-25.25 l -37.65,-499.14 -28.38,-376.56 h -619.63 c -11.69,185.59 -36.58,665.93 -22.89,781.28 16.85,142.56 200.39,119.67 200.39,119.67 h 515.16"
         style="fill:#f3b638;fill-opacity:1;fill-rule:nonzero;stroke:none"
         id="path126" />
      <path
         d="m 2971.45,3371.46 -59.61,-267.19 h -752.48 c 12.84,116.47 35.27,330.22 35.27,330.22 l 589.11,-47.82 187.71,-15.21"
         style="fill:#0964d9;fill-opacity:1;fill-rule:nonzero;stroke:none"
         id="path128" />
      <path
         d="m 2710.02,3155.26 c 0,-17.95 -3.29,-35.16 -9.32,-50.99 h -270.64 c -6.03,15.83 -9.31,33.04 -9.31,50.99 0,79.83 64.78,144.59 144.63,144.59 79.86,0 144.64,-64.76 144.64,-144.59"
         style="fill:#ffffff;fill-opacity:1;fill-rule:nonzero;stroke:none"
         id="path130" />
      <path
         d="m 1280.27,2719.15 v -178.34 c 17.2,1.18 86,7.91 116.48,41.03 10.41,11.28 15.31,24.72 14.61,39.93 -3.26,68.11 -108.1,92.78 -131.09,97.38 z m -3.83,-335.85 c -2.1,0 -3.82,1.7 -3.82,3.8 v 336.63 c 0,1.13 0.5,2.21 1.34,2.91 0.85,0.72 1.97,1.05 3.09,0.86 5.63,-0.89 138,-23.08 141.93,-105.38 0.81,-17.29 -4.78,-32.58 -16.6,-45.45 -33.09,-35.97 -104.84,-42.46 -122.11,-43.56 V 2387.1 c 0,-2.1 -1.73,-3.8 -3.83,-3.8"
         style="fill:#ffffff;fill-opacity:1;fill-rule:nonzero;stroke:none"
         id="path132" />
      <path
         d="m 2101.52,2719.15 v -179.82 c 17.28,1.37 86,8.88 116.49,42.32 10.39,11.42 15.29,24.91 14.54,40.12 -3.18,68.11 -108.03,92.78 -131.03,97.38 z m -3.82,-335.85 c -2.1,0 -3.84,1.7 -3.84,3.8 v 336.63 c 0,1.13 0.52,2.21 1.36,2.91 0.85,0.72 1.97,1.05 3.09,0.86 5.61,-0.89 137.95,-23.08 141.88,-105.38 0.81,-17.29 -4.73,-32.66 -16.58,-45.61 -33.07,-36.35 -104.88,-43.62 -122.09,-44.88 V 2387.1 c 0,-2.1 -1.72,-3.8 -3.82,-3.8"
         style="fill:#ffffff;fill-opacity:1;fill-rule:nonzero;stroke:none"
         id="path134" />
      <path
         d="m 1454.26,2383.3 h -0.44 c -2.1,0.27 -3.6,2.18 -3.35,4.28 4.09,35.38 41.61,345.95 91.83,347.3 50.35,1.02 103.59,-308.07 109.52,-343.34 0.33,-2.07 -1.08,-4.04 -3.15,-4.36 -2.07,-0.35 -4.03,1 -4.41,3.1 -21.87,130.44 -68.73,336.95 -101.55,336.95 h -0.21 c -32.8,-0.89 -69.22,-209.36 -84.46,-340.53 -0.23,-1.97 -1.88,-3.4 -3.78,-3.4"
         style="fill:#ffffff;fill-opacity:1;fill-rule:nonzero;stroke:none"
         id="path136" />
      <path
         d="m 1477.69,2541.11 c -2,0 -3.65,1.53 -3.79,3.55 -0.13,2.1 1.46,3.9 3.56,4.04 l 137.55,8.67 c 2.06,0.1 3.89,-1.48 4.02,-3.59 0.14,-2.1 -1.45,-3.93 -3.55,-4.06 l -137.55,-8.61 h -0.24"
         style="fill:#ffffff;fill-opacity:1;fill-rule:nonzero;stroke:none"
         id="path138" />
      <path
         d="m 1958.01,2383.3 c -18.66,0 -36.51,7.11 -50.59,20.33 -17.58,16.45 -27.44,40.57 -27.78,67.85 0,2.1 1.7,3.88 3.8,3.88 2.03,0 3.83,-1.67 3.86,-3.77 0.27,-25.2 9.28,-47.39 25.37,-62.41 13.54,-12.66 30.88,-19.17 48.89,-18.15 36.71,1.97 74.67,4.07 74.67,80.53 0,46.63 -34.81,62.33 -71.65,78.97 -17.99,8.13 -36.58,16.53 -51.51,28.78 -24.51,20.08 -34.95,58.32 -24.82,90.89 9.96,32.12 37.83,52.42 76.46,55.68 26.07,2.24 46.19,-4.14 59.81,-18.84 26,-28.17 18.42,-76.47 18.08,-78.49 -0.34,-2.07 -2.3,-3.47 -4.37,-3.12 -2.1,0.35 -3.49,2.31 -3.15,4.36 0.06,0.46 7.32,46.71 -16.23,72.1 -11.87,12.87 -29.89,18.39 -53.49,16.4 -48.43,-4.09 -64.55,-33.31 -69.83,-50.32 -9.25,-29.75 0.17,-64.56 22.39,-82.76 14.15,-11.64 32.27,-19.79 49.81,-27.71 37.42,-16.94 76.15,-34.41 76.15,-85.94 0,-83.71 -45.41,-86.18 -81.92,-88.18 -1.31,-0.08 -2.64,-0.08 -3.95,-0.08"
         style="fill:#ffffff;fill-opacity:1;fill-rule:nonzero;stroke:none"
         id="path140" />
      <path
         d="m 1752.7,2383.3 c -18.66,0 -36.51,7.11 -50.59,20.33 -17.58,16.45 -27.44,40.57 -27.77,67.85 0,2.1 1.69,3.88 3.79,3.88 1.79,0 3.83,-1.67 3.85,-3.77 0.27,-25.2 9.29,-47.39 25.37,-62.41 13.51,-12.66 30.89,-19.17 48.9,-18.15 36.71,1.97 74.66,4.07 74.66,80.53 0,46.63 -34.8,62.33 -71.64,78.97 -17.99,8.13 -36.58,16.53 -51.51,28.78 -24.52,20.08 -34.95,58.32 -24.82,90.89 9.95,32.12 37.83,52.42 76.46,55.68 26.08,2.24 46.19,-4.14 59.8,-18.84 26.01,-28.17 18.43,-76.47 18.08,-78.49 -0.34,-2.07 -2.3,-3.47 -4.36,-3.12 -2.1,0.35 -3.49,2.31 -3.15,4.36 0.06,0.46 7.28,46.71 -16.22,72.1 -11.89,12.87 -29.9,18.39 -53.5,16.4 -48.44,-4.09 -64.55,-33.31 -69.83,-50.32 -9.25,-29.75 0.16,-64.56 22.38,-82.76 14.16,-11.64 32.28,-19.79 49.82,-27.71 37.41,-16.94 76.15,-34.41 76.15,-85.94 0,-83.71 -45.4,-86.18 -81.91,-88.18 -1.32,-0.08 -2.64,-0.08 -3.96,-0.08"
         style="fill:#ffffff;fill-opacity:1;fill-rule:nonzero;stroke:none"
         id="path142" />
      <path
         d="m 2372.34,2722.25 c -1.08,0 -2.16,-0.03 -3.23,-0.11 -33.17,-1.7 -76.95,-20.65 -74.04,-164.4 2.42,-118.49 26.76,-166.82 84,-166.82 v -3.82 l 0.27,3.82 c 13.41,0.03 25.25,5.39 35.16,15.89 25.79,27.3 38.72,89.84 34.57,167.36 -3.61,67.55 -19.82,148.08 -76.73,148.08 z m 6.73,-338.95 c -62.57,0 -89.07,50.49 -91.6,174.28 -2.37,114.48 23.43,169.19 81.21,172.21 52.28,2.8 82.49,-51.16 88.04,-155.22 4.2,-79.59 -9.48,-144.26 -36.67,-173.01 -11.42,-12.09 -25.1,-18.18 -40.66,-18.26 h -0.32"
         style="fill:#ffffff;fill-opacity:1;fill-rule:nonzero;stroke:none"
         id="path144" />
      <path
         d="m 2494.95,2544.85 c 15.4,-0.25 76.25,1.21 112.33,34.46 17.71,16.39 27.08,38.39 27.73,65.29 0.59,25.74 -7.27,45.55 -23.37,58.85 -35.65,29.46 -101.83,19.63 -116.69,16.99 z m -3.82,-161.55 c -2.11,0 -3.83,1.7 -3.83,3.8 v 336.47 c 0,1.83 1.24,3.39 3.02,3.77 3.39,0.7 83.19,17.5 126.22,-17.99 17.98,-14.91 26.76,-36.72 26.06,-64.91 -0.65,-29.11 -10.83,-52.88 -30.21,-70.76 -34.3,-31.63 -87.61,-36.16 -110.5,-36.51 l 164.78,-136.93 c 1.67,-1.35 1.83,-3.72 0.48,-5.36 -1.29,-1.62 -3.77,-1.86 -5.33,-0.51 l -166.87,138.6 V 2387.1 c 0,-2.1 -1.72,-3.8 -3.82,-3.8"
         style="fill:#ffffff;fill-opacity:1;fill-rule:nonzero;stroke:none"
         id="path146" />
      <path
         d="m 2682.93,2717.94 -0.97,0.03 c -2.05,0.32 -3.5,2.29 -3.18,4.39 0.33,1.96 2.11,3.23 3.99,3.2 4.52,-0.11 133.11,2.37 200.64,3.66 2.09,0 3.82,-1.67 3.87,-3.77 0,-2.1 -1.61,-3.82 -3.71,-3.85 -169.89,-3.26 -196.33,-3.66 -200.64,-3.66"
         style="fill:#ffffff;fill-opacity:1;fill-rule:nonzero;stroke:none"
         id="path148" />
      <path
         d="m 2783.03,2383.3 c -2.1,0 -3.87,1.7 -3.87,3.8 v 336.47 c 0,2.1 1.77,3.82 3.87,3.82 2.1,0 3.83,-1.72 3.83,-3.82 V 2387.1 c 0,-2.1 -1.73,-3.8 -3.83,-3.8"
         style="fill:#ffffff;fill-opacity:1;fill-rule:nonzero;stroke:none"
         id="path150" />
      <path
         d="m 1440.23,3104.27 h -255.08 c -11.69,185.59 -36.58,665.93 -22.89,781.28 16.85,142.56 200.39,119.67 200.39,119.67 h 42.34 l 35.24,-900.95"
         style="fill:#71a7fe;fill-opacity:1;fill-rule:nonzero;stroke:none"
         id="path152" />
      <path
         d="m 1352.46,1105.63 c -9.68,-4.39 -26.72,-10.42 -49.6,-16.85 -32.69,-9.16 -77.36,-19.17 -129.98,-26.63 -38.02,-5.41 -80.15,-9.48 -124.82,-10.96 -3.69,-0.08 -7.17,-0.13 -10.7,-0.21 -56.044,-1.13 -97.895,3.12 -127.969,8.75 -46.055,8.53 -64.672,20.16 -64.672,20.16 0,0 -4.805,206.19 15.886,313.13 17.704,91.22 68.696,217.86 96.977,273.27 48.158,-17.15 107.278,-16.66 167.428,0 3.51,0.87 6.8,1.97 10.15,3.05 l 0.31,-0.14 c 48.05,-1.91 82.79,0.73 107.44,4.88 2,0.27 3.83,0.67 5.67,0.94 37,6.92 48.92,16.72 48.92,16.72 0,0 61.64,-168.98 67.43,-294.95 5.65,-125.95 -12.47,-291.16 -12.47,-291.16"
         style="fill:#0c3673;fill-opacity:1;fill-rule:nonzero;stroke:none"
         id="path154" />
      <path
         d="m 896.898,1165.16 c -1.414,0 -2.64,1.02 -2.839,2.45 -6.907,51.75 9.879,177.73 17.429,229.53 0.246,1.61 0.375,2.63 0.418,2.85 l 2.774,-0.35 2.261,1.91 c 0.821,-1.02 0.821,-1.02 0.204,-5.22 -7.512,-51.53 -24.247,-176.97 -17.407,-227.91 0.215,-1.62 -0.902,-3.04 -2.465,-3.26 h -0.375"
         style="fill:#3a7ff9;fill-opacity:1;fill-rule:nonzero;stroke:none"
         id="path156" />
      <path
         d="m 963.707,1294.93 c -1.387,0 -2.598,1.03 -2.84,2.45 -3.887,26.01 8.871,95.56 10.262,100.43 0.469,1.51 2.07,2.37 3.551,1.91 1.519,-0.4 2.41,-2.05 1.968,-3.53 -1.347,-4.55 -13.812,-73.28 -10.085,-97.94 0.203,-1.54 -0.848,-3.05 -2.45,-3.23 l -0.406,-0.09"
         style="fill:#3a7ff9;fill-opacity:1;fill-rule:nonzero;stroke:none"
         id="path158" />
      <path
         d="m 1128.5,1183.6 -0.99,0.19 c -1.49,0.54 -2.23,2.18 -1.69,3.66 33.83,91.44 50.25,432.86 50.41,436.3 0.07,1.57 1.57,2.64 2.99,2.7 1.59,-0.06 2.81,-1.4 2.75,-2.97 -0.69,-14.08 -16.67,-345.75 -50.77,-437.99 -0.44,-1.16 -1.52,-1.89 -2.7,-1.89"
         style="fill:#3a7ff9;fill-opacity:1;fill-rule:nonzero;stroke:none"
         id="path160" />
      <path
         d="m 1263.67,1300.83 c -0.07,-1.56 -1.28,-2.72 -2.8,-2.72 h -0.18 c -1.58,0.14 -2.81,1.51 -2.68,3.12 6.44,105.92 -9.14,314.12 -15.1,372.85 2,0.27 3.83,0.67 5.67,0.94 6.7,-61.23 21.43,-270.7 15.09,-374.19"
         style="fill:#3a7ff9;fill-opacity:1;fill-rule:nonzero;stroke:none"
         id="path162" />
      <path
         d="m 1312.4,1168.36 h -0.2 c -1.59,0.06 -2.77,1.48 -2.68,3.05 5.09,70.78 11.79,247.05 10.34,256.56 -0.42,1.26 0.06,2.69 1.25,3.36 1.34,0.83 3.11,0.4 3.93,-0.94 2.98,-4.93 -5.8,-203.31 -9.79,-259.39 -0.1,-1.5 -1.36,-2.64 -2.85,-2.64"
         style="fill:#3a7ff9;fill-opacity:1;fill-rule:nonzero;stroke:none"
         id="path164" />
      <path
         d="m 1153.95,2525.86 c -22.88,14.3 -84.93,22.89 -113.58,-29.58 -28.64,-52.5 -44.866,-140.33 -56.307,-146.01 -11.442,-5.76 -52.489,-37.27 -49.606,-68.77 2.84,-31.47 38.164,-81.12 115.473,-70.62 77.31,10.5 104.02,26.74 137.42,18.15 33.41,-8.62 65.86,15.91 66.81,33.73 0.99,17.8 -27.67,26.42 -41.04,37.86 -13.34,11.44 3.82,122.18 -3.8,164.15 -7.64,42 -18.15,55.33 -33.43,60.15 -15.26,4.74 -21.94,0.94 -21.94,0.94"
         style="fill:#f3b638;fill-opacity:1;fill-rule:nonzero;stroke:none"
         id="path166" />
      <path
         d="m 1400.39,2018.19 c -5.49,-2.86 -41.02,-21.54 -60.33,-41.44 0,0 0.69,-23.04 -4.8,-47.62 l -0.3,-0.73 -0.06,-0.97 c -4,-17.07 -11.02,-34.6 -23.48,-45.58 -10.6,-10.29 -21.81,-21.46 -31.11,-27.28 -20.4,-12.68 -127.3,-81.41 -218.94,-76.41 -29.33,1.7 -51.3,6.25 -66.874,14.78 4.266,20.79 7.914,40.42 9.614,54.39 0,0 -6.704,68.66 0.91,123.99 0,0 -22.747,-29.73 -30.165,-58.24 -0.308,-1.16 -0.671,-2.24 -0.917,-3.39 0,0 -35.657,22.48 -62.383,34.89 -26.703,12.47 -50.008,15.64 -50.008,15.64 0,0 34.746,152.58 55.664,195.93 19.641,40.22 92.859,71.59 198.149,80.93 1.92,0.13 3.82,0.4 5.72,0.48 6.12,0.54 12.29,0.95 18.62,1.3 27.19,1.4 51.34,0.72 72.39,-1.38 2.01,-0.27 3.97,-0.45 5.9,-0.72 66.88,-7.87 102.54,-30.7 112.53,-44.99 13.38,-19.04 55.75,-119.6 73.38,-171.67 -1.7,-0.83 -2.68,-1.43 -3.51,-1.91"
         style="fill:#65adfa;fill-opacity:1;fill-rule:nonzero;stroke:none"
         id="path168" />
      <path
         d="m 1298.45,1753.66 c -25.67,-17.2 -58.51,-41.86 -105.69,-63.19 -16.93,-7.67 -35.66,-14.91 -56.62,-21.21 h 0.31 c 128.55,-5.2 162.03,22.48 162.03,22.48 0,0 -0.41,23.77 -0.41,51.47 0,2.73 0.14,6.3 0.38,10.45"
         style="fill:#65adfa;fill-opacity:1;fill-rule:nonzero;stroke:none"
         id="path170" />
      <path
         d="m 2501.62,1826.6 c -21.96,15.56 -28.64,48.35 -16.26,89.39 12.44,41.06 44.86,131.65 48.68,121.15 3.82,-10.47 -32.42,-210.54 -32.42,-210.54 z m 576.44,135.18 c -23.85,70.63 -97.3,206.16 -173.71,241.43 -76.35,35.38 -273.92,52.55 -352.16,30.56 -78.24,-21.94 -126.97,-83.98 -162.24,-190.87 -35.33,-106.85 -50.62,-207.09 -24.83,-248.15 36.13,-57.56 123.1,-83.98 123.1,-83.98 l -4.74,-44.88 c 0,0 69.68,-22.91 181.3,-33.41 111.68,-10.5 175.6,0 175.6,0 1.03,74.44 38.23,377.04 46.85,385.66 8.56,8.53 25.74,3.76 72.53,-73.78 46.74,-77.48 45.77,-121.91 42.92,-161.05 -2.85,-39.15 -50.56,-135.51 -50.56,-135.51 26.7,-5.76 67.74,0 67.74,0 0,0 40.06,37.18 83.03,101.13 42.97,63.86 -0.97,142.21 -24.83,212.85"
         style="fill:#458afd;fill-opacity:1;fill-rule:nonzero;stroke:none"
         id="path172" />
      <path
         d="m 1796.92,1960.54 c -3.82,7.27 -48.35,-21.99 -48.35,-21.99 0,0 54.92,42.67 48.55,52.82 -6.36,10.15 -53.64,-30.83 -53.64,-30.83 0,0 35.19,30.43 27.03,42.27 -2.54,3.72 -50.56,-31.49 -50.56,-31.49 0,0 10.67,40.25 5.72,45.31 -5.52,5.7 -31.49,-56.41 -31.49,-56.41 0,0 -90.69,-38.2 -145.42,-58.58 -54.72,-20.33 -94.81,-39.77 -111.34,12.46 -13.64,43 -32.5,93.8 -36.27,104.49 0,0 -40.09,-20.24 -61.09,-41.84 0,0 1.23,-34.35 -4.76,-47.62 l -0.4,-1.7 c -0.22,-11.23 11.66,-121.29 44.62,-153.06 34.37,-33.04 111.99,-16.51 187.07,15.32 75.06,31.82 204.9,114.53 220.14,132.33 15.27,17.82 -38.16,-6.36 -38.16,-6.36 0,0 52.18,37.59 48.35,44.88"
         style="fill:#fba6b6;fill-opacity:1;fill-rule:nonzero;stroke:none"
         id="path174" />
      <path
         d="m 1334.99,1928.4 -0.09,-0.97 0.4,1.7 z"
         style="fill:#fba6b6;fill-opacity:1;fill-rule:nonzero;stroke:none"
         id="path176" />
      <path
         d="m 2650.78,1761.63 c 0.92,5.22 16.59,64.97 26.77,64.97 10.17,0 0,-56.03 0,-56.03 0,0 52.18,-0.59 50.24,-23.56 0,0 13.46,-14.29 0.05,-22.88 0,0 12.38,-13.36 1.89,-20.06 0,0 12.81,-18.15 -13.68,-29.59 -26.44,-11.44 -77.01,10.5 -77.01,10.5 0,0 9.86,65.42 11.74,76.65"
         style="fill:#fba6b6;fill-opacity:1;fill-rule:nonzero;stroke:none"
         id="path178" />
      <path
         d="m 2952.12,1647.8 c -14.38,-13.41 -34.41,-63.95 -27.68,-68.74 6.68,-4.74 27.68,29.59 27.68,29.59 0,0 -22.35,-60.15 -14.54,-62.97 7.86,-2.86 28.86,53.41 28.86,51.04 0,-2.37 -9.58,-45.36 0,-46.3 9.53,-0.97 20.95,45.71 21.91,46.25 0.97,0.54 -12.38,-35.78 0,-34.81 12.39,0.99 31.51,85.94 31.51,85.94 h -67.74"
         style="fill:#fba6b6;fill-opacity:1;fill-rule:nonzero;stroke:none"
         id="path180" />
      <path
         d="m 1221.72,552.73 c 0,0 -3.82,-32.101 13.37,-39.289 17.17,-7.191 123.13,-3.312 125.03,6.219 1.89,9.481 -83.03,40.391 -138.4,33.07"
         style="fill:#0c3673;fill-opacity:1;fill-rule:nonzero;stroke:none"
         id="path182" />
      <path
         d="m 2812.6,2435.67 c -7.44,1.35 -15.67,5.82 -24.67,13.81 -35.32,31.53 -50.61,50.29 -83.03,45.85 -32.47,-4.47 -54.76,-33.09 -54.12,-75.73 0,0 -5.33,10.04 -15.5,13.46 -2.64,0.11 -5.55,-0.75 -8.67,-3.29 -13.95,-11.44 -6.36,-68.68 24.17,-71.26 0,0 11.42,-53.23 43.46,-72.94 6.68,-4.12 14.21,-6.76 22.72,-7.24 7,-0.33 13.84,0.53 20.63,2.37 41.03,11.3 76.46,65.56 78.61,154.51 0,0 0,0 -3.6,0.46"
         style="fill:#fba6b6;fill-opacity:1;fill-rule:nonzero;stroke:none"
         id="path184" />
      <path
         d="m 2772.64,2553.54 c -25.74,-2.88 -51.53,21 -100.21,-10.5 -48.62,-31.5 -37.15,-109.95 -37.15,-109.98 9.31,-0.38 15.5,-13.46 15.5,-13.46 -0.64,42.64 21.65,71.26 54.12,75.73 32.42,4.44 47.71,-14.32 83.03,-45.85 9,-7.99 17.23,-12.46 24.67,-13.81 21.7,-4.04 36.18,18.6 41.19,57.73 6.68,52.52 -55.35,63.02 -81.15,60.14"
         style="fill:#0b2855;fill-opacity:1;fill-rule:nonzero;stroke:none"
         id="path186" />
      <path
         d="m 2650.78,2419.6 c 0,0 -6.19,13.08 -15.5,13.46 10.17,-3.42 15.5,-13.46 15.5,-13.46"
         style="fill:#0c3673;fill-opacity:1;fill-rule:nonzero;stroke:none"
         id="path188" />
      <path
         d="m 2422.85,628.699 c -6.57,35.301 -17.94,71.27 -30.48,74.77 -2.91,0.832 -5.82,0 -8.83,-3.098 -8.83,-9.289 -5.06,-59.82 7.65,-91.652 12.76,-31.821 21.64,-57.289 34.4,-49.641 5.5,3.344 3.56,36.102 -2.74,69.621"
         style="fill:#0c3673;fill-opacity:1;fill-rule:nonzero;stroke:none"
         id="path190" />
      <path
         d="m 2589.72,543.84 -1.4,10.039 c -12.82,-10.231 -73.66,-27.301 -63.49,-44.149 10.18,-16.8 81.42,8.719 100.54,22.071 5.97,4.121 7.05,9.801 4.95,15.109 -0.7,-2.051 -1.13,-3.07 -1.13,-3.07 -12.71,-8.942 -39.47,0 -39.47,0"
         style="fill:#0c3673;fill-opacity:1;fill-rule:nonzero;stroke:none"
         id="path192" />
      <path
         d="m 2850.99,1548.58 c -0.27,2.16 -0.49,4.2 -0.75,6.22 -3.61,31.56 -7.06,58.51 -9.86,77.68 0,0 -17.39,-2.78 -49.97,-4.12 -1.94,-0.08 -3.98,-0.14 -6.03,-0.14 -26.01,-0.75 -60.53,-0.48 -102.69,2.86 -1.94,0.13 -3.82,0.27 -5.7,0.45 -3.67,0.27 -7.44,0.63 -11.21,0.95 -2.96,0.35 -5.87,0.54 -8.77,0.88 -2,0.22 -4.04,0.41 -5.93,0.62 -45.93,4.93 -83.94,11.72 -112,17.94 -1.94,0.35 -3.77,0.75 -5.6,1.15 -31.5,7.06 -49,12.82 -49,12.82 0,0 -1.19,-34.01 -2.16,-85 -0.05,-1.96 -0.16,-4.01 -0.21,-6.03 -1.56,-84.67 -2.69,-212.27 2.37,-310.73 8.24,-161.68 42.59,-344.95 42.59,-344.95 0,0 -95.9,-114.66 -133.7,-215.711 12.54,-3.5 23.91,-39.469 30.53,-74.688 l 136.29,132.68 29.13,-207.582 1.45,-10.039 c 0,0 26.71,-8.942 39.42,0 0,0 0.43,1.101 1.08,3.07 7.43,20.379 48.46,143.559 34.51,329.059 0,0 175.6,175.631 202.36,236.721 21.71,49.51 0.7,289.45 -16.15,435.89 z M 2725.9,1150.81 c -2.58,-24.18 -76.35,-95.42 -76.35,-95.42 0,0 16.53,437.78 20.35,437.78 3.82,0 19.11,-77.62 28,-128.53 8.94,-50.89 30.53,-189.65 28,-213.83"
         style="fill:#0761de;fill-opacity:1;fill-rule:nonzero;stroke:none"
         id="path194" />
      <path
         d="m 1224.25,2390.3 c -7.62,40.77 -39.44,96.74 -39.44,96.74 0,0 -39.46,-39.47 -68.71,-43.26 -29.26,-3.83 -86.52,-22.92 -71.26,-68.74 0,0 -15.26,16.56 -22.92,0 -7.62,-16.53 14.02,-68.74 44.53,-50.92 0,0 17.25,-54.11 67.19,-60.68 10.79,-1.43 23.13,-0.62 37.18,3.45 7.96,2.31 14.9,5 21,7.99 54.37,26.82 39.31,78.83 32.43,115.42"
         style="fill:#fba6b6;fill-opacity:1;fill-rule:nonzero;stroke:none"
         id="path196" />
      <path
         d="m 1401.15,2018.59 -0.76,-0.4 c -4.34,-2.29 0.76,0.4 0.76,0.4"
         style="fill:#0c3673;fill-opacity:1;fill-rule:nonzero;stroke:none"
         id="path198" />
      <path
         d="m 1167.16,1679.84 -1.39,-0.54 1.39,0.54"
         style="fill:#0c3673;fill-opacity:1;fill-rule:nonzero;stroke:none"
         id="path200" />
      <path
         d="m 1153.68,1674.96 -2.46,-0.88 2.46,0.88"
         style="fill:#0c3673;fill-opacity:1;fill-rule:nonzero;stroke:none"
         id="path202" />
      <path
         d="m 1192.76,1690.47 h -0.06 0.06"
         style="fill:#0c3673;fill-opacity:1;fill-rule:nonzero;stroke:none"
         id="path204" />
      <path
         d="m 1180.03,1684.98 -0.37,-0.22 0.37,0.22"
         style="fill:#0c3673;fill-opacity:1;fill-rule:nonzero;stroke:none"
         id="path206" />
      <path
         d="m 1038.32,1050.98 c -1.9,-7.65 -4.58,-17.8 -8.16,-30.27 -8.71,-30.069 -22.52,-73.69 -43.82,-129.421 C 943.016,777.969 848.879,546.34 848.879,546.34 c 0,0 -31.824,28.058 -36.941,30.558 -5.047,2.5 -3.821,109.454 16.558,243.071 16.867,110.472 46.727,190.381 69.492,224.841 4.43,6.71 8.629,11.74 12.36,14.92 30.101,-5.63 71.925,-9.88 127.972,-8.75"
         style="fill:#fba6b6;fill-opacity:1;fill-rule:nonzero;stroke:none"
         id="path208" />
      <path
         d="m 1303.8,1088.78 c 0,-9.61 -0.23,-20.87 -0.54,-33.39 -4.74,-153.281 -35.73,-502.66 -35.73,-502.66 h -45.81 c 0,0 -58.56,185.821 -76.37,292.711 -12.9,77.188 2.85,141.75 18.36,187.929 3.42,10.58 7,20.19 10.13,28.78 52.62,7.46 97.29,17.47 129.96,26.63"
         style="fill:#fba6b6;fill-opacity:1;fill-rule:nonzero;stroke:none"
         id="path210" />
      <path
         d="m 1192.7,1690.47 c -4.1,-1.83 -8.34,-3.74 -12.67,-5.49 4.33,1.75 8.57,3.66 12.67,5.49"
         style="fill:#fba6b6;fill-opacity:1;fill-rule:nonzero;stroke:none"
         id="path212" />
      <path
         d="m 1042.48,1821.78 -0.88,0.13 c -1.32,0.49 -32.82,10.91 -41.01,34.68 -6.781,19.66 -1.399,84.46 0.61,105.6 -8.735,-11.44 -22.899,-47.06 -24.446,-53.23 -0.418,-1.51 -1.965,-2.45 -3.488,-2.05 -1.536,0.41 -2.473,1.92 -2.071,3.45 0.133,0.62 19.977,58.45 32.985,60.9 l 2.47,-0.67 0.88,-2.45 c -0.07,-0.89 -9.077,-87.78 -1.55,-109.64 7.27,-21.08 37.07,-31.04 37.38,-31.09 1.53,-0.54 2.33,-2.1 1.82,-3.67 -0.36,-1.15 -1.48,-1.96 -2.7,-1.96"
         style="fill:#190d0e;fill-opacity:1;fill-rule:nonzero;stroke:none"
         id="path214" />
      <path
         d="m 1151.22,1674.08 c -4.91,-1.62 -9.94,-3.26 -15.08,-4.82 5.14,1.56 10.17,3.2 15.08,4.82"
         style="fill:#fba6b6;fill-opacity:1;fill-rule:nonzero;stroke:none"
         id="path216" />
      <path
         d="m 1179.66,1684.76 c -4.06,-1.69 -8.23,-3.31 -12.5,-4.92 4.27,1.61 8.44,3.23 12.5,4.92"
         style="fill:#fba6b6;fill-opacity:1;fill-rule:nonzero;stroke:none"
         id="path218" />
      <path
         d="m 1165.77,1679.3 c -3.93,-1.51 -7.98,-2.94 -12.09,-4.34 4.11,1.4 8.16,2.83 12.09,4.34"
         style="fill:#fba6b6;fill-opacity:1;fill-rule:nonzero;stroke:none"
         id="path220" />
      <path
         d="m 809.434,573.102 c -11.481,-12.383 -22.899,-31.5 0,-54.43 22.886,-22.922 100.199,-76.332 107.82,-67.742 7.644,8.609 -39.996,77.621 -65.805,101.8 -25.836,24.168 -39.484,24.168 -39.484,24.168 l -2.531,-3.796"
         style="fill:#0c3673;fill-opacity:1;fill-rule:nonzero;stroke:none"
         id="path222" />
      <path
         d="m 1055.01,1629.3 c 0,0 24.08,3.66 24.04,-5.41 -0.17,-27.98 -8.54,-209.01 -12.2,-213.83 -3.55,-4.66 -13.1,-11.09 -33.47,-7.24 0,0 17.81,189.57 21.63,226.48"
         style="fill:#3a7ff9;fill-opacity:1;fill-rule:nonzero;stroke:none"
         id="path224" />
      <path
         d="m 833.344,1656.92 c 5.949,-2.82 13.476,-5.87 22.75,-8.72 -0.875,27.22 1.523,80.05 3.418,115.53 -6.594,20.06 -9.813,42.22 -10.864,64.3 -10.203,-60.83 -14.363,-148.73 -15.304,-171.11"
         style="fill:#458afd;fill-opacity:1;fill-rule:nonzero;stroke:none"
         id="path226" />
      <path
         d="m 1042.27,1943.64 c 0.99,105.97 -1.32,249.63 -12.6,279.41 l -25.79,-7.51 c 9.78,-10.36 24.18,-121.07 16.52,-244.22 -7.11,-113.65 -10.09,-307.53 -10.5,-336.8 8.98,-0.26 16.22,-0.54 22.01,-0.8 1.18,25.38 9.49,211.37 10.36,309.92"
         style="fill:#458afd;fill-opacity:1;fill-rule:nonzero;stroke:none"
         id="path228" />
      <path
         d="m 1055.11,1628.76 c 0.23,-12.38 -21.73,-225.94 -21.73,-225.94 0,0 -119.587,-26.74 -257.036,34.35 0,0 6.879,143.02 33.656,219.7 1.32,3.8 2.68,7.38 4.133,10.82 l 0.379,0.97 c 0,0 5.586,-5.3 18.789,-11.74 5.965,-2.82 13.519,-5.87 22.75,-8.8 20.222,-6.22 48.734,-11.71 87.883,-12.25 28.781,-0.46 50.089,-0.89 65.966,-1.29 9,-0.32 16.19,-0.54 22.01,-0.95 9.08,-0.45 14.67,-1.07 18.09,-1.75 3.51,-0.67 4.67,-1.5 5.05,-2.58 l 0.06,-0.54"
         style="fill:#fc466b;fill-opacity:1;fill-rule:nonzero;stroke:none"
         id="path230" />
      <path
         d="m 1125.95,1915.66 c 0.47,-0.13 2.17,0 4.74,0.33 l 0.18,0.4 c -1.67,-0.27 -3.26,-0.46 -4.92,-0.73"
         style="fill:#458afd;fill-opacity:1;fill-rule:nonzero;stroke:none"
         id="path232" />
      <path
         d="m 1125.95,1915.66 -19.88,7.92 v -76.33 l 19.88,-6.7 c 0,0 -4.13,76.38 0,75.11"
         style="fill:#458afd;fill-opacity:1;fill-rule:nonzero;stroke:none"
         id="path234" />
      <path
         d="m 1254.19,1930.9 c 0,0 -43.28,-3.12 -101.56,-11.31 -9.51,-1.64 -17.27,-2.93 -21.94,-3.6 -2.57,-0.33 -4.27,-0.46 -4.74,-0.33 -4.13,1.27 0,-75.11 0,-75.11 64.58,17.82 128.24,17.82 128.24,17.82 0,0 6.23,71.16 0,72.53"
         style="fill:#f3b638;fill-opacity:1;fill-rule:nonzero;stroke:none"
         id="path236" />
      <path
         d="m 1227.44,1945.58 c -56.31,-4.8 -121.37,-22 -121.37,-22 l 19.88,-7.92 c 1.66,0.27 3.25,0.46 4.92,0.73 7.44,1.16 14.72,2.23 21.76,3.2 58.28,8.19 101.56,11.31 101.56,11.31 l -26.75,14.68"
         style="fill:#ffffff;fill-opacity:1;fill-rule:nonzero;stroke:none"
         id="path238" />
      <path
         d="m 1403.7,1864.72 c 3.82,10.23 -54.73,-7.59 -54.73,-7.59 0,0 47.08,22.89 44.54,30.56 -2.55,7.57 -68.71,-14.03 -64.89,-12.74 3.82,1.22 26.72,27.98 13.99,29.27 -6.88,0.67 -18.62,-10.23 -31.19,-22.37 -10.64,-10.29 -21.81,-21.46 -31.15,-27.28 -20.36,-12.73 -127.26,-81.47 -218.9,-76.33 -29.33,1.62 -51.3,6.17 -66.847,14.7 -33.046,18.15 -36.98,54.44 -19.668,120.14 -0.308,-1.16 -0.644,-2.24 -0.886,-3.39 0,0 -35.715,22.48 -62.438,34.89 -26.722,12.47 -49.945,15.64 -49.945,15.64 0,0 -16.195,-65.42 -12.938,-132.19 1.051,-22.08 4.27,-44.24 10.864,-64.3 3.152,-9.66 7.082,-18.82 11.926,-27.22 19.804,-34.06 50.324,-57.29 87.062,-70.29 48.25,-17.08 107.3,-16.59 167.45,0 3.49,0.94 6.81,2.04 10.19,3.04 5.14,1.56 10.17,3.2 15.08,4.82 l 2.46,0.88 c 4.11,1.4 8.16,2.83 12.09,4.34 l 1.39,0.54 c 4.27,1.61 8.44,3.23 12.5,4.92 l 0.37,0.22 c 4.33,1.75 8.57,3.66 12.67,5.49 h 0.06 c 47.18,21.33 80.02,45.99 105.69,63.19 8.63,5.74 16.5,10.69 23.8,14.35 38.17,19.09 64.89,25.66 67.46,38.26 2.55,12.68 -41.99,0 -41.99,0 0,0 55.98,21.54 55.98,29.19 0,7.67 -52.18,-1.27 -52.18,-1.27 0,0 48.35,20.38 52.18,30.53"
         style="fill:#fba6b6;fill-opacity:1;fill-rule:nonzero;stroke:none"
         id="path240" />
      <path
         d="m 1181.01,2156.15 c -16.69,1.83 -33.42,52.42 -42.73,88.12 -1.83,7.16 -3.46,13.73 -4.68,19.17 10.83,-1.37 23.14,-0.62 37.18,3.45 8.04,2.36 14.9,5 21,7.99 1.99,-10.58 3.59,-25.12 4.44,-40.49 1.89,-37.67 -0.98,-79.86 -15.21,-78.24"
         style="fill:#fba6b6;fill-opacity:1;fill-rule:nonzero;stroke:none"
         id="path242" />
      <path
         d="m 1196.22,2234.39 c -23.3,-5.85 -45.65,3.17 -57.94,9.88 -1.83,7.16 -3.46,13.73 -4.68,19.17 10.83,-1.37 23.14,-0.62 37.18,3.45 8.04,2.36 14.9,5 21,7.99 1.99,-10.58 3.59,-25.12 4.44,-40.49"
         style="fill:#f97792;fill-opacity:1;fill-rule:nonzero;stroke:none"
         id="path244" />
      <path
         d="m 1038.32,1050.98 c -1.9,-7.65 -4.58,-17.8 -8.16,-30.27 -62.25,1.43 -109.597,15.73 -132.172,24.1 4.43,6.71 8.629,11.74 12.36,14.92 30.101,-5.63 71.925,-9.88 127.972,-8.75"
         style="fill:#f97792;fill-opacity:1;fill-rule:nonzero;stroke:none"
         id="path246" />
      <path
         d="m 1303.8,1088.78 c 0,-9.61 -0.23,-20.87 -0.54,-33.39 -27.7,-4.87 -78.57,-13.27 -139.55,-22.02 3.42,10.58 7,20.19 10.13,28.78 52.62,7.46 97.29,17.47 129.96,26.63"
         style="fill:#f97792;fill-opacity:1;fill-rule:nonzero;stroke:none"
         id="path248" />
      <path
         d="m 2737.59,2280.7 c -1.24,-6.63 -3.45,-17.61 -6.9,-28.03 -4.9,-15.32 -12.27,-29.67 -22.61,-29 -12.44,0.68 -14.7,24.85 -14.38,45.31 0,6.09 0.27,11.85 0.59,16.59 6.63,-4.12 14.16,-6.84 22.67,-7.24 7,-0.33 13.9,0.53 20.63,2.37"
         style="fill:#fba6b6;fill-opacity:1;fill-rule:nonzero;stroke:none"
         id="path250" />
      <path
         d="m 2737.59,2280.7 c -1.24,-6.63 -3.45,-17.61 -6.9,-28.03 -13.03,1.7 -26.97,9.66 -36.99,16.31 0,6.09 0.27,11.85 0.59,16.59 6.63,-4.12 14.16,-6.84 22.67,-7.24 7,-0.33 13.9,0.53 20.63,2.37"
         style="fill:#f97792;fill-opacity:1;fill-rule:nonzero;stroke:none"
         id="path252" />
      <path
         d="m 1051.83,2335.3 c -1.12,0 -2.21,0.67 -2.65,1.75 -6.5,15.86 -19.4,22.02 -19.54,22.02 -1.45,0.67 -2.07,2.37 -1.42,3.85 0.69,1.43 2.41,2.02 3.82,1.35 0.62,-0.27 15.08,-7.11 22.46,-25.04 0.58,-1.43 -0.1,-3.12 -1.59,-3.74 l -1.08,-0.19"
         style="fill:#190d0e;fill-opacity:1;fill-rule:nonzero;stroke:none"
         id="path254" />
      <path
         d="m 1072.21,2377.89 -2.21,1.02 c -1,1.22 -0.87,3.05 0.35,4.07 1.26,1.08 31.59,26.49 61.63,11.17 1.42,-0.72 1.97,-2.45 1.25,-3.87 -0.71,-1.38 -2.43,-1.97 -3.86,-1.22 -26.65,13.57 -55.03,-10.23 -55.33,-10.41 l -1.83,-0.76"
         style="fill:#190d0e;fill-opacity:1;fill-rule:nonzero;stroke:none"
         id="path256" />
      <path
         d="m 1196.76,2327.03 h -0.24 l -31.59,2.51 c -1.55,0.13 -2.74,1.56 -2.6,3.12 0.13,1.53 1.52,2.69 3.06,2.64 l 25.99,-2.1 c -8.3,13.73 -30.79,52.74 -29.05,68.25 2.23,19.98 40.4,22.81 42.01,22.91 1.45,0.06 2.95,-1.1 3.06,-2.66 0.09,-1.59 -1.1,-2.94 -2.66,-3.05 -9.74,-0.67 -35.31,-5.19 -36.73,-17.79 -1.52,-13.84 21.98,-54.79 31.15,-69.44 0.58,-0.94 0.58,-2.1 0.04,-3.04 -0.51,-0.89 -1.46,-1.35 -2.44,-1.35"
         style="fill:#190d0e;fill-opacity:1;fill-rule:nonzero;stroke:none"
         id="path258" />
      <path
         d="m 1163.33,2300.94 c -9.78,0 -15.64,2.64 -16.01,2.78 -1.42,0.7 -2.04,2.36 -1.35,3.79 0.63,1.43 2.33,2.1 3.78,1.43 0.11,-0.05 11.66,-5.14 29.56,0.13 1.57,0.49 3.13,-0.4 3.56,-1.96 0.44,-1.48 -0.4,-3.04 -1.93,-3.53 -6.73,-2.02 -12.66,-2.64 -17.61,-2.64"
         style="fill:#190d0e;fill-opacity:1;fill-rule:nonzero;stroke:none"
         id="path260" />
      <path
         d="m 981.359,1928.4 -2.171,1 c -52.524,61.09 -108.192,66.17 -108.77,66.23 -1.563,0.13 -2.746,1.5 -2.613,3.07 0.109,1.61 1.562,2.77 3.086,2.63 2.367,-0.13 58.586,-5.35 112.66,-68.19 1.023,-1.16 0.89,-2.99 -0.293,-4.01 l -1.899,-0.73"
         style="fill:#190d0e;fill-opacity:1;fill-rule:nonzero;stroke:none"
         id="path262" />
      <path
         d="m 1230.96,2104.53 c -2.13,-48.27 -23.6,-168.22 -37.79,-170.13 h -0.67 c -8.5,0 -13.62,20.68 -24.22,80.26 -1.84,10.45 -3.65,20.52 -5.35,28.92 -6.88,34.49 -38.27,158.23 -47.57,193.5 1.92,0.13 3.82,0.4 5.72,0.48 9.79,-36.64 40.63,-158.6 47.51,-192.83 1.65,-8.45 3.42,-18.54 5.34,-28.96 4.82,-27.39 12.98,-73.02 18.77,-75.61 7.35,4.88 29.93,104.12 32.53,164.59 2.08,47.47 -9.17,111.54 -13.14,132.73 2.01,-0.27 3.97,-0.45 5.9,-0.72 4.4,-23.05 15.04,-85.41 12.97,-132.23"
         style="fill:#190d0e;fill-opacity:1;fill-rule:nonzero;stroke:none"
         id="path264" />
      <path
         d="m 1171.43,1890.87 c 0,10.5 8.57,19.03 19.1,19.03 10.57,0 19.1,-8.53 19.1,-19.03 0,-10.56 -8.53,-19.09 -19.1,-19.09 -10.53,0 -19.1,8.53 -19.1,19.09"
         style="fill:#0c3673;fill-opacity:1;fill-rule:nonzero;stroke:none"
         id="path266" />
      <path
         d="m 1159.47,1888.98 c 0,-5.98 -3.71,-10.77 -8.25,-10.77 -4.58,0 -8.26,4.79 -8.26,10.77 0,5.87 3.68,10.69 8.26,10.69 4.54,0 8.25,-4.82 8.25,-10.69"
         style="fill:#0c3673;fill-opacity:1;fill-rule:nonzero;stroke:none"
         id="path268" />
      <path
         d="m 1236.34,1898.65 c 0,-6.17 -2.97,-11.18 -6.66,-11.18 -3.69,0 -6.68,5.01 -6.68,11.18 0,6.24 2.99,11.25 6.68,11.25 3.69,0 6.66,-5.01 6.66,-11.25"
         style="fill:#0c3673;fill-opacity:1;fill-rule:nonzero;stroke:none"
         id="path270" />
      <path
         d="m 1308.27,1884.57 c -1.12,0 -2.17,0.67 -2.64,1.75 -0.61,1.37 -0.03,2.93 1.25,3.66 5.02,3.47 35.55,36.72 30.34,86.42 -0.09,1.02 0.31,1.97 1.09,2.59 1.86,1.48 46.06,36.16 61.05,41.92 1.5,0.54 3.11,-0.22 3.69,-1.7 0.58,-1.51 -0.16,-3.12 -1.65,-3.66 -12.87,-4.95 -50.97,-34.41 -58.32,-40.09 4.95,-54.52 -30.37,-89.2 -33.7,-90.63 l -1.11,-0.26"
         style="fill:#190d0e;fill-opacity:1;fill-rule:nonzero;stroke:none"
         id="path272" />
      <path
         d="m 1340.17,1977.02 c -1.56,0 -2.81,1.27 -2.88,2.83 -0.4,17.42 -12.22,35.62 -12.32,35.83 -0.89,1.35 -0.51,3.13 0.81,3.99 1.32,0.89 3.08,0.48 3.96,-0.86 0.51,-0.76 12.8,-19.79 13.31,-38.83 0.03,-1.53 -1.22,-2.91 -2.81,-2.96 h -0.07"
         style="fill:#190d0e;fill-opacity:1;fill-rule:nonzero;stroke:none"
         id="path274" />
      <path
         d="m 1336.35,1995.71 -2.17,1.02 c -1.02,1.21 -0.89,3.04 0.34,4.07 1.38,1.13 34.16,28.78 53.4,37.1 1.46,0.62 3.15,-0.06 3.8,-1.48 0.6,-1.43 -0.07,-3.13 -1.5,-3.8 -18.5,-8 -51.68,-35.97 -52.01,-36.24 l -1.86,-0.67"
         style="fill:#190d0e;fill-opacity:1;fill-rule:nonzero;stroke:none"
         id="path276" />
      <path
         d="m 1028.33,1650.92 c -1.55,0 -2.88,1.21 -2.93,2.78 -0.02,1.56 1.23,2.9 2.82,2.9 132.34,2.5 216.49,62.44 256.92,91.22 4.4,3.12 8.31,5.9 11.68,8.21 15.17,10.29 34.37,19.17 51.35,26.95 18.1,8.4 38.66,17.88 38.66,23.29 l -0.71,1.48 c -4.81,3.53 -24.86,-0.32 -37.59,-4.17 -1.48,-0.49 -3.04,0.32 -3.51,1.8 -0.51,1.51 0.23,3.07 1.68,3.61 23.51,8.72 49.69,20.57 53.75,25.61 -6.13,2.09 -34.92,-1.51 -59.74,-6.39 -1.41,-0.26 -2.77,0.54 -3.24,1.92 -0.47,1.34 0.16,2.82 1.41,3.44 24.59,12.2 50.9,26.47 59.64,32.85 -8.57,-1.02 -30.08,-6.44 -48.7,-12.06 -1.45,-0.41 -2.94,0.35 -3.48,1.69 -0.58,1.35 0.02,2.99 1.34,3.58 18.9,9.51 39.87,21.95 42.88,26.69 -5.48,1.24 -35.49,-6.14 -61.09,-14.14 -1.29,-0.35 -2.71,0.19 -3.35,1.35 -0.68,1.21 -0.41,2.72 0.64,3.58 6.4,5.49 16.63,16.34 16.76,22.21 0,0.97 -0.27,1.7 -0.87,2.23 -3.19,3.07 -24.62,-16.98 -34.92,-26.68 -10.97,-10.28 -21.34,-19.97 -29.09,-24.71 -1.35,-0.81 -3.11,-0.33 -3.92,1.02 -0.82,1.29 -0.38,3.04 0.97,3.93 7.22,4.34 17.85,14.35 28.15,23.96 22.03,20.68 35.89,33.07 42.72,26.68 1.81,-1.66 2.75,-3.98 2.68,-6.57 -0.13,-5.73 -5.27,-12.73 -10.18,-18.06 34.77,10.28 53.94,13.01 56.91,8 0.44,-0.76 0.89,-2.05 0.42,-3.67 -1.36,-4.68 -12.13,-12.06 -23.2,-18.57 19.03,4.9 29.97,6.16 32.61,3.79 0.71,-0.59 1.22,-2.1 1.12,-3.04 -0.58,-4.06 -16.63,-14.22 -47.82,-30.26 45.24,7.37 46.81,1.07 47.37,-1.24 1.23,-4.87 -8.8,-12.04 -29.86,-21.32 5.32,0.21 10.13,-0.41 12.94,-2.51 1.95,-1.43 3,-3.52 3,-6.03 0,-8.67 -14.39,-15.7 -41.98,-28.51 -16.77,-7.73 -35.76,-16.45 -50.53,-26.47 -3.35,-2.23 -7.21,-5.03 -11.58,-8.13 -40.91,-29.13 -126,-89.74 -260.13,-92.24"
         style="fill:#190d0e;fill-opacity:1;fill-rule:nonzero;stroke:none"
         id="path278" />
      <path
         d="m 1055.11,1628.76 c -10,-9.07 -43.21,-38.8 -76.122,-61.63 -45.718,-31.77 -102.175,-69.22 -113.441,-69.22 l -0.543,0.08 c -9.785,1.35 -23.906,17.13 -34.445,57.43 -6.02,23.1 -15.805,72.86 -20.559,101.45 1.32,3.8 2.68,7.38 4.133,10.82 3.527,-22.4 13.984,-80.17 21.984,-110.84 10.461,-40.25 24.004,-52.37 29.723,-53.26 4.512,-0.27 36.414,17.29 109.93,68.28 31.39,21.73 63.08,49.84 74.23,60.01 3.51,-0.67 4.67,-1.5 5.05,-2.58 l 0.06,-0.54"
         style="fill:#190d0e;fill-opacity:1;fill-rule:nonzero;stroke:none"
         id="path280" />
      <path
         d="m 968.152,1017.81 -1.898,0.72 c -0.379,0.35 -8.848,8 -11.348,17.02 -0.429,1.48 0.469,3.12 2.004,3.53 1.52,0.45 3.086,-0.49 3.516,-2.05 2.031,-7.32 9.558,-14.16 9.625,-14.22 1.183,-1.07 1.277,-2.85 0.226,-4.06 l -2.125,-0.94"
         style="fill:#190d0e;fill-opacity:1;fill-rule:nonzero;stroke:none"
         id="path282" />
      <path
         d="m 1270.07,1047.94 -1.83,0.67 -17.16,14.11 c -1.23,0.99 -1.39,2.82 -0.38,4.03 1.01,1.24 2.82,1.38 4.03,0.43 l 17.18,-14.16 c 1.21,-1.02 1.38,-2.77 0.36,-4.01 l -2.2,-1.07"
         style="fill:#190d0e;fill-opacity:1;fill-rule:nonzero;stroke:none"
         id="path284" />
      <path
         d="m 2646.96,2377.89 c -1.4,0 -2.64,1.08 -2.8,2.5 -1.18,9.62 -12.55,32.58 -12.6,32.85 -0.75,1.43 -0.16,3.12 1.24,3.8 1.4,0.75 3.12,0.13 3.88,-1.29 0.43,-0.95 11.84,-24.07 13.13,-34.6 0.22,-1.56 -0.91,-3.07 -2.47,-3.2 l -0.38,-0.06"
         style="fill:#190d0e;fill-opacity:1;fill-rule:nonzero;stroke:none"
         id="path286" />
      <path
         d="m 2722.08,2411.63 -2.05,0.83 c -16.15,16.24 -42.97,4.63 -43.24,4.5 -1.45,-0.65 -3.12,0.05 -3.77,1.51 -0.64,1.42 0,3.09 1.46,3.74 1.24,0.54 30.64,13.32 49.59,-5.68 1.13,-1.13 1.13,-2.94 0,-4.07 l -1.99,-0.83"
         style="fill:#190d0e;fill-opacity:1;fill-rule:nonzero;stroke:none"
         id="path288" />
      <path
         d="m 2752.61,2335.89 -1.51,0.49 -15.99,10.14 c -1.35,0.89 -1.78,2.64 -0.92,3.94 0.86,1.34 2.64,1.77 3.94,0.88 l 11.52,-7.32 c -0.16,15.86 -0.06,58.56 5.54,68.68 7.27,13.01 37.97,5.5 41.41,4.58 1.57,-0.4 2.48,-1.96 2.05,-3.5 -0.38,-1.56 -1.89,-2.48 -3.5,-2.07 -11.47,2.99 -31.13,5.11 -34.95,-1.78 -4.95,-8.86 -5.06,-54.33 -4.73,-71.13 0.05,-1 -0.55,-2.02 -1.46,-2.51 l -1.4,-0.4"
         style="fill:#190d0e;fill-opacity:1;fill-rule:nonzero;stroke:none"
         id="path290" />
      <path
         d="m 2707.43,2324.12 h 47.12 c 0,0 -7.65,-22.21 -23.59,-21.61 -15.88,0.61 -23.53,21.61 -23.53,21.61"
         style="fill:#ffffff;fill-opacity:1;fill-rule:nonzero;stroke:none"
         id="path292" />
      <path
         d="m 2650.78,1758.81 -0.64,0.05 c -128.91,30.29 -153.25,65.69 -164.94,82.71 l -1.94,2.69 c -0.91,1.29 -0.59,3.12 0.7,4.01 1.24,0.94 3.07,0.68 3.99,-0.67 l 1.94,-2.8 c 11.31,-16.37 34.78,-50.59 161.59,-80.31 1.51,-0.41 2.48,-1.89 2.16,-3.45 -0.38,-1.37 -1.51,-2.23 -2.86,-2.23"
         style="fill:#190d0e;fill-opacity:1;fill-rule:nonzero;stroke:none"
         id="path294" />
      <path
         d="m 2639.04,1682.13 h -0.16 c -1.5,0.08 -149.05,8.26 -226.1,62.03 -1.3,0.97 -1.62,2.72 -0.7,4.01 0.91,1.29 2.69,1.61 3.98,0.76 75.71,-52.91 221.64,-60.96 223.15,-61.04 1.56,-0.14 2.74,-1.48 2.69,-3.05 -0.05,-1.48 -1.35,-2.71 -2.86,-2.71"
         style="fill:#190d0e;fill-opacity:1;fill-rule:nonzero;stroke:none"
         id="path296" />
      <path
         d="m 2538.08,1651.92 v -0.27 c -0.91,-3.04 -21,-68.47 -56.97,-76.79 0.05,2.02 0.16,4.07 0.21,6.03 30.91,8.81 49.87,67.85 51.16,72.18 1.83,-0.4 3.66,-0.8 5.6,-1.15"
         style="fill:#190d0e;fill-opacity:1;fill-rule:nonzero;stroke:none"
         id="path298" />
      <path
         d="m 2850.99,1548.58 c -17.34,3.8 -33.12,21.68 -44.32,38.05 -8.02,11.66 -17.55,29.13 -22.29,41.59 2.05,0 4.09,0.06 6.03,0.14 6.78,-16.8 23.21,-47.06 42.76,-63.68 5.97,-5 11.63,-8.32 17.07,-9.88 0.26,-2.02 0.48,-4.06 0.75,-6.22"
         style="fill:#190d0e;fill-opacity:1;fill-rule:nonzero;stroke:none"
         id="path300" />
      <path
         d="M 2681.69,1631.08 V 1567 c 0,-1.62 -1.34,-2.91 -2.91,-2.91 h -15.29 c -1.34,0 -2.58,1.08 -2.8,2.42 l -10.61,67.47 c 1.89,-0.21 3.93,-0.4 5.93,-0.62 l 9.96,-63.51 h 10.02 v 61.68 c 1.88,-0.18 3.76,-0.32 5.7,-0.45"
         style="fill:#190d0e;fill-opacity:1;fill-rule:nonzero;stroke:none"
         id="path302" />
      <path
         d="m 1136.14,2369.98 c 0,-4.29 -3.44,-7.73 -7.75,-7.73 -4.27,0 -7.71,3.44 -7.71,7.73 0,4.25 3.44,7.7 7.71,7.7 4.31,0 7.75,-3.45 7.75,-7.7"
         style="fill:#190d0e;fill-opacity:1;fill-rule:nonzero;stroke:none"
         id="path304" />
      <path
         d="m 1209.63,2388.44 c 0,-4.25 -3.46,-7.7 -7.75,-7.7 -4.27,0 -7.73,3.45 -7.73,7.7 0,4.29 3.46,7.73 7.73,7.73 4.29,0 7.75,-3.44 7.75,-7.73"
         style="fill:#190d0e;fill-opacity:1;fill-rule:nonzero;stroke:none"
         id="path306" />
      <path
         d="m 2696.34,2394.29 c 0,-3.99 -3.23,-7.19 -7.22,-7.19 -3.93,0 -7.1,3.2 -7.1,7.19 0,3.93 3.17,7.16 7.1,7.16 3.99,0 7.22,-3.23 7.22,-7.16"
         style="fill:#190d0e;fill-opacity:1;fill-rule:nonzero;stroke:none"
         id="path308" />
      <path
         d="m 2776.46,2393.45 c 0,-3.5 -2.9,-6.35 -6.4,-6.35 -3.5,0 -6.36,2.85 -6.36,6.35 0,3.53 2.86,6.38 6.36,6.38 3.5,0 6.4,-2.85 6.4,-6.38"
         style="fill:#190d0e;fill-opacity:1;fill-rule:nonzero;stroke:none"
         id="path310" />
      <path
         d="m 2497.59,879.852 -1.78,0.589 c -1.24,0.969 -1.51,2.77 -0.54,4.008 14.22,18.641 119.65,145.421 162.73,183.331 1.18,1.08 2.96,0.94 4.04,-0.27 1.02,-1.16 0.91,-2.99 -0.27,-3.99 -42.81,-37.72 -147.76,-164.04 -161.92,-182.54 l -2.26,-1.128"
         style="fill:#190d0e;fill-opacity:1;fill-rule:nonzero;stroke:none"
         id="path312" />
      <path
         d="m 2526.13,725.23 -4.15,3.981 c 0,0 129.83,136.527 167.03,175.539 1.14,1.16 2.97,1.16 4.04,0.082 1.19,-1.07 1.19,-2.902 0.11,-4.062 -37.26,-38.93 -167.03,-175.54 -167.03,-175.54"
         style="fill:#190d0e;fill-opacity:1;fill-rule:nonzero;stroke:none"
         id="path314" />
      <path
         d="m 1502.31,3104.27 -36.27,784.53 h 87.81 l 13.37,-784.53 h -64.91"
         style="fill:#ffffff;fill-opacity:1;fill-rule:nonzero;stroke:none"
         id="path316" />
      <path
         d="m 1622.59,3104.27 -11.48,784.53 h 74.47 l 7.62,-784.53 h -70.61"
         style="fill:#ffffff;fill-opacity:1;fill-rule:nonzero;stroke:none"
         id="path318" />
      <path
         d="m 1842.1,3888.8 -8.94,-407.97 -28.38,-376.56 h -44.77 v 784.53 h 82.09"
         style="fill:#ffffff;fill-opacity:1;fill-rule:nonzero;stroke:none"
         id="path320" />
      <path
         d="m 1363.23,3268.91 c -2.03,2.5 -4.58,4.39 -7.62,5.65 -3.04,1.29 -6.39,1.89 -10.05,1.83 -4.78,-0.1 -9.19,-0.59 -13.14,-1.45 -3.96,-0.86 -6.98,-1.91 -9.05,-3.15 -1.9,-1.18 -3.55,-2.42 -4.87,-3.64 -1.36,-1.18 -2.26,-2.15 -2.71,-3.01 l -0.51,-1.24 0.11,-5.57 c 13.7,0.83 30.95,1.37 51.73,1.78 -0.56,3.36 -1.85,6.35 -3.89,8.8 z m -59.19,-6.92 c -1.18,1.16 -2.75,2.18 -4.64,3.04 -3.02,1.51 -6.6,2.86 -10.74,4.15 -2.07,0.64 -3.48,1.16 -4.3,1.48 l -5.59,-0.13 c -2.03,-0.03 -4.05,-0.63 -6.12,-1.7 -2.06,-1.16 -3.76,-2.56 -5.08,-4.34 -1.29,-1.75 -1.94,-3.55 -1.9,-5.41 0.03,-1.48 1.66,-2.18 4.92,-2.12 5.07,0.1 11.17,0.29 18.28,0.64 7.11,0.33 12.94,0.57 17.43,0.67 -0.3,1.3 -1.08,2.53 -2.26,3.72 z m 67.55,-11.23 c -3.31,-0.08 -9.72,-0.08 -19.22,0 -9.52,0.06 -15.93,0.06 -19.21,0 -7.98,-0.13 -18.55,-0.56 -31.69,-1.15 -13.18,-0.63 -23.75,-1 -31.7,-1.14 l -0.92,-0.02 c -1.52,0 -2.84,0 -3.89,0.08 -1.08,0.08 -2.26,0.3 -3.6,0.59 -1.38,0.32 -2.46,0.89 -3.24,1.7 -0.78,0.89 -1.18,1.96 -1.18,3.28 -0.11,4.87 0.87,9.1 2.97,12.71 2.1,3.58 5.05,6.35 8.87,8.32 3.84,1.97 8.27,2.99 13.28,3.1 3.12,0.02 6.4,-0.46 9.85,-1.54 3.42,-1.08 6.64,-2.58 9.56,-4.39 2.95,-1.91 5.25,-3.98 6.91,-6.24 3.95,6.16 9.13,10.71 15.54,13.67 6.4,2.99 13.41,4.58 21.1,4.74 3.75,0.08 8.25,-1.08 13.54,-3.42 3.18,-1.45 5.92,-3.15 8.27,-5.03 2.33,-1.86 4.26,-4.23 5.85,-7.11 1.7,-3.12 2.57,-6.51 2.64,-10.18 v -0.59 c 0.11,-4.87 -1.14,-7.32 -3.73,-7.38"
         style="fill:#ffffff;fill-opacity:1;fill-rule:nonzero;stroke:none"
         id="path322" />
      <path
         d="m 1362.36,3341.98 c -3.49,1.21 -7.8,2.07 -12.91,2.58 -5.12,0.49 -10.64,0.87 -16.52,1.14 -3.64,0.13 -7.08,0.13 -10.37,0.08 -4.67,-0.08 -9.47,-0.24 -14.39,-0.49 -5.56,-0.38 -12.56,-1.1 -21.02,-2.23 -6.95,-1.03 -13.25,-2.69 -18.97,-5.01 -2.68,-1.16 -4.71,-2.5 -6.1,-4.07 -1.39,-1.56 -2.06,-3.25 -2.03,-5.11 0.04,-2.42 2.14,-4.34 6.2,-5.66 4.67,-1.48 9.34,-2.42 14.08,-2.77 6.26,-0.54 11.55,-0.81 15.82,-0.83 l 2.88,-0.06 c 4.88,0 7.62,0 8.16,0 h 0.71 c 6.91,0.14 15.45,1.03 25.64,2.59 6.63,1.02 12.39,2.1 17.23,3.31 4.84,1.29 8.93,2.85 12.26,4.74 3.59,1.96 5.35,4.2 5.28,6.57 -0.03,2.1 -2.04,3.82 -5.95,5.22 z m 11.84,-13.08 c -1.83,-2.4 -4.33,-4.39 -7.44,-6.01 -2.88,-1.56 -6.37,-2.96 -10.5,-4.2 -4.18,-1.26 -8.29,-2.23 -12.47,-2.99 -3.66,-0.67 -7.64,-1.26 -11.98,-1.69 -4.33,-0.49 -8.17,-0.81 -11.52,-1.03 -3.85,-0.18 -6.6,-0.29 -8.23,-0.32 -2.84,-0.08 -5.65,-0.13 -8.4,-0.24 l -9.81,-0.35 c -6.21,-0.08 -11.75,0.05 -16.63,0.46 -5.49,0.4 -10.43,1.34 -14.76,2.9 -2.28,0.81 -4.14,1.76 -5.59,2.86 -1.45,1.08 -2.68,2.5 -3.62,4.12 -0.92,1.72 -1.36,3.58 -1.43,5.54 -0.03,2.72 0.47,5.15 1.56,7.46 1.05,2.24 2.64,4.18 4.74,5.76 2.33,1.75 4.78,3.21 7.31,4.45 2.57,1.21 5.56,2.18 8.87,2.98 4,0.89 7.56,1.57 10.64,2.1 3.08,0.51 6.54,0.89 10.36,1.11 7.65,0.54 14.6,0.83 20.79,0.94 l 8.98,0.19 c 2.3,0.05 5.63,-0.13 10.03,-0.49 4.29,-0.37 7.57,-0.56 9.74,-0.51 h 0.68 c 2.81,-0.62 6.27,-0.86 10.34,-0.78 2.86,0.05 5.88,-0.51 9.03,-1.67 3.12,-1.16 5.83,-2.82 8.17,-5.09 2.46,-2.28 3.76,-4.87 3.78,-7.78 0.07,-2.77 -0.81,-5.3 -2.64,-7.72"
         style="fill:#ffffff;fill-opacity:1;fill-rule:nonzero;stroke:none"
         id="path324" />
      <path
         d="m 1336.95,3413.22 c -2.23,-0.19 -7.88,-0.81 -16.96,-1.88 -24.04,-2.88 -38.41,-4.34 -43.07,-4.44 l -1.36,0.02 c 1.02,-0.97 5.75,-2.29 14.18,-3.98 8.4,-1.62 17.45,-3.18 27.1,-4.58 9.68,-1.37 16.05,-2.13 19.17,-2.21 1.08,4.42 1.55,9.07 1.46,13.89 0,0.95 -0.18,1.97 -0.52,3.18 z m 33.05,1.97 c -0.58,-0.79 -1.62,-1.19 -3.08,-1.22 l -20.36,-0.4 c -0.93,-1.35 -1.74,-3.93 -2.39,-7.62 -0.69,-3.69 -1.09,-7.24 -1.22,-10.66 1.76,-1 4.4,-1.78 7.99,-2.45 l 2.37,-0.4 c 4.16,-0.76 7.55,-1.43 10.16,-2.02 2.6,-0.62 4.7,-1.38 6.3,-2.32 0.07,-3.98 -0.91,-6.3 -2.99,-6.92 -1.38,1 -6.3,2.18 -14.72,3.61 -7.18,1.21 -16.74,2.77 -28.69,4.52 -13.85,2.1 -25.52,4.01 -34.97,5.77 -9.45,1.77 -17.45,3.63 -23.95,5.62 -7.25,2.24 -10.91,4.44 -10.93,6.68 -0.07,2.23 0.36,3.88 1.25,5.03 3.86,0.08 13.88,1.29 30.07,3.67 16.16,2.28 26.82,3.52 31.93,3.66 4.88,0.05 12.77,0.81 23.6,2.1 11.15,1.29 19.54,1.99 25.14,2.1 3.48,0.05 5.27,-1.64 5.34,-5.09 0.04,-1.7 -0.24,-2.91 -0.85,-3.66"
         style="fill:#ffffff;fill-opacity:1;fill-rule:nonzero;stroke:none"
         id="path326" />
      <path
         d="m 1291.41,3470.03 -13.55,2.15 c -0.91,0.11 -1.59,0.14 -2.02,0.11 -3.13,-0.05 -6.61,-0.72 -10.5,-2.04 -1.87,-0.6 -3.42,-1.43 -4.67,-2.4 -1.26,-0.97 -1.97,-1.99 -2.17,-3.04 2.53,0.02 7.75,0.02 15.64,-0.11 7.07,-0.13 12.45,-0.22 16.22,-0.13 2.64,0.08 5.04,0.13 7.18,0.29 -1.76,1.8 -3.8,3.5 -6.13,5.17 z m 75.71,12.01 h -0.54 c -5.41,-0.41 -11.51,-1.46 -18.28,-3.18 -6.74,-1.77 -14.9,-4.2 -24.46,-7.38 -8.65,-2.93 -15.09,-4.95 -19.29,-6.11 l 61.5,1.21 c 1.69,0 2.94,-0.27 3.75,-0.86 0.81,-0.62 1.25,-1.72 1.29,-3.39 0,-1.19 -0.37,-2.13 -1.22,-2.91 -0.81,-0.75 -1.83,-1.13 -3.04,-1.15 h -1.23 c -12.47,-0.27 -27.73,-0.49 -45.81,-0.62 -18.09,-0.14 -33.33,-0.33 -45.76,-0.57 l -19.19,-0.38 c -1.25,0 -2.14,0.25 -2.64,0.76 -0.51,0.54 -0.76,1.61 -0.78,3.31 -0.07,2.53 0.4,4.95 1.39,7.19 0.98,2.21 2.34,4.12 4.06,5.76 1.72,1.48 3.69,2.77 5.92,3.88 2.24,1.13 4.58,1.93 7.02,2.5 2.3,0.51 4.7,0.78 7.14,0.86 2.27,0 5.21,-0.27 8.77,-0.91 1.86,-0.35 4.74,-1.19 8.73,-2.61 l 4.54,-1.7 4.09,-1.56 c 3.77,0.13 8.47,0.86 14.19,2.18 5.74,1.26 10.99,2.77 15.79,4.36 4.43,1.45 10.09,3.42 16.96,5.9 l 13.72,4.84 h 0.37 l 2.3,-0.08 2.14,-0.27 c 1.72,-0.35 2.61,-1.45 2.64,-3.31 0.04,-1.96 -1.32,-3.88 -4.07,-5.76"
         style="fill:#ffffff;fill-opacity:1;fill-rule:nonzero;stroke:none"
         id="path328" />
      <path
         d="m 1349.38,3541.3 c -4.54,2.85 -9.61,5 -15.17,6.46 -10.33,2.69 -20.63,3.9 -30.95,3.69 -5.7,-0.13 -11.82,-0.73 -18.32,-1.97 -6.4,-1.24 -12.23,-3.77 -17.48,-7.56 -2.46,-1.78 -4.33,-4.07 -5.65,-6.84 -1.32,-2.83 -1.97,-5.9 -1.9,-9.37 l 0.18,0.05 c 9.74,0.17 23.86,1.08 42.39,2.75 18.9,1.54 33.09,2.42 42.67,2.64 l 14.93,0.27 c -2.57,3.79 -6.12,7.08 -10.7,9.88 z m 18.52,-18.39 c -0.91,-1.51 -2.19,-2.29 -3.89,-2.34 -2.43,2.23 -8.57,3.28 -18.43,3.12 -6.08,-0.14 -14.68,-0.81 -25.79,-1.97 -11.11,-1.18 -19.68,-1.83 -25.67,-1.96 -1.83,0 -4.65,0 -8.47,0.08 -3.82,0.05 -6.68,0.08 -8.63,0.05 -2.88,-0.05 -6.57,-0.67 -11.08,-1.88 -4.78,-1.27 -8.02,-1.91 -9.79,-1.94 -3.62,-0.05 -5.52,3.9 -5.65,11.85 l -0.07,2.37 c -0.03,2.87 0.38,5.62 1.26,8.16 0.91,2.5 2.12,4.73 3.66,6.64 1.38,1.7 3.21,3.32 5.45,4.82 2.24,1.48 4.54,2.78 6.97,3.82 2.1,0.92 4.61,1.73 7.45,2.46 2.85,0.75 5.52,1.37 8.02,1.8 2.03,0.3 4.4,0.56 7.12,0.81 2.71,0.27 4.94,0.45 6.73,0.51 l 4.96,0.14 7.24,0.13 1.39,-0.4 1.79,0.27 1.52,0.21 c 3.36,0.05 7.35,-0.38 11.92,-1.29 4.61,-0.94 9.35,-2.32 14.26,-4.07 5.48,-2.1 10.3,-4.36 14.43,-6.84 4.16,-2.45 7.56,-5.27 10.19,-8.45 2.89,-3.45 4.34,-7 4.4,-10.72 0.03,-2.07 -0.37,-3.85 -1.29,-5.38"
         style="fill:#ffffff;fill-opacity:1;fill-rule:nonzero;stroke:none"
         id="path330" />
      <path
         d="m 1362.69,3592.24 c -2.47,-0.06 -3.75,1.51 -3.79,4.65 l 0.04,1.84 0.09,1.42 -0.81,1.75 c -0.55,0.35 -1.49,0.49 -2.88,0.49 -8.42,-0.16 -20.44,-0.89 -36.1,-2.16 -15.58,-1.26 -27.6,-1.96 -36.03,-2.15 h -7.99 -7.92 c -3.12,-0.03 -6,-0.22 -8.71,-0.54 0.52,-1.34 0.74,-2.56 0.78,-3.6 0.04,-2.46 -1.18,-3.72 -3.69,-3.75 -1.22,-0.05 -2.3,0.67 -3.28,2.21 -0.96,1.54 -1.7,3.5 -2.21,5.92 -0.85,4.2 -1.28,7.86 -1.34,11.01 -0.05,1.22 0.36,2.3 1.21,3.21 0.82,0.97 1.8,1.42 2.98,1.42 1.12,0.09 2.11,-0.26 2.94,-0.94 0.85,-0.67 1.29,-1.56 1.33,-2.61 l -0.06,-1.51 0.02,-1.24 c 0,-1.07 0.27,-1.82 0.71,-2.28 0.48,-0.41 1.33,-0.65 2.55,-0.62 10.55,0.21 25.77,1.13 45.61,2.77 19.84,1.67 35.04,2.59 45.61,2.77 l 6.03,0.14 c -0.18,1.05 -0.27,2.15 -0.31,3.2 -0.07,4.34 1.74,6.52 5.39,6.6 h 0.91 l 2.75,-3.82 0.24,-4.15 c 0.2,-2.48 0.29,-4.61 0.34,-6.46 0.16,-8.97 -1.3,-13.52 -4.41,-13.57"
         style="fill:#ffffff;fill-opacity:1;fill-rule:nonzero;stroke:none"
         id="path332" />
      <path
         d="m 1336.04,3677.72 c -22.42,-7.05 -45.31,-13.81 -68.67,-20.14 l 51.19,1 c 4.99,0.08 12.4,0.64 22.26,1.59 10.19,0.86 17.61,1.37 22.21,1.48 0.94,0 1.72,-0.54 2.41,-1.7 0.67,-1.16 1.04,-2.37 1.08,-3.74 0.04,-2.29 -0.74,-3.42 -2.37,-3.5 -0.41,0 -1.97,0.11 -4.67,0.29 -2.71,0.22 -4.88,0.33 -6.57,0.25 -5.79,-0.05 -14.53,-0.6 -26.19,-1.48 -11.68,-0.89 -19.06,-1.35 -22.17,-1.4 l -19.88,-0.38 c -3.66,-0.05 -8.43,0 -14.37,0.24 -5.88,0.24 -10.66,0.32 -14.32,0.24 H 1255 c -5.17,-0.1 -7.82,1.03 -7.85,3.29 -0.04,1.42 2.19,3.23 6.66,5.38 7.49,3.59 20.8,8.19 40,13.82 10.97,3.15 25.4,6.97 43.25,11.52 l 10.76,2.64 0.78,0.13 c -7.38,-0.13 -16.45,-0.21 -27.22,-0.21 -10.77,0 -19.85,-0.06 -27.2,-0.19 l -46.18,-0.89 c -2.61,0.54 -3.97,2.24 -4,5.01 -0.07,2.77 1.92,4.25 6.03,4.3 l 0.92,0.03 c 1.25,-0.59 2.8,-0.86 4.56,-0.8 6.3,0.1 15.92,0.13 28.82,0.07 12.05,-0.13 21.7,-0.1 28.89,0.03 l 47.71,0.92 c 1.63,0.02 3.22,-0.38 4.74,-1.21 1.49,-0.89 2.27,-1.92 2.3,-3.13 0.04,-2.23 -10.59,-6.7 -31.93,-13.46"
         style="fill:#ffffff;fill-opacity:1;fill-rule:nonzero;stroke:none"
         id="path334" />
      <path
         d="m 1367.3,3750.36 c -0.89,-2.42 -2.1,-4.6 -3.69,-6.46 -1.36,-1.64 -3.15,-3.2 -5.45,-4.66 -2.28,-1.48 -4.72,-2.74 -7.29,-3.85 -2.14,-0.86 -4.71,-1.67 -7.75,-2.37 -3.08,-0.67 -6.03,-1.23 -8.87,-1.64 -2.37,-0.38 -5.23,-0.67 -8.47,-0.99 -3.28,-0.28 -5.96,-0.44 -8.02,-0.46 -1.32,-0.09 -3.69,-0.19 -7.06,-0.22 l -5.3,-0.13 c -1.74,-0.06 -3.8,-0.14 -6.17,-0.19 -4.98,-0.08 -10.36,0 -16.08,0.21 -5.45,0.24 -10.91,1 -16.4,2.21 -2.84,0.67 -5.34,1.43 -7.55,2.26 -2.17,0.86 -4.27,1.94 -6.26,3.29 -2.06,1.32 -3.8,2.82 -5.14,4.47 -1.39,1.64 -2.51,3.6 -3.36,5.89 -0.82,2.19 -1.25,4.61 -1.29,7.33 -0.09,4.33 1.36,6.54 4.27,6.57 1.09,0.02 1.96,-0.35 2.68,-1.16 0.71,-0.81 1.05,-1.75 1.08,-2.88 0,-0.33 -0.1,-1.08 -0.34,-2.18 -0.24,-1.16 -0.34,-1.92 -0.34,-2.32 0.03,-1.94 0.68,-3.66 1.9,-5.22 1.21,-1.56 2.97,-2.83 5.28,-3.85 2.57,-1.16 5.15,-2.08 7.75,-2.86 2.61,-0.72 5.56,-1.29 8.8,-1.61 4.2,-0.54 7.6,-0.94 10.26,-1.16 2.66,-0.24 5.56,-0.38 8.78,-0.4 4.71,-0.14 9.65,-0.14 14.77,0 l 4.27,0.08 c 1.45,-0.06 3.24,0 5.41,0 3.19,0.05 5.85,0.16 8.09,0.27 2.23,0.13 4.77,0.35 7.62,0.72 3.15,0.35 5.89,0.81 8.3,1.43 2.4,0.57 4.83,1.35 7.24,2.32 2.55,0.94 4.58,2.09 6.2,3.44 1.6,1.35 2.88,3.05 3.86,4.98 1.02,1.94 1.52,4.1 1.5,6.49 -0.11,4.66 -2.37,8.43 -6.82,11.39 -3.44,-0.1 -6.94,-0.43 -10.49,-0.91 -3.56,-0.52 -5.96,-1.16 -7.28,-1.94 l 0.37,-2.43 c 0.2,-1.43 0.34,-2.63 0.37,-3.66 0.07,-3.55 -1.38,-5.38 -4.33,-5.41 -0.96,-0.05 -1.83,0.51 -2.57,1.51 -0.76,1.08 -1.32,2.45 -1.74,4.14 -0.7,3.05 -1.07,5.6 -1.14,7.71 -0.04,2.09 0.74,3.74 2.26,4.95 1.56,1.21 3.53,1.83 5.94,1.86 3.11,0.05 7.75,0.67 13.92,1.85 6.32,1.16 10.93,1.78 13.84,1.81 1.22,0.03 2.23,-0.3 3.05,-0.97 0.85,-0.73 1.25,-1.65 1.28,-2.75 0.04,-2.64 -1.01,-4.41 -3.18,-5.25 0.13,-0.48 0.61,-1.59 1.66,-3.39 1.02,-1.72 1.72,-3.18 2.17,-4.39 0.4,-1.24 0.64,-2.45 0.67,-3.66 0.04,-2.77 -0.36,-5.38 -1.21,-7.81"
         style="fill:#ffffff;fill-opacity:1;fill-rule:nonzero;stroke:none"
         id="path336" />
      <path
         d="m 2009.04,3281.24 c -1.79,2.64 -4.13,4.74 -7.04,6.3 -2.92,1.62 -6.21,2.5 -9.85,2.77 -4.78,0.36 -9.19,0.33 -13.21,-0.13 -4.04,-0.51 -7.15,-1.29 -9.31,-2.34 -2,-1.05 -3.74,-2.08 -5.19,-3.15 -1.45,-1.03 -2.48,-1.97 -2.97,-2.72 l -0.62,-1.21 -0.43,-5.55 c 13.71,-0.51 30.94,-1.56 51.66,-3.12 -0.23,3.41 -1.25,6.46 -3.04,9.15 z m -59.57,-1.35 c -1.08,1.3 -2.53,2.48 -4.33,3.5 -2.88,1.76 -6.3,3.45 -10.33,5.15 -1.96,0.8 -3.35,1.42 -4.13,1.85 l -5.55,0.46 c -2.03,0.14 -4.1,-0.27 -6.27,-1.16 -2.17,-0.91 -3.96,-2.15 -5.45,-3.79 -1.46,-1.62 -2.26,-3.39 -2.44,-5.25 -0.09,-1.46 1.49,-2.34 4.71,-2.56 5.08,-0.38 11.18,-0.75 18.28,-1.1 7.11,-0.3 12.92,-0.65 17.41,-1 -0.2,1.32 -0.85,2.67 -1.9,3.9 z m 66.18,-17.55 c -3.32,0.24 -9.69,0.86 -19.14,1.83 -9.45,0.94 -15.85,1.56 -19.13,1.83 -7.96,0.59 -18.53,1.21 -31.66,1.86 -13.14,0.64 -23.71,1.24 -31.67,1.86 l -0.91,0.05 c -1.52,0.13 -2.82,0.27 -3.87,0.46 -1.05,0.16 -2.23,0.51 -3.51,0.97 -1.36,0.4 -2.37,1.05 -3.05,1.96 -0.71,0.95 -1.01,2.05 -0.92,3.39 0.38,4.85 1.76,8.97 4.2,12.34 2.44,3.39 5.63,5.89 9.63,7.43 3.99,1.64 8.49,2.21 13.5,1.83 3.08,-0.22 6.3,-1.05 9.65,-2.43 3.32,-1.42 6.37,-3.17 9.11,-5.33 2.75,-2.12 4.85,-4.41 6.3,-6.78 4.5,5.68 10.1,9.75 16.74,12.11 6.66,2.38 13.81,3.26 21.46,2.7 3.77,-0.3 8.13,-1.86 13.17,-4.66 3.02,-1.75 5.59,-3.69 7.76,-5.79 2.13,-2.13 3.82,-4.63 5.14,-7.64 1.39,-3.29 1.94,-6.76 1.67,-10.43 l -0.04,-0.59 c -0.38,-4.84 -1.86,-7.19 -4.43,-6.97"
         style="fill:#ffffff;fill-opacity:1;fill-rule:nonzero;stroke:none"
         id="path338" />
      <path
         d="m 2015.1,3354.04 c -3.35,1.51 -7.55,2.78 -12.59,3.8 -5.05,0.97 -10.5,1.88 -16.35,2.67 -3.6,0.51 -7.02,0.83 -10.34,1.1 -4.63,0.35 -9.45,0.62 -14.35,0.86 -5.56,0.16 -12.61,0.11 -21.14,-0.24 -7.01,-0.33 -13.45,-1.43 -19.37,-3.18 -2.75,-0.89 -4.91,-2.05 -6.44,-3.45 -1.52,-1.48 -2.36,-3.09 -2.5,-4.92 -0.2,-2.43 1.7,-4.5 5.63,-6.22 4.49,-1.94 9.1,-3.29 13.74,-4.09 6.19,-1.16 11.42,-1.92 15.69,-2.35 l 2.86,-0.32 c 4.85,-0.46 7.55,-0.73 8.11,-0.73 l 0.7,-0.08 c 6.88,-0.54 15.48,-0.46 25.78,0.11 6.7,0.38 12.53,0.91 17.47,1.72 4.94,0.76 9.17,1.92 12.67,3.5 3.71,1.64 5.68,3.69 5.85,6.06 0.16,2.1 -1.62,3.99 -5.42,5.76 z m 10.54,-14.16 c -2.07,-2.21 -4.71,-3.98 -7.97,-5.28 -3,-1.29 -6.64,-2.31 -10.86,-3.17 -4.23,-0.87 -8.47,-1.43 -12.7,-1.78 -3.66,-0.32 -7.72,-0.54 -12.06,-0.59 -4.36,-0.08 -8.23,0 -11.58,0.05 -3.86,0.22 -6.61,0.38 -8.22,0.49 -2.86,0.21 -5.63,0.4 -8.38,0.56 l -9.81,0.57 c -6.16,0.48 -11.68,1.16 -16.49,2.04 -5.45,0.92 -10.26,2.37 -14.43,4.31 -2.17,1.05 -3.96,2.13 -5.32,3.37 -1.35,1.23 -2.44,2.71 -3.22,4.44 -0.71,1.8 -1.01,3.66 -0.85,5.65 0.21,2.7 0.96,5.12 2.21,7.24 1.32,2.16 3.04,3.91 5.32,5.34 2.46,1.48 5.01,2.74 7.69,3.71 2.68,0.94 5.72,1.7 9.1,2.1 4.06,0.54 7.66,0.89 10.81,1.13 3.11,0.22 6.57,0.27 10.39,0.08 7.69,-0.19 14.59,-0.54 20.8,-0.99 l 8.96,-0.68 c 2.28,-0.18 5.59,-0.64 9.9,-1.42 4.26,-0.84 7.51,-1.29 9.68,-1.43 l 0.68,-0.08 c 2.74,-0.86 6.13,-1.46 10.2,-1.75 2.88,-0.22 5.81,-1.08 8.83,-2.5 2.98,-1.46 5.55,-3.4 7.66,-5.87 2.26,-2.53 3.28,-5.2 3.04,-8.08 -0.2,-2.78 -1.32,-5.22 -3.38,-7.46"
         style="fill:#ffffff;fill-opacity:1;fill-rule:nonzero;stroke:none"
         id="path340" />
      <path
         d="m 1996.57,3427.38 c -2.26,0 -7.95,-0.11 -17.09,-0.35 -24.18,-0.54 -38.61,-0.62 -43.28,-0.27 l -1.35,0.14 c 0.94,-1.08 5.52,-2.83 13.75,-5.28 8.19,-2.48 17.07,-4.84 26.55,-7.13 9.47,-2.32 15.74,-3.64 18.83,-4.04 1.52,4.33 2.43,8.88 2.8,13.68 0.07,0.94 0,2.04 -0.21,3.25 z m 33.09,-1.21 c -0.67,-0.73 -1.76,-1.02 -3.21,-0.89 l -20.29,1.54 c -1.08,-1.32 -2.1,-3.77 -3.11,-7.35 -1.02,-3.66 -1.76,-7.16 -2.23,-10.5 1.65,-1.16 4.22,-2.24 7.71,-3.18 l 2.34,-0.7 c 4.09,-1.1 7.38,-2.1 9.92,-2.93 2.55,-0.84 4.57,-1.84 6.06,-2.91 -0.29,-4.04 -1.52,-6.2 -3.62,-6.6 -1.32,1.1 -6.06,2.78 -14.32,4.96 -7.04,1.93 -16.43,4.33 -28.11,7.29 -13.61,3.34 -25.03,6.36 -34.3,8.99 -9.25,2.67 -17.01,5.31 -23.31,7.87 -6.99,2.88 -10.43,5.41 -10.25,7.64 0.17,2.24 0.74,3.91 1.76,4.96 3.82,-0.3 13.92,-0.06 30.23,0.75 16.33,0.81 27.06,1 32.18,0.59 4.84,-0.32 12.73,-0.4 23.66,-0.08 11.25,0.22 19.65,0.08 25.21,-0.32 3.51,-0.27 5.11,-2.1 4.87,-5.55 -0.13,-1.7 -0.54,-2.88 -1.19,-3.58"
         style="fill:#ffffff;fill-opacity:1;fill-rule:nonzero;stroke:none"
         id="path342" />
      <path
         d="m 1956.58,3488.2 -13.23,3.45 c -0.92,0.16 -1.59,0.27 -2.08,0.3 -3.07,0.24 -6.63,-0.08 -10.62,-1.03 -1.9,-0.45 -3.52,-1.1 -4.89,-1.96 -1.31,-0.84 -2.12,-1.78 -2.43,-2.83 2.54,-0.19 7.72,-0.7 15.57,-1.56 7.02,-0.83 12.4,-1.38 16.16,-1.7 2.65,-0.19 5.02,-0.29 7.15,-0.35 -1.59,1.97 -3.46,3.85 -5.63,5.68 z m 76.55,4.82 -0.56,0.06 c -5.45,0.11 -11.62,-0.41 -18.48,-1.48 -6.88,-1.11 -15.24,-2.75 -25.03,-5.01 -8.94,-2.07 -15.54,-3.5 -19.81,-4.2 l 61.33,-4.69 c 1.66,-0.13 2.88,-0.53 3.66,-1.21 0.77,-0.65 1.08,-1.83 0.94,-3.5 -0.1,-1.18 -0.58,-2.07 -1.45,-2.74 -0.89,-0.68 -1.96,-0.95 -3.19,-0.87 l -1.21,0.08 c -12.4,0.92 -27.64,2.21 -45.65,3.77 -18.01,1.57 -33.23,2.81 -45.58,3.72 l -19.17,1.51 c -1.26,0.05 -2.1,0.4 -2.53,0.97 -0.45,0.59 -0.62,1.72 -0.49,3.36 0.18,2.56 0.89,4.88 2.07,7 1.15,2.13 2.71,3.91 4.61,5.36 1.83,1.32 3.93,2.48 6.23,3.34 2.33,0.89 4.74,1.51 7.22,1.83 2.36,0.27 4.76,0.3 7.2,0.13 2.27,-0.18 5.15,-0.72 8.67,-1.72 1.8,-0.51 4.6,-1.62 8.44,-3.42 l 4.36,-2.12 3.89,-1.94 c 3.77,-0.19 8.54,0.08 14.36,0.8 5.84,0.76 11.18,1.7 16.12,2.86 4.57,1.02 10.36,2.48 17.44,4.25 l 14.13,3.53 0.37,-0.03 2.26,-0.27 2.11,-0.51 c 1.69,-0.49 2.47,-1.67 2.34,-3.52 -0.14,-1.97 -1.7,-3.72 -4.6,-5.34"
         style="fill:#ffffff;fill-opacity:1;fill-rule:nonzero;stroke:none"
         id="path344" />
      <path
         d="m 2021.1,3553.68 c -4.26,3.26 -9.11,5.9 -14.54,7.86 -9.99,3.64 -20.14,5.85 -30.43,6.6 -5.7,0.46 -11.82,0.38 -18.46,-0.21 -6.46,-0.63 -12.49,-2.59 -18.08,-5.9 -2.64,-1.51 -4.71,-3.61 -6.3,-6.27 -1.59,-2.67 -2.5,-5.69 -2.75,-9.08 9.72,-0.75 24.05,-1.18 42.64,-1.32 18.93,-0.21 33.16,-0.67 42.7,-1.42 l 14.9,-1.08 c -2.21,3.96 -5.45,7.59 -9.68,10.82 z m 16.65,-20.03 c -1.04,-1.42 -2.39,-2.1 -4.09,-1.97 -2.21,2.43 -8.24,4.07 -18.05,4.8 -6.06,0.48 -14.7,0.62 -25.87,0.51 -11.18,-0.13 -19.74,0.06 -25.74,0.51 -1.82,0.14 -4.63,0.41 -8.39,0.89 -3.79,0.41 -6.68,0.67 -8.58,0.84 -2.9,0.24 -6.63,-0.03 -11.24,-0.84 -4.84,-0.78 -8.15,-1.13 -9.92,-1 -3.62,0.27 -5.11,4.39 -4.51,12.39 l 0.18,2.31 c 0.24,2.89 0.87,5.58 2.03,8 1.12,2.45 2.54,4.5 4.27,6.27 1.52,1.59 3.48,2.97 5.85,4.26 2.37,1.29 4.81,2.34 7.31,3.18 2.17,0.7 4.76,1.29 7.66,1.77 2.91,0.43 5.62,0.79 8.13,1.02 2.06,0.06 4.43,0.14 7.18,0.14 2.7,0 4.98,-0.08 6.73,-0.14 l 4.95,-0.37 7.22,-0.54 1.35,-0.51 1.83,0.11 1.56,0.02 c 3.31,-0.26 7.24,-1.05 11.71,-2.39 4.51,-1.4 9.12,-3.15 13.81,-5.44 5.25,-2.61 9.83,-5.31 13.72,-8.16 3.89,-2.83 7.01,-5.95 9.34,-9.4 2.55,-3.66 3.66,-7.32 3.4,-11.06 -0.18,-2.05 -0.79,-3.77 -1.84,-5.2"
         style="fill:#ffffff;fill-opacity:1;fill-rule:nonzero;stroke:none"
         id="path346" />
      <path
         d="m 2039.14,3603.14 c -2.46,0.19 -3.58,1.83 -3.35,5.01 l 0.24,1.78 0.23,1.43 -0.67,1.82 c -0.48,0.38 -1.43,0.65 -2.82,0.76 -8.38,0.65 -20.44,1.05 -36.13,1.29 -15.6,0.19 -27.62,0.65 -36.06,1.24 l -7.96,0.78 -7.89,0.75 c -3.08,0.25 -5.99,0.3 -8.69,0.3 0.36,-1.42 0.5,-2.64 0.4,-3.71 -0.17,-2.46 -1.52,-3.56 -4,-3.4 -1.22,0.13 -2.23,0.94 -3.04,2.53 -0.85,1.59 -1.4,3.64 -1.67,6.12 -0.43,4.25 -0.54,7.94 -0.29,11.09 0.09,1.24 0.6,2.29 1.52,3.09 0.87,0.87 1.92,1.24 3.08,1.16 1.12,-0.08 2.06,-0.48 2.84,-1.24 0.78,-0.72 1.16,-1.69 1.05,-2.74 l -0.18,-1.51 -0.09,-1.24 c -0.07,-1.02 0.09,-1.8 0.51,-2.29 0.43,-0.51 1.25,-0.8 2.46,-0.89 10.55,-0.8 25.78,-1.32 45.7,-1.56 19.9,-0.21 35.1,-0.73 45.64,-1.53 l 6.02,-0.49 c -0.07,1.08 -0.07,2.16 0,3.26 0.34,4.25 2.3,6.3 5.97,6.03 l 0.91,-0.08 2.37,-4.06 -0.18,-4.13 c -0.02,-2.5 -0.09,-4.68 -0.22,-6.51 -0.68,-8.94 -2.58,-13.3 -5.7,-13.06"
         style="fill:#ffffff;fill-opacity:1;fill-rule:nonzero;stroke:none"
         id="path348" />
      <path
         d="m 2020.73,3690.78 c -23,-4.95 -46.43,-9.48 -70.3,-13.55 l 51.1,-3.9 c 4.97,-0.37 12.38,-0.56 22.28,-0.54 10.22,-0.02 17.67,-0.27 22.28,-0.64 0.91,-0.03 1.66,-0.67 2.19,-1.86 0.58,-1.18 0.82,-2.48 0.72,-3.82 -0.17,-2.32 -1.05,-3.39 -2.67,-3.26 -0.42,0.02 -1.96,0.27 -4.62,0.75 -2.66,0.43 -4.83,0.73 -6.53,0.86 -5.76,0.41 -14.5,0.76 -26.21,0.97 -11.71,0.27 -19.1,0.46 -22.18,0.73 l -19.84,1.51 c -3.65,0.27 -8.41,0.81 -14.26,1.59 -5.86,0.81 -10.6,1.34 -14.26,1.61 l -0.98,0.08 c -5.18,0.4 -7.65,1.73 -7.48,4.01 0.1,1.43 2.5,2.99 7.14,4.74 7.8,2.86 21.48,6.17 41.14,9.96 11.22,2.11 25.92,4.55 44.13,7.36 l 10.97,1.58 0.78,0.11 c -7.35,0.57 -16.39,1.35 -27.12,2.37 -10.73,1.02 -19.78,1.81 -27.13,2.34 l -46.05,3.53 c -2.55,0.81 -3.69,2.56 -3.49,5.33 0.2,2.83 2.34,4.07 6.4,3.75 l 0.91,-0.09 c 1.23,-0.67 2.72,-1.07 4.51,-1.21 6.26,-0.48 15.85,-1.4 28.69,-2.64 11.98,-1.29 21.56,-2.18 28.78,-2.72 l 47.57,-3.63 c 1.63,-0.08 3.16,-0.7 4.58,-1.67 1.42,-1 2.1,-2.1 1.99,-3.34 -0.17,-2.18 -11.17,-5.6 -33.04,-10.31"
         style="fill:#ffffff;fill-opacity:1;fill-rule:nonzero;stroke:none"
         id="path350" />
      <path
         d="m 2058.71,3760.08 c -1.11,-2.31 -2.53,-4.36 -4.29,-6.06 -1.5,-1.5 -3.42,-2.91 -5.86,-4.11 -2.41,-1.27 -4.95,-2.32 -7.61,-3.13 -2.17,-0.67 -4.85,-1.24 -7.97,-1.62 -3.11,-0.4 -6.09,-0.67 -8.94,-0.83 -2.44,-0.13 -5.28,-0.19 -8.57,-0.16 -3.28,0.03 -5.96,0.11 -8.02,0.27 -1.32,0.05 -3.66,0.19 -7.01,0.45 l -5.32,0.41 c -1.72,0.05 -3.79,0.19 -6.16,0.4 -4.97,0.33 -10.29,0.94 -15.99,1.75 -5.4,0.76 -10.76,2 -16.08,3.75 -2.77,0.91 -5.21,1.88 -7.31,2.93 -2.1,1.05 -4.07,2.35 -5.92,3.85 -1.94,1.54 -3.5,3.15 -4.71,4.95 -1.23,1.81 -2.17,3.83 -2.82,6.2 -0.58,2.23 -0.78,4.68 -0.58,7.46 0.35,4.25 1.97,6.32 4.91,6.08 1.1,-0.05 1.9,-0.54 2.55,-1.43 0.61,-0.83 0.88,-1.8 0.81,-2.93 -0.03,-0.38 -0.23,-1.05 -0.58,-2.16 -0.34,-1.13 -0.5,-1.88 -0.54,-2.29 -0.13,-1.88 0.34,-3.71 1.39,-5.32 1.09,-1.7 2.72,-3.13 4.91,-4.39 2.44,-1.35 4.91,-2.53 7.44,-3.56 2.55,-1.02 5.39,-1.83 8.61,-2.48 4.13,-0.91 7.48,-1.61 10.1,-2.09 2.61,-0.46 5.51,-0.92 8.69,-1.24 4.71,-0.54 9.58,-1.03 14.74,-1.43 l 4.23,-0.3 c 1.42,-0.18 3.22,-0.32 5.38,-0.51 3.15,-0.21 5.86,-0.37 8.09,-0.48 2.24,-0.06 4.78,-0.06 7.62,0 3.19,0.08 6.01,0.27 8.44,0.62 2.44,0.32 4.9,0.89 7.42,1.61 2.6,0.73 4.77,1.7 6.5,2.86 1.72,1.21 3.14,2.74 4.3,4.6 1.22,1.83 1.92,3.93 2.1,6.33 0.33,4.6 -1.57,8.62 -5.66,11.95 -3.46,0.22 -6.97,0.27 -10.56,0.08 -3.56,-0.13 -6.04,-0.54 -7.42,-1.23 l 0.11,-2.43 c 0.09,-1.45 0.09,-2.69 0.02,-3.69 -0.27,-3.55 -1.85,-5.22 -4.8,-4.98 -0.95,0.06 -1.77,0.67 -2.44,1.75 -0.65,1.16 -1.09,2.58 -1.32,4.28 -0.4,3.1 -0.54,5.71 -0.38,7.81 0.14,2.08 1.05,3.63 2.71,4.68 1.67,1.06 3.7,1.46 6.07,1.33 3.08,-0.27 7.75,-0.09 14.02,0.53 6.43,0.52 11.07,0.68 13.94,0.49 1.23,-0.11 2.21,-0.54 2.99,-1.32 0.74,-0.78 1.08,-1.75 0.98,-2.83 -0.17,-2.64 -1.38,-4.25 -3.66,-4.93 0.11,-0.46 0.47,-1.64 1.36,-3.52 0.81,-1.84 1.39,-3.34 1.72,-4.58 0.31,-1.27 0.41,-2.47 0.31,-3.69 -0.2,-2.77 -0.84,-5.35 -1.94,-7.7"
         style="fill:#ffffff;fill-opacity:1;fill-rule:nonzero;stroke:none"
         id="path352" />
      <path
         d="m 2660.21,3104.27 h -4.58 c 7.75,10.9 6.89,24.47 -2.37,35.94 -12.22,14.97 -38.88,24.32 -68.49,9.56 -1.24,-0.64 -2.32,-1.16 -3.61,-1.61 -1.24,-0.7 -2.53,-1.24 -3.88,-1.65 -4.84,-1.96 -9.8,-3.31 -14.81,-4.25 -1.56,-0.27 -3.12,-0.54 -4.73,-0.75 -24.99,-3.21 -48.63,5.35 -61.07,19 -10.39,11.47 -11.9,25.02 -4.2,37.35 0.92,1.42 1.83,2.8 2.75,4.12 0.75,1.05 1.56,2.04 2.37,3.07 2.96,3.71 6.14,6.92 9.47,9.47 0.97,0.81 2.05,1.57 3.13,2.27 5.49,3.66 11.47,5.78 17.87,6.4 26.82,2.61 50.68,-22.59 51.75,-23.64 l -0.16,-2.72 -2.69,0.09 c -0.16,0.26 -23.59,24.85 -48.63,22.48 -5.38,-0.54 -10.5,-2.32 -15.23,-5.36 -1.19,-0.59 -2.21,-1.38 -3.29,-2.24 -3.34,-2.5 -6.46,-5.68 -9.48,-9.45 -0.75,-0.97 -1.56,-2.04 -2.26,-3.15 -0.81,-1.07 -1.56,-2.18 -2.31,-3.42 -6.89,-10.85 -5.5,-22.45 3.82,-32.65 11.15,-12.31 31.99,-20.2 54.6,-18.1 1.62,0.06 3.18,0.19 4.9,0.54 5.01,0.76 10.12,1.97 15.24,3.85 1.29,0.49 2.58,1.02 3.93,1.56 1.67,0.68 3.23,1.37 4.85,2.18 31.55,15.84 60.04,5.63 73.18,-10.5 9.74,-12.06 11.14,-26.52 3.93,-38.39"
         style="fill:#0b3572;fill-opacity:1;fill-rule:nonzero;stroke:none"
         id="path354" />
      <path
         d="m 2601.78,3104.27 h -5.44 l -38.6,37.24 -3.56,3.52 -56.11,54.17 -2.85,2.78 -14.11,13.65 v 2.74 h 2.64 l 13.84,-13.32 2.74,-2.7 58.75,-56.78 3.39,-3.31 39.31,-37.99"
         style="fill:#0b3572;fill-opacity:1;fill-rule:nonzero;stroke:none"
         id="path356" />
      <path
         d="m 2626.55,3104.27 h -5.49 l -43.78,42.24 -2.96,2.91 -64.51,62.38 -2.75,2.72 -14,13.46 -0.05,2.81 h 2.75 l 14.43,-14 2.91,-2.75 65.15,-63.06 2.91,-2.82 45.39,-43.89"
         style="fill:#0b3572;fill-opacity:1;fill-rule:nonzero;stroke:none"
         id="path358" />
    </g>
  </g>
</svg>
