<?xml version="1.0" encoding="utf-8"?>
<!-- Generator: Adobe Illustrator 23.0.5, SVG Export Plug-In . SVG Version: 6.00 Build 0)  -->
<svg version="1.1" id="Layer_1" xmlns="http://www.w3.org/2000/svg" xmlns:xlink="http://www.w3.org/1999/xlink" x="0px" y="0px"
	 viewBox="0 0 48 48" style="enable-background:new 0 0 48 48;" xml:space="preserve">
<style type="text/css">
	.st0{fill:#F9AA33;}
</style>
<path class="st0" d="M24,38c3.9,0,7.2-1.4,9.9-4.1s4.1-6,4.1-9.9c0-3.6-1.2-6.7-3.5-9.3c-2.4-2.6-5.3-4.2-8.8-4.5
	c-0.5-0.1-0.9,0.1-1.2,0.3c-0.3,0.3-0.5,0.7-0.5,1.2V24l-8.4,8.9c-0.3,0.3-0.4,0.7-0.4,1.1c0,0.4,0.2,0.8,0.5,1
	c1.2,1,2.5,1.7,3.9,2.2C21,37.7,22.5,38,24,38z M24,44c-2.7,0-5.3-0.5-7.8-1.6c-2.4-1-4.6-2.5-6.4-4.3s-3.3-3.9-4.3-6.4S4,26.7,4,24
	c0-2.8,0.5-5.4,1.6-7.8s2.5-4.6,4.3-6.4s3.9-3.2,6.4-4.3S21.3,4,24,4c2.8,0,5.4,0.5,7.8,1.6s4.6,2.5,6.4,4.3s3.2,3.9,4.3,6.4
	c1.1,2.4,1.6,5,1.6,7.8c0,2.7-0.5,5.3-1.6,7.8c-1,2.4-2.5,4.6-4.3,6.4s-3.9,3.3-6.4,4.3C29.4,43.5,26.8,44,24,44z M24,41
	c4.7,0,8.8-1.7,12-5c3.3-3.3,5-7.3,5-12c0-4.7-1.6-8.8-5-12c-3.3-3.3-7.3-5-12-5c-4.7,0-8.7,1.7-12,5s-5,7.3-5,12
	c0,4.7,1.7,8.7,5,12C15.3,39.3,19.3,41,24,41z"/>
</svg>
