<svg id="Layer_1" data-name="Layer 1" xmlns="http://www.w3.org/2000/svg" viewBox="0 0 357.05 109.47"><defs><style>.cls-1{fill:#005098;}.cls-2{fill:#f7a600;}</style></defs><title>VISA</title><polygon class="cls-1" points="125.78 107.89 143.85 1.84 172.77 1.84 154.67 107.89 125.78 107.89 125.78 107.89"/><path class="cls-1" d="M498.63,251.64a74.57,74.57,0,0,0-25.91-4.46c-28.56,0-48.68,14.39-48.86,35-.16,15.24,14.36,23.74,25.33,28.82,11.26,5.2,15,8.51,15,13.15-.08,7.11-9,10.35-17.3,10.35-11.57,0-17.71-1.6-27.21-5.56L416,327.26,411.89,351c6.75,3,19.23,5.52,32.2,5.65,30.39,0,50.11-14.21,50.34-36.23.11-12.06-7.59-21.24-24.26-28.81-10.11-4.91-16.31-8.18-16.24-13.15,0-4.41,5.24-9.12,16.56-9.12a53.16,53.16,0,0,1,21.62,4.06l2.61,1.23,3.91-23Z" transform="translate(-239.11 -247.18)"/><path class="cls-1" d="M572.76,249.13H550.42c-6.92,0-12.1,1.89-15.14,8.79l-42.92,97.2h30.35s4.95-13.07,6.09-15.94l37,.05c.85,3.71,3.51,15.89,3.51,15.89h26.83l-23.4-106Zm-35.65,68.36c2.39-6.11,11.51-29.65,11.51-29.65-.16.28,2.38-6.14,3.84-10.13l2,9.15,6.69,30.63Z" transform="translate(-239.11 -247.18)"/><path class="cls-1" d="M340.65,249.1l-28.31,72.33-3-14.7c-5.26-17-21.67-35.3-40-44.49L295.17,355l30.58,0L371.26,249.1Z" transform="translate(-239.11 -247.18)"/><path class="cls-2" d="M286.09,249H239.46l-.35,2.2c36.26,8.79,60.26,30,70.21,55.49L299.19,258c-1.74-6.72-6.82-8.72-13.1-9Z" transform="translate(-239.11 -247.18)"/></svg>